  0
SECTION
  2
HEADER
  9
$ACADVER
  1
AC1032
  9
$ACADMAINTVER
 90
      155
  9
$DWGCODEPAGE
  3
ANSI_1252
  9
$REQUIREDVERSIONS
160
                 0
  9
$INSBASE
 10
0.0
 20
0.0
 30
0.0
  9
$EXTMIN
 10
1.000000000000000E+20
 20
1.000000000000000E+20
 30
1.000000000000000E+20
  9
$EXTMAX
 10
-1.000000000000000E+20
 20
-1.000000000000000E+20
 30
-1.000000000000000E+20
  9
$LIMMIN
 10
0.0
 20
0.0
  9
$LIMMAX
 10
12.0
 20
9.0
  9
$ORTHOMODE
 70
     0
  9
$REGENMODE
 70
     1
  9
$FILLMODE
 70
     1
  9
$QTEXTMODE
 70
     0
  9
$MIRRTEXT
 70
     0
  9
$LTSCALE
 40
1.0
  9
$ATTMODE
 70
     1
  9
$TEXTSIZE
 40
0.2
  9
$TRACEWID
 40
0.05
  9
$TEXTSTYLE
  7
Standard
  9
$CLAYER
  8
0
  9
$CELTYPE
  6
ByLayer
  9
$CECOLOR
 62
   256
  9
$CELTSCALE
 40
1.0
  9
$DISPSILH
 70
     0
  9
$DIMSCALE
 40
1.0
  9
$DIMASZ
 40
0.18
  9
$DIMEXO
 40
0.0625
  9
$DIMDLI
 40
0.38
  9
$DIMRND
 40
0.0
  9
$DIMDLE
 40
0.0
  9
$DIMEXE
 40
0.18
  9
$DIMTP
 40
0.0
  9
$DIMTM
 40
0.0
  9
$DIMTXT
 40
0.18
  9
$DIMCEN
 40
0.09
  9
$DIMTSZ
 40
0.0
  9
$DIMTOL
 70
     0
  9
$DIMLIM
 70
     0
  9
$DIMTIH
 70
     1
  9
$DIMTOH
 70
     1
  9
$DIMSE1
 70
     0
  9
$DIMSE2
 70
     0
  9
$DIMTAD
 70
     0
  9
$DIMZIN
 70
     0
  9
$DIMBLK
  1

  9
$DIMASO
 70
     1
  9
$DIMSHO
 70
     1
  9
$DIMPOST
  1

  9
$DIMAPOST
  1

  9
$DIMALT
 70
     0
  9
$DIMALTD
 70
     2
  9
$DIMALTF
 40
25.4
  9
$DIMLFAC
 40
1.0
  9
$DIMTOFL
 70
     0
  9
$DIMTVP
 40
0.0
  9
$DIMTIX
 70
     0
  9
$DIMSOXD
 70
     0
  9
$DIMSAH
 70
     0
  9
$DIMBLK1
  1

  9
$DIMBLK2
  1

  9
$DIMSTYLE
  2
Standard
  9
$DIMCLRD
 70
     0
  9
$DIMCLRE
 70
     0
  9
$DIMCLRT
 70
     0
  9
$DIMTFAC
 40
1.0
  9
$DIMGAP
 40
0.09
  9
$DIMJUST
 70
     0
  9
$DIMSD1
 70
     0
  9
$DIMSD2
 70
     0
  9
$DIMTOLJ
 70
     1
  9
$DIMTZIN
 70
     0
  9
$DIMALTZ
 70
     0
  9
$DIMALTTZ
 70
     0
  9
$DIMUPT
 70
     0
  9
$DIMDEC
 70
     4
  9
$DIMTDEC
 70
     4
  9
$DIMALTU
 70
     2
  9
$DIMALTTD
 70
     2
  9
$DIMTXSTY
  7
Standard
  9
$DIMAUNIT
 70
     0
  9
$DIMADEC
 70
     0
  9
$DIMALTRND
 40
0.0
  9
$DIMAZIN
 70
     0
  9
$DIMDSEP
 70
    46
  9
$DIMATFIT
 70
     3
  9
$DIMFRAC
 70
     0
  9
$DIMLDRBLK
  1

  9
$DIMLUNIT
 70
     2
  9
$DIMLWD
 70
    -2
  9
$DIMLWE
 70
    -2
  9
$DIMTMOVE
 70
     0
  9
$DIMFXL
 40
1.0
  9
$DIMFXLON
 70
     0
  9
$DIMJOGANG
 40
0.7853981633974483
  9
$DIMTFILL
 70
     0
  9
$DIMTFILLCLR
 70
     0
  9
$DIMARCSYM
 70
     0
  9
$DIMLTYPE
  6

  9
$DIMLTEX1
  6

  9
$DIMLTEX2
  6

  9
$DIMTXTDIRECTION
 70
     0
  9
$LUNITS
 70
     2
  9
$LUPREC
 70
     4
  9
$SKETCHINC
 40
0.1
  9
$FILLETRAD
 40
0.0
  9
$AUNITS
 70
     0
  9
$AUPREC
 70
     0
  9
$MENU
  1
.
  9
$ELEVATION
 40
0.0
  9
$PELEVATION
 40
0.0
  9
$THICKNESS
 40
0.0
  9
$LIMCHECK
 70
     0
  9
$CHAMFERA
 40
0.0
  9
$CHAMFERB
 40
0.0
  9
$CHAMFERC
 40
0.0
  9
$CHAMFERD
 40
0.0
  9
$SKPOLY
 70
     0
  9
$TDCREATE
 40
2459511.587106482
  9
$TDUCREATE
 40
2459511.753773148
  9
$TDUPDATE
 40
2459511.587106482
  9
$TDUUPDATE
 40
2459511.753773148
  9
$TDINDWG
 40
0.0000000000
  9
$TDUSRTIMER
 40
0.0000000000
  9
$USRTIMER
 70
     1
  9
$ANGBASE
 50
0.0
  9
$ANGDIR
 70
     0
  9
$PDMODE
 70
     0
  9
$PDSIZE
 40
0.0
  9
$PLINEWID
 40
0.0
  9
$SPLFRAME
 70
     0
  9
$SPLINETYPE
 70
     6
  9
$SPLINESEGS
 70
     8
  9
$HANDSEED
  5
B9
  9
$SURFTAB1
 70
     6
  9
$SURFTAB2
 70
     6
  9
$SURFTYPE
 70
     6
  9
$SURFU
 70
     6
  9
$SURFV
 70
     6
  9
$UCSBASE
  2

  9
$UCSNAME
  2

  9
$UCSORG
 10
0.0
 20
0.0
 30
0.0
  9
$UCSXDIR
 10
1.0
 20
0.0
 30
0.0
  9
$UCSYDIR
 10
0.0
 20
1.0
 30
0.0
  9
$UCSORTHOREF
  2

  9
$UCSORTHOVIEW
 70
     0
  9
$UCSORGTOP
 10
0.0
 20
0.0
 30
0.0
  9
$UCSORGBOTTOM
 10
0.0
 20
0.0
 30
0.0
  9
$UCSORGLEFT
 10
0.0
 20
0.0
 30
0.0
  9
$UCSORGRIGHT
 10
0.0
 20
0.0
 30
0.0
  9
$UCSORGFRONT
 10
0.0
 20
0.0
 30
0.0
  9
$UCSORGBACK
 10
0.0
 20
0.0
 30
0.0
  9
$PUCSBASE
  2

  9
$PUCSNAME
  2

  9
$PUCSORG
 10
0.0
 20
0.0
 30
0.0
  9
$PUCSXDIR
 10
1.0
 20
0.0
 30
0.0
  9
$PUCSYDIR
 10
0.0
 20
1.0
 30
0.0
  9
$PUCSORTHOREF
  2

  9
$PUCSORTHOVIEW
 70
     0
  9
$PUCSORGTOP
 10
0.0
 20
0.0
 30
0.0
  9
$PUCSORGBOTTOM
 10
0.0
 20
0.0
 30
0.0
  9
$PUCSORGLEFT
 10
0.0
 20
0.0
 30
0.0
  9
$PUCSORGRIGHT
 10
0.0
 20
0.0
 30
0.0
  9
$PUCSORGFRONT
 10
0.0
 20
0.0
 30
0.0
  9
$PUCSORGBACK
 10
0.0
 20
0.0
 30
0.0
  9
$USERI1
 70
     0
  9
$USERI2
 70
     0
  9
$USERI3
 70
     0
  9
$USERI4
 70
     0
  9
$USERI5
 70
     0
  9
$USERR1
 40
0.0
  9
$USERR2
 40
0.0
  9
$USERR3
 40
0.0
  9
$USERR4
 40
0.0
  9
$USERR5
 40
0.0
  9
$WORLDVIEW
 70
     1
  9
$SHADEDGE
 70
     3
  9
$SHADEDIF
 70
    70
  9
$TILEMODE
 70
     1
  9
$MAXACTVP
 70
    64
  9
$PINSBASE
 10
0.0
 20
0.0
 30
0.0
  9
$PLIMCHECK
 70
     0
  9
$PEXTMIN
 10
1.000000000000000E+20
 20
1.000000000000000E+20
 30
1.000000000000000E+20
  9
$PEXTMAX
 10
-1.000000000000000E+20
 20
-1.000000000000000E+20
 30
-1.000000000000000E+20
  9
$PLIMMIN
 10
0.0
 20
0.0
  9
$PLIMMAX
 10
12.0
 20
9.0
  9
$UNITMODE
 70
     0
  9
$VISRETAIN
 70
     1
  9
$PLINEGEN
 70
     0
  9
$PSLTSCALE
 70
     1
  9
$TREEDEPTH
 70
  3020
  9
$CMLSTYLE
  2
Standard
  9
$CMLJUST
 70
     0
  9
$CMLSCALE
 40
1.0
  9
$PROXYGRAPHICS
 70
     1
  9
$MEASUREMENT
 70
     0
  9
$CELWEIGHT
370
    -1
  9
$ENDCAPS
280
     0
  9
$JOINSTYLE
280
     0
  9
$LWDISPLAY
290
     1
  9
$INSUNITS
 70
     4
  9
$HYPERLINKBASE
  1

  9
$STYLESHEET
  1

  9
$XEDIT
290
     1
  9
$CEPSNTYPE
380
     0
  9
$PSTYLEMODE
290
     1
  9
$FINGERPRINTGUID
  2
{A69D0728-1197-A845-B636-657714B2FC1E}
  9
$VERSIONGUID
  2
{0CCCA4EB-B152-2F47-936B-58F3B0C832D8}
  9
$EXTNAMES
290
     1
  9
$PSVPSCALE
 40
0.0
  9
$OLESTARTUP
290
     0
  9
$SORTENTS
280
   127
  9
$INDEXCTL
280
     0
  9
$HIDETEXT
280
     1
  9
$XCLIPFRAME
280
     2
  9
$HALOGAP
280
     0
  9
$OBSCOLOR
 70
   257
  9
$OBSLTYPE
280
     0
  9
$INTERSECTIONDISPLAY
280
     0
  9
$INTERSECTIONCOLOR
 70
   257
  9
$DIMASSOC
280
     2
  9
$PROJECTNAME
  1

  9
$CAMERADISPLAY
290
     0
  9
$LENSLENGTH
 40
50.0
  9
$CAMERAHEIGHT
 40
0.0
  9
$STEPSPERSEC
 40
2.0
  9
$STEPSIZE
 40
6.0
  9
$3DDWFPREC
 40
2.0
  9
$PSOLWIDTH
 40
0.25
  9
$PSOLHEIGHT
 40
4.0
  9
$LOFTANG1
 40
1.570796326794896
  9
$LOFTANG2
 40
1.570796326794896
  9
$LOFTMAG1
 40
0.0
  9
$LOFTMAG2
 40
0.0
  9
$LOFTPARAM
 70
     7
  9
$LOFTNORMALS
280
     1
  9
$LATITUDE
 40
37.795
  9
$LONGITUDE
 40
-122.394
  9
$NORTHDIRECTION
 40
0.0
  9
$TIMEZONE
 70
 -8000
  9
$LIGHTGLYPHDISPLAY
280
     1
  9
$TILEMODELIGHTSYNCH
280
     1
  9
$CMATERIAL
347
11
  9
$SOLIDHIST
280
     0
  9
$SHOWHIST
280
     1
  9
$DWFFRAME
280
     2
  9
$DGNFRAME
280
     0
  9
$REALWORLDSCALE
290
     1
  9
$INTERFERECOLOR
 62
     1
  9
$INTERFEREOBJVS
345
33
  9
$INTERFEREVPVS
346
30
  9
$CSHADOW
280
     0
  9
$SHADOWPLANELOCATION
 40
0.0
  0
ENDSEC
  0
SECTION
  2
CLASSES
  0
CLASS
  1
ACDBDICTIONARYWDFLT
  2
AcDbDictionaryWithDefault
  3
ObjectDBX Classes
 90
        0
 91
        1
280
     0
281
     0
  0
CLASS
  1
MATERIAL
  2
AcDbMaterial
  3
ObjectDBX Classes
 90
     1153
 91
        3
280
     0
281
     0
  0
CLASS
  1
VISUALSTYLE
  2
AcDbVisualStyle
  3
ObjectDBX Classes
 90
     4095
 91
       24
280
     0
281
     0
  0
CLASS
  1
SCALE
  2
AcDbScale
  3
ObjectDBX Classes
 90
     1153
 91
       17
280
     0
281
     0
  0
CLASS
  1
TABLESTYLE
  2
AcDbTableStyle
  3
ObjectDBX Classes
 90
     4095
 91
        1
280
     0
281
     0
  0
CLASS
  1
MLEADERSTYLE
  2
AcDbMLeaderStyle
  3
ACDB_MLEADERSTYLE_CLASS
 90
     4095
 91
        1
280
     0
281
     0
  0
CLASS
  1
ACDBSECTIONVIEWSTYLE
  2
AcDbSectionViewStyle
  3
ObjectDBX Classes
 90
     1025
 91
        1
280
     0
281
     0
  0
CLASS
  1
ACDBDETAILVIEWSTYLE
  2
AcDbDetailViewStyle
  3
ObjectDBX Classes
 90
     1025
 91
        1
280
     0
281
     0
  0
CLASS
  1
DICTIONARYVAR
  2
AcDbDictionaryVar
  3
ObjectDBX Classes
 90
        0
 91
        5
280
     0
281
     0
  0
CLASS
  1
CELLSTYLEMAP
  2
AcDbCellStyleMap
  3
ObjectDBX Classes
 90
     1152
 91
        1
280
     0
281
     0
  0
ENDSEC
  0
SECTION
  2
TABLES
  0
TABLE
  2
VPORT
  5
8
330
0
100
AcDbSymbolTable
 70
     1
  0
VPORT
  5
57
330
8
100
AcDbSymbolTableRecord
100
AcDbViewportTableRecord
  2
*Active
 70
     0
 10
0.0
 20
0.0
 11
1.0
 21
1.0
 12
0.0
 22
0.0
 13
0.0
 23
0.0
 14
1.0
 24
1.0
 15
0.0
 25
0.0
 16
0.0
 26
0.0
 36
1.0
 17
243.4166666058125
 27
119.1134146410538
 37
0.0
 40
242.9913658677499
 41
2.043570552815938
 42
50.0
 43
0.0
 44
0.0
 50
0.0
 51
0.0
 71
     0
 72
   100
 73
     1
 74
     0
 75
     1
 76
     0
 77
     0
 78
     0
281
     0
 65
     1
110
0.0
120
0.0
130
0.0
111
1.0
121
0.0
131
0.0
112
0.0
122
1.0
132
0.0
 79
     0
146
0.0
 60
     3
 61
     5
292
     1
282
     1
141
0.0
142
0.0
 63
   250
421
  3355443
  0
ENDTAB
  0
TABLE
  2
LTYPE
  5
5
330
0
100
AcDbSymbolTable
 70
     1
  0
LTYPE
  5
5B
330
5
100
AcDbSymbolTableRecord
100
AcDbLinetypeTableRecord
  2
ByBlock
 70
     0
  3

 72
    65
 73
     0
 40
0.0
  0
LTYPE
  5
5C
330
5
100
AcDbSymbolTableRecord
100
AcDbLinetypeTableRecord
  2
ByLayer
 70
     0
  3

 72
    65
 73
     0
 40
0.0
  0
LTYPE
  5
5D
330
5
100
AcDbSymbolTableRecord
100
AcDbLinetypeTableRecord
  2
Continuous
 70
     0
  3
Solid line
 72
    65
 73
     0
 40
0.0
  0
ENDTAB
  0
TABLE
  2
LAYER
  5
2
330
0
100
AcDbSymbolTable
 70
     2
  0
LAYER
  5
54
330
2
100
AcDbSymbolTableRecord
100
AcDbLayerTableRecord
  2
0
 70
     0
 62
     7
  6
Continuous
370
    -3
390
F
347
21
348
0
  0
LAYER
  5
78
330
2
100
AcDbSymbolTableRecord
100
AcDbLayerTableRecord
  2
splitsvg
 70
     0
 62
     7
  6
Continuous
370
     0
390
F
347
21
348
0
  0
ENDTAB
  0
TABLE
  2
STYLE
  5
3
330
0
100
AcDbSymbolTable
 70
     2
  0
STYLE
  5
55
330
3
100
AcDbSymbolTableRecord
100
AcDbTextStyleTableRecord
  2
Standard
 70
     0
 40
0.0
 41
1.0
 50
0.0
 71
     0
 42
0.2
  3
txt
  4

  0
STYLE
  5
5A
330
3
100
AcDbSymbolTableRecord
100
AcDbTextStyleTableRecord
  2
Annotative
 70
     0
 40
0.0
 41
1.0
 50
0.0
 71
     0
 42
0.2
  3
txt
  4

1001
AcadAnnotative
1000
AnnotativeData
1002
{
1070
     1
1070
     1
1002
}
  0
ENDTAB
  0
TABLE
  2
VIEW
  5
6
330
0
100
AcDbSymbolTable
 70
     0
  0
ENDTAB
  0
TABLE
  2
UCS
  5
7
330
0
100
AcDbSymbolTable
 70
     0
  0
ENDTAB
  0
TABLE
  2
APPID
  5
9
330
0
100
AcDbSymbolTable
 70
     2
  0
APPID
  5
56
330
9
100
AcDbSymbolTableRecord
100
AcDbRegAppTableRecord
  2
ACAD
 70
     0
  0
APPID
  5
5E
330
9
100
AcDbSymbolTableRecord
100
AcDbRegAppTableRecord
  2
AcadAnnotative
 70
     0
  0
ENDTAB
  0
TABLE
  2
DIMSTYLE
  5
A
330
0
100
AcDbSymbolTable
 70
     2
100
AcDbDimStyleTable
 71
     0
  0
DIMSTYLE
105
58
330
A
100
AcDbSymbolTableRecord
100
AcDbDimStyleTableRecord
  2
Standard
 70
     0
340
55
  0
DIMSTYLE
105
59
330
A
100
AcDbSymbolTableRecord
100
AcDbDimStyleTableRecord
  2
Annotative
 70
     0
340
55
1001
AcadAnnotative
1000
AnnotativeData
1002
{
1070
     1
1070
     1
1002
}
  0
ENDTAB
  0
TABLE
  2
BLOCK_RECORD
  5
1
330
0
100
AcDbSymbolTable
 70
     1
  0
BLOCK_RECORD
  5
70
330
1
100
AcDbSymbolTableRecord
100
AcDbBlockTableRecord
  2
*Model_Space
340
73
 70
     0
280
     1
281
     0
  0
BLOCK_RECORD
  5
6C
330
1
100
AcDbSymbolTableRecord
100
AcDbBlockTableRecord
  2
*Paper_Space
340
6F
 70
     0
280
     1
281
     0
  0
BLOCK_RECORD
  5
74
330
1
100
AcDbSymbolTableRecord
100
AcDbBlockTableRecord
  2
*Paper_Space0
340
77
 70
     0
280
     1
281
     0
  0
ENDTAB
  0
ENDSEC
  0
SECTION
  2
BLOCKS
  0
BLOCK
  5
71
330
70
100
AcDbEntity
  8
0
100
AcDbBlockBegin
  2
*Model_Space
 70
     0
 10
0.0
 20
0.0
 30
0.0
  3
*Model_Space
  1

  0
ENDBLK
  5
72
330
70
100
AcDbEntity
  8
0
100
AcDbBlockEnd
  0
BLOCK
  5
6D
330
6C
100
AcDbEntity
 67
     1
  8
0
100
AcDbBlockBegin
  2
*Paper_Space
 70
     0
 10
0.0
 20
0.0
 30
0.0
  3
*Paper_Space
  1

  0
ENDBLK
  5
6E
330
6C
100
AcDbEntity
 67
     1
  8
0
100
AcDbBlockEnd
  0
BLOCK
  5
75
330
74
100
AcDbEntity
 67
     1
  8
0
100
AcDbBlockBegin
  2
*Paper_Space0
 70
     0
 10
0.0
 20
0.0
 30
0.0
  3
*Paper_Space0
  1

  0
ENDBLK
  5
76
330
74
100
AcDbEntity
 67
     1
  8
0
100
AcDbBlockEnd
  0
ENDSEC
  0
SECTION
  2
ENTITIES
  0
SPLINE
  5
79
330
70
100
AcDbEntity
  8
splitsvg
100
AcDbSpline
210
0.0
220
0.0
230
1.0
 70
     9
 71
     3
 72
    14
 73
    10
 74
     0
 42
0.0000000001
 43
0.0000000001
 40
0.0
 40
0.0
 40
0.0
 40
0.0
 40
1.0
 40
1.0
 40
1.0
 40
2.0
 40
2.0
 40
2.0
 40
3.0
 40
3.0
 40
3.0
 40
3.0
 10
209.9530310967978
 20
9.004478283283072
 30
0.0
 10
214.2828330117165
 20
4.125009655518295
 30
0.0
 10
221.9838509976483
 20
-0.5252199504091305
 30
0.0
 10
209.9834469733414
 20
2.490097269270815
 30
0.0
 10
208.0042249340609
 20
3.202318143808152
 30
0.0
 10
198.1899809404934
 20
6.051791513068996
 30
0.0
 10
202.0943963965911
 20
6.924979849314148
 30
0.0
 10
204.7781474017018
 20
6.049000526268918
 30
0.0
 10
208.3701374335818
 20
11.5500524674557
 30
0.0
 10
209.9530310967978
 20
9.004478283283072
 30
0.0
  0
SPLINE
  5
7A
330
70
100
AcDbEntity
  8
splitsvg
100
AcDbSpline
210
0.0
220
0.0
230
1.0
 70
     9
 71
     3
 72
    11
 73
     7
 74
     0
 42
0.0000000001
 43
0.0000000001
 40
0.0
 40
0.0
 40
0.0
 40
0.0
 40
1.0
 40
1.0
 40
1.0
 40
2.0
 40
2.0
 40
2.0
 40
2.0
 10
203.8908903580247
 20
16.72573394405892
 30
0.0
 10
219.8305289309563
 20
-0.2297900702243444
 30
0.0
 10
178.0255638334253
 20
12.70229868086325
 30
0.0
 10
197.8174473933048
 20
13.4389420118045
 30
0.0
 10
200.1994492245706
 20
13.65014721473252
 30
0.0
 10
202.0987161575533
 20
16.45426173078029
 30
0.0
 10
203.8908903580247
 20
16.72573394405892
 30
0.0
  0
SPLINE
  5
7B
330
70
100
AcDbEntity
  8
splitsvg
100
AcDbSpline
210
0.0
220
0.0
230
1.0
 70
     9
 71
     3
 72
    14
 73
    10
 74
     0
 42
0.0000000001
 43
0.0000000001
 40
0.0
 40
0.0
 40
0.0
 40
0.0
 40
1.0
 40
1.0
 40
1.0
 40
2.0
 40
2.0
 40
2.0
 40
3.0
 40
3.0
 40
3.0
 40
3.0
 10
199.1760188042985
 20
24.92004427865314
 30
0.0
 10
209.1759695273262
 20
15.02278173604165
 30
0.0
 10
192.7863287715559
 20
9.97787916254215
 30
0.0
 10
187.3908156610589
 20
16.36360859618626
 30
0.0
 10
182.5083576406484
 20
21.65751949428227
 30
0.0
 10
181.7340336864945
 20
21.08716027860443
 30
0.0
 10
186.6002715035288
 20
21.23662798116245
 30
0.0
 10
192.7740686219665
 20
21.25359514103613
 30
0.0
 10
194.8658108137689
 20
23.24758469966004
 30
0.0
 10
199.1760188042985
 20
24.92004427865314
 30
0.0
  0
SPLINE
  5
7C
330
70
100
AcDbEntity
  8
splitsvg
100
AcDbSpline
210
0.0
220
0.0
230
1.0
 70
     9
 71
     3
 72
    14
 73
    10
 74
     0
 42
0.0000000001
 43
0.0000000001
 40
0.0
 40
0.0
 40
0.0
 40
0.0
 40
1.0
 40
1.0
 40
1.0
 40
2.0
 40
2.0
 40
2.0
 40
3.0
 40
3.0
 40
3.0
 40
3.0
 10
195.3399157473962
 20
34.64966141624895
 30
0.0
 10
205.2622861213971
 20
20.77076125162857
 30
0.0
 10
181.0764360235829
 20
16.72647462730305
 30
0.0
 10
177.123111381252
 20
28.79339228725394
 30
0.0
 10
175.8538535354344
 20
30.9182860454894
 30
0.0
 10
173.91556829196
 20
31.57143297598268
 30
0.0
 10
179.7000892273202
 20
31.42327071139753
 30
0.0
 10
189.9863073973645
 20
30.39149152150622
 30
0.0
 10
194.9536128519261
 20
37.82223507991085
 30
0.0
 10
195.3399157473962
 20
34.64966141624895
 30
0.0
  0
SPLINE
  5
7D
330
70
100
AcDbEntity
  8
splitsvg
100
AcDbSpline
210
0.0
220
0.0
230
1.0
 70
     9
 71
     3
 72
    11
 73
     7
 74
     0
 42
0.0000000001
 43
0.0000000001
 40
0.0
 40
0.0
 40
0.0
 40
0.0
 40
1.0
 40
1.0
 40
1.0
 40
2.0
 40
2.0
 40
2.0
 40
2.0
 10
192.5176935258796
 20
46.25993464739585
 30
0.0
 10
201.5544104842466
 20
29.71983848649713
 30
0.0
 10
170.8975211597023
 20
25.91991582456062
 30
0.0
 10
170.2458279629713
 20
42.29927169335721
 30
0.0
 10
178.2075408569421
 20
41.23433986008659
 30
0.0
 10
185.8040410702771
 20
43.93829789676575
 30
0.0
 10
192.5176935258796
 20
46.25993464739585
 30
0.0
  0
SPLINE
  5
7E
330
70
100
AcDbEntity
  8
splitsvg
100
AcDbSpline
210
0.0
220
0.0
230
1.0
 70
     9
 71
     3
 72
    11
 73
     7
 74
     0
 42
0.0000000001
 43
0.0000000001
 40
0.0
 40
0.0
 40
0.0
 40
0.0
 40
1.0
 40
1.0
 40
1.0
 40
2.0
 40
2.0
 40
2.0
 40
2.0
 10
162.2708802043804
 20
49.94857685160607
 30
0.0
 10
172.5807665128679
 20
34.70292300839497
 30
0.0
 10
178.9335026073041
 20
18.81131298196009
 30
0.0
 10
195.8418498393553
 20
7.902669864398141
 30
0.0
 10
181.3956746852214
 20
13.29643988082966
 30
0.0
 10
154.6334040187724
 20
39.19543634461576
 30
0.0
 10
162.2708802043804
 20
49.94857685160607
 30
0.0
  0
SPLINE
  5
7F
330
70
100
AcDbEntity
  8
splitsvg
100
AcDbSpline
210
0.0
220
0.0
230
1.0
 70
     9
 71
     3
 72
    11
 73
     7
 74
     0
 42
0.0000000001
 43
0.0000000001
 40
0.0
 40
0.0
 40
0.0
 40
0.0
 40
1.0
 40
1.0
 40
1.0
 40
2.0
 40
2.0
 40
2.0
 40
2.0
 10
167.9636528775177
 20
56.21707880994563
 30
0.0
 10
171.0396634793036
 20
55.28785356509306
 30
0.0
 10
169.2735136430114
 20
52.20884351394734
 30
0.0
 10
168.5694092810045
 20
50.34433029830762
 30
0.0
 10
165.8050093909665
 20
38.93786171959612
 30
0.0
 10
157.5089048663772
 20
60.69737322953407
 30
0.0
 10
167.9636528775177
 20
56.21707880994563
 30
0.0
  0
SPLINE
  5
80
330
70
100
AcDbEntity
  8
splitsvg
100
AcDbSpline
210
0.0
220
0.0
230
1.0
 70
     9
 71
     3
 72
    11
 73
     7
 74
     0
 42
0.0000000001
 43
0.0000000001
 40
0.0
 40
0.0
 40
0.0
 40
0.0
 40
1.0
 40
1.0
 40
1.0
 40
2.0
 40
2.0
 40
2.0
 40
2.0
 10
158.7649734008542
 20
56.85455066579756
 30
0.0
 10
161.896540764086
 20
55.52085122470178
 30
0.0
 10
161.6014230228255
 20
51.23080072783112
 30
0.0
 10
159.5740862361513
 20
49.81945613489141
 30
0.0
 10
158.3668788552642
 20
50.26126417149868
 30
0.0
 10
156.4174485735852
 20
59.58709168082735
 30
0.0
 10
158.7649734008542
 20
56.85455066579756
 30
0.0
  0
SPLINE
  5
81
330
70
100
AcDbEntity
  8
splitsvg
100
AcDbSpline
210
0.0
220
0.0
230
1.0
 70
     9
 71
     3
 72
    11
 73
     7
 74
     0
 42
0.0000000001
 43
0.0000000001
 40
0.0
 40
0.0
 40
0.0
 40
0.0
 40
1.0
 40
1.0
 40
1.0
 40
2.0
 40
2.0
 40
2.0
 40
2.0
 10
176.756640063023
 20
58.1968675260848
 30
0.0
 10
177.6773287736098
 20
56.47515708155822
 30
0.0
 10
176.5895639069442
 20
42.78300971513741
 30
0.0
 10
172.8205786484983
 20
50.46820518176494
 30
0.0
 10
169.1492399273866
 20
53.52154342806982
 30
0.0
 10
173.7205291968984
 20
60.19334805392188
 30
0.0
 10
176.756640063023
 20
58.1968675260848
 30
0.0
  0
SPLINE
  5
82
330
70
100
AcDbEntity
  8
splitsvg
100
AcDbSpline
210
0.0
220
0.0
230
1.0
 70
     9
 71
     3
 72
    17
 73
    13
 74
     0
 42
0.0000000001
 43
0.0000000001
 40
0.0
 40
0.0
 40
0.0
 40
0.0
 40
1.0
 40
1.0
 40
1.0
 40
2.0
 40
2.0
 40
2.0
 40
3.0
 40
3.0
 40
3.0
 40
4.0
 40
4.0
 40
4.0
 40
4.0
 10
191.8103723590642
 20
55.81385191524392
 30
0.0
 10
198.8969716577086
 20
42.35776753777737
 30
0.0
 10
163.7268434901823
 20
37.78663424597948
 30
0.0
 10
168.8875647819749
 20
48.81627647838319
 30
0.0
 10
171.1452488694538
 20
59.70932324616118
 30
0.0
 10
172.8297703709577
 20
41.01124528713738
 30
0.0
 10
176.7883360519253
 20
48.0553169859306
 30
0.0
 10
178.3635203893358
 20
56.54389276239202
 30
0.0
 10
178.0994104865666
 20
53.72671359635326
 30
0.0
 10
185.2615575278086
 20
55.93714307862541
 30
0.0
 10
188.4378807339207
 20
55.82973220696298
 30
0.0
 10
192.4175079575447
 20
62.45138550269253
 30
0.0
 10
191.8103723590642
 20
55.81385191524392
 30
0.0
  0
SPLINE
  5
83
330
70
100
AcDbEntity
  8
splitsvg
100
AcDbSpline
210
0.0
220
0.0
230
1.0
 70
     9
 71
     3
 72
    17
 73
    13
 74
     0
 42
0.0000000001
 43
0.0000000001
 40
0.0
 40
0.0
 40
0.0
 40
0.0
 40
1.0
 40
1.0
 40
1.0
 40
2.0
 40
2.0
 40
2.0
 40
3.0
 40
3.0
 40
3.0
 40
4.0
 40
4.0
 40
4.0
 40
4.0
 10
192.539214606739
 20
68.73540384954066
 30
0.0
 10
193.3327535047082
 20
59.57885897089365
 30
0.0
 10
188.1200940019981
 20
56.21583556342102
 30
0.0
 10
178.8551992394869
 20
55.42635675571553
 30
0.0
 10
176.9750449216924
 20
56.86855395387272
 30
0.0
 10
180.9869768103722
 20
60.79044688625132
 30
0.0
 10
180.4492666791279
 20
64.45749407693648
 30
0.0
 10
180.5952138993436
 20
66.26172839782076
 30
0.0
 10
180.6029761301088
 20
66.26808029262169
 30
0.0
 10
182.7573881236565
 20
66.36932303619447
 30
0.0
 10
186.2308257471411
 20
65.64577339440505
 30
0.0
 10
190.5237265834362
 20
69.53216997980786
 30
0.0
 10
192.539214606739
 20
68.73540384954066
 30
0.0
  0
SPLINE
  5
84
330
70
100
AcDbEntity
  8
splitsvg
100
AcDbSpline
210
0.0
220
0.0
230
1.0
 70
     9
 71
     3
 72
    11
 73
     7
 74
     0
 42
0.0000000001
 43
0.0000000001
 40
0.0
 40
0.0
 40
0.0
 40
0.0
 40
1.0
 40
1.0
 40
1.0
 40
2.0
 40
2.0
 40
2.0
 40
2.0
 10
225.7973374452401
 20
72.73167154873691
 30
0.0
 10
231.1104123329539
 20
67.6018295747597
 30
0.0
 10
230.6075480789689
 20
63.78484999568332
 30
0.0
 10
222.4278342317296
 20
68.37036436092581
 30
0.0
 10
218.8232611628653
 20
69.67202702054854
 30
0.0
 10
224.384538724028
 20
74.34614345693423
 30
0.0
 10
225.7973374452401
 20
72.73167154873691
 30
0.0
  0
SPLINE
  5
85
330
70
100
AcDbEntity
  8
splitsvg
100
AcDbSpline
210
0.0
220
0.0
230
1.0
 70
     9
 71
     3
 72
    11
 73
     7
 74
     0
 42
0.0000000001
 43
0.0000000001
 40
0.0
 40
0.0
 40
0.0
 40
0.0
 40
1.0
 40
1.0
 40
1.0
 40
2.0
 40
2.0
 40
2.0
 40
2.0
 10
152.5003471749355
 20
74.16641386133938
 30
0.0
 10
153.3273714249533
 20
74.96719590373579
 30
0.0
 10
156.9763350406427
 20
50.18341122679775
 30
0.0
 10
155.6157848275034
 20
55.621334330521
 30
0.0
 10
155.0254088026167
 20
58.12537625652584
 30
0.0
 10
149.5314921019405
 20
75.60724217051968
 30
0.0
 10
152.5003471749355
 20
74.16641386133938
 30
0.0
  0
SPLINE
  5
86
330
70
100
AcDbEntity
  8
splitsvg
100
AcDbSpline
210
0.0
220
0.0
230
1.0
 70
     9
 71
     3
 72
    11
 73
     7
 74
     0
 42
0.0000000001
 43
0.0000000001
 40
0.0
 40
0.0
 40
0.0
 40
0.0
 40
1.0
 40
1.0
 40
1.0
 40
2.0
 40
2.0
 40
2.0
 40
2.0
 10
231.3923878317537
 20
74.5103743477714
 30
0.0
 10
232.2215816557688
 20
74.66665493906493
 30
0.0
 10
238.0338456248672
 20
64.65829316712987
 30
0.0
 10
232.3825363066708
 20
68.10884692889789
 30
0.0
 10
228.6028253320346
 20
68.62525098133208
 30
0.0
 10
224.8400228059374
 20
76.64160538125194
 30
0.0
 10
231.3923878317537
 20
74.5103743477714
 30
0.0
  0
SPLINE
  5
87
330
70
100
AcDbEntity
  8
splitsvg
100
AcDbSpline
210
0.0
220
0.0
230
1.0
 70
     9
 71
     3
 72
    11
 73
     7
 74
     0
 42
0.0000000001
 43
0.0000000001
 40
0.0
 40
0.0
 40
0.0
 40
0.0
 40
1.0
 40
1.0
 40
1.0
 40
2.0
 40
2.0
 40
2.0
 40
2.0
 10
235.6162040877507
 20
75.34927663027652
 30
0.0
 10
236.7523471472319
 20
74.56932757037151
 30
0.0
 10
237.7894728369802
 20
72.6153134432258
 30
0.0
 10
238.1732816945336
 20
71.23598014305939
 30
0.0
 10
235.4254875346794
 20
68.92957098574824
 30
0.0
 10
230.1476190355433
 20
77.21270719490246
 30
0.0
 10
235.6162040877507
 20
75.34927663027652
 30
0.0
  0
SPLINE
  5
88
330
70
100
AcDbEntity
  8
splitsvg
100
AcDbSpline
210
0.0
220
0.0
230
1.0
 70
     9
 71
     3
 72
    11
 73
     7
 74
     0
 42
0.0000000001
 43
0.0000000001
 40
0.0
 40
0.0
 40
0.0
 40
0.0
 40
1.0
 40
1.0
 40
1.0
 40
2.0
 40
2.0
 40
2.0
 40
2.0
 10
193.5901409845144
 20
75.63150531198222
 30
0.0
 10
194.9297498255558
 20
68.62862411376603
 30
0.0
 10
179.3742034164645
 20
62.73133033406426
 30
0.0
 10
179.6157117920115
 20
71.85866416389996
 30
0.0
 10
177.6087979395334
 20
73.59945361306758
 30
0.0
 10
192.3252368878894
 20
75.28758413268239
 30
0.0
 10
193.5901409845144
 20
75.63150531198222
 30
0.0
  0
SPLINE
  5
89
330
70
100
AcDbEntity
  8
splitsvg
100
AcDbSpline
210
0.0
220
0.0
230
1.0
 70
     9
 71
     3
 72
    11
 73
     7
 74
     0
 42
0.0000000001
 43
0.0000000001
 40
0.0
 40
0.0
 40
0.0
 40
0.0
 40
1.0
 40
1.0
 40
1.0
 40
2.0
 40
2.0
 40
2.0
 40
2.0
 10
193.4631353862661
 20
77.79544514773139
 30
0.0
 10
192.1726714048599
 20
76.83384171401456
 30
0.0
 10
180.7735125775693
 20
73.01259991592833
 30
0.0
 10
181.8363723159537
 20
75.70254288102699
 30
0.0
 10
184.0113690813295
 20
78.75176106114065
 30
0.0
 10
190.096825245466
 20
77.56268215209934
 30
0.0
 10
193.4631353862661
 20
77.79544514773139
 30
0.0
  0
SPLINE
  5
8A
330
70
100
AcDbEntity
  8
splitsvg
100
AcDbSpline
210
0.0
220
0.0
230
1.0
 70
     9
 71
     3
 72
    11
 73
     7
 74
     0
 42
0.0000000001
 43
0.0000000001
 40
0.0
 40
0.0
 40
0.0
 40
0.0
 40
1.0
 40
1.0
 40
1.0
 40
2.0
 40
2.0
 40
2.0
 40
2.0
 10
204.8405739922273
 20
86.5079947366177
 30
0.0
 10
204.5349233901252
 20
81.42009467050327
 30
0.0
 10
179.9369547941474
 20
72.85383647581432
 30
0.0
 10
186.5859248521747
 20
82.78404252167469
 30
0.0
 10
190.4501819362101
 20
84.17402150021095
 30
0.0
 10
200.6309881335546
 20
83.83938212583855
 30
0.0
 10
204.8405739922273
 20
86.5079947366177
 30
0.0
  0
SPLINE
  5
8B
330
70
100
AcDbEntity
  8
splitsvg
100
AcDbSpline
210
0.0
220
0.0
230
1.0
 70
     9
 71
     3
 72
    14
 73
    10
 74
     0
 42
0.0000000001
 43
0.0000000001
 40
0.0
 40
0.0
 40
0.0
 40
0.0
 40
1.0
 40
1.0
 40
1.0
 40
2.0
 40
2.0
 40
2.0
 40
3.0
 40
3.0
 40
3.0
 40
3.0
 10
210.9171733661151
 20
97.11179408767227
 30
0.0
 10
210.0626597163413
 20
87.71287902011446
 30
0.0
 10
192.8041846752708
 20
81.07973109637873
 30
0.0
 10
187.4326746397988
 20
85.60589576208419
 30
0.0
 10
189.1679876049266
 20
88.15848885606566
 30
0.0
 10
184.8449575115456
 20
94.38338751058974
 30
0.0
 10
190.0827739674113
 20
93.13942848622501
 30
0.0
 10
198.8056970668728
 20
91.97178133858441
 30
0.0
 10
204.3970276859667
 20
95.22380079370551
 30
0.0
 10
210.9171733661151
 20
97.11179408767227
 30
0.0
  0
SPLINE
  5
8C
330
70
100
AcDbEntity
  8
splitsvg
100
AcDbSpline
210
0.0
220
0.0
230
1.0
 70
     9
 71
     3
 72
    11
 73
     7
 74
     0
 42
0.0000000001
 43
0.0000000001
 40
0.0
 40
0.0
 40
0.0
 40
0.0
 40
1.0
 40
1.0
 40
1.0
 40
2.0
 40
2.0
 40
2.0
 40
2.0
 10
211.9285888050441
 20
121.1825255201857
 30
0.0
 10
204.7195122357033
 20
112.070278899816
 30
0.0
 10
191.4298696538364
 20
112.0804720880604
 30
0.0
 10
180.9336469731214
 20
111.7428814414852
 30
0.0
 10
190.3582288774226
 20
110.27095177921
 30
0.0
 10
209.111560193859
 20
112.3155082662387
 30
0.0
 10
211.9285888050441
 20
121.1825255201857
 30
0.0
  0
SPLINE
  5
8D
330
70
100
AcDbEntity
  8
splitsvg
100
AcDbSpline
210
0.0
220
0.0
230
1.0
 70
     9
 71
     3
 72
    29
 73
    25
 74
     0
 42
0.0000000001
 43
0.0000000001
 40
0.0
 40
0.0
 40
0.0
 40
0.0
 40
1.0
 40
1.0
 40
1.0
 40
2.0
 40
2.0
 40
2.0
 40
3.0
 40
3.0
 40
3.0
 40
4.0
 40
4.0
 40
4.0
 40
5.0
 40
5.0
 40
5.0
 40
6.0
 40
6.0
 40
6.0
 40
7.0
 40
7.0
 40
7.0
 40
8.0
 40
8.0
 40
8.0
 40
8.0
 10
215.7992612419562
 20
124.607994727093
 30
0.0
 10
236.3421905175837
 20
115.1272102878811
 30
0.0
 10
229.6149887303655
 20
85.19070897747637
 30
0.0
 10
207.5715666541479
 20
83.15951351182999
 30
0.0
 10
203.2131822733596
 20
81.82074053780665
 30
0.0
 10
209.3780043969303
 20
80.06261570759987
 30
0.0
 10
210.7995928665876
 20
81.49459328064097
 30
0.0
 10
216.0835363960734
 20
81.26720097417777
 30
0.0
 10
220.1952323171865
 20
88.13582988026569
 30
0.0
 10
224.9569599536294
 20
84.58163422054928
 30
0.0
 10
226.2020676377531
 20
83.51817052263156
 30
0.0
 10
235.9730178831388
 20
77.96937867808286
 30
0.0
 10
232.8842889865588
 20
76.34954793371868
 30
0.0
 10
230.5765199111168
 20
75.29392229186534
 30
0.0
 10
228.1217025643812
 20
77.44048379558276
 30
0.0
 10
226.2837024303129
 20
74.20369755226258
 30
0.0
 10
221.5269920775683
 20
75.57953015621563
 30
0.0
 10
221.4612232223552
 20
71.05025656876043
 30
0.0
 10
219.014170359967
 20
70.73312121720609
 30
0.0
 10
213.6489976990401
 20
74.29392723901774
 30
0.0
 10
208.7557688430015
 20
78.18509404754099
 30
0.0
 10
203.5707114538388
 20
81.70426396802024
 30
0.0
 10
215.1636471864831
 20
90.36100137651077
 30
0.0
 10
217.4692920639767
 20
113.8706488822394
 30
0.0
 10
215.7992612419562
 20
124.607994727093
 30
0.0
  0
SPLINE
  5
8E
330
70
100
AcDbEntity
  8
splitsvg
100
AcDbSpline
210
0.0
220
0.0
230
1.0
 70
     9
 71
     3
 72
    11
 73
     7
 74
     0
 42
0.0000000001
 43
0.0000000001
 40
0.0
 40
0.0
 40
0.0
 40
0.0
 40
1.0
 40
1.0
 40
1.0
 40
2.0
 40
2.0
 40
2.0
 40
2.0
 10
133.9054281444145
 20
127.4090511432222
 30
0.0
 10
134.0465020392156
 20
125.9636003890073
 30
0.0
 10
132.9721480960355
 20
120.4792483058404
 30
0.0
 10
130.8525605401317
 20
124.3533456139901
 30
0.0
 10
128.354508558941
 20
126.6254133408759
 30
0.0
 10
132.8745540251708
 20
127.6519118571093
 30
0.0
 10
133.9054281444145
 20
127.4090511432222
 30
0.0
  0
SPLINE
  5
8F
330
70
100
AcDbEntity
  8
splitsvg
100
AcDbSpline
210
0.0
220
0.0
230
1.0
 70
     9
 71
     3
 72
    11
 73
     7
 74
     0
 42
0.0000000001
 43
0.0000000001
 40
0.0
 40
0.0
 40
0.0
 40
0.0
 40
1.0
 40
1.0
 40
1.0
 40
2.0
 40
2.0
 40
2.0
 40
2.0
 10
124.8806667771774
 20
127.7681808157127
 30
0.0
 10
129.1170527574
 20
127.7159361323611
 30
0.0
 10
124.4997706735212
 20
122.730649479415
 30
0.0
 10
123.6844712651247
 20
124.8187263410558
 30
0.0
 10
123.5915380206768
 20
126.1496698804255
 30
0.0
 10
121.4852787648222
 20
129.7274445664093
 30
0.0
 10
124.8806667771774
 20
127.7681808157127
 30
0.0
  0
SPLINE
  5
90
330
70
100
AcDbEntity
  8
splitsvg
100
AcDbSpline
210
0.0
220
0.0
230
1.0
 70
     9
 71
     3
 72
    11
 73
     7
 74
     0
 42
0.0000000001
 43
0.0000000001
 40
0.0
 40
0.0
 40
0.0
 40
0.0
 40
1.0
 40
1.0
 40
1.0
 40
2.0
 40
2.0
 40
2.0
 40
2.0
 10
119.781971214182
 20
132.2805561163695
 30
0.0
 10
120.5168945881841
 20
131.6317950221805
 30
0.0
 10
120.0970968146663
 20
130.3662660274966
 30
0.0
 10
118.894197549642
 20
130.5627604535447
 30
0.0
 10
117.2751068676903
 20
131.1015321762189
 30
0.0
 10
118.953993458368
 20
134.6530681826829
 30
0.0
 10
119.781971214182
 20
132.2805561163695
 30
0.0
  0
SPLINE
  5
91
330
70
100
AcDbEntity
  8
splitsvg
100
AcDbSpline
210
0.0
220
0.0
230
1.0
 70
     9
 71
     3
 72
    11
 73
     7
 74
     0
 42
0.0000000001
 43
0.0000000001
 40
0.0
 40
0.0
 40
0.0
 40
0.0
 40
1.0
 40
1.0
 40
1.0
 40
2.0
 40
2.0
 40
2.0
 40
2.0
 10
171.5154225146913
 20
141.2837964027472
 30
0.0
 10
171.3590043185666
 20
140.8816621682847
 30
0.0
 10
173.7212039912706
 20
140.6644818090818
 30
0.0
 10
174.4635609162071
 20
141.0136199849983
 30
0.0
 10
173.753847948497
 20
141.2854502275015
 30
0.0
 10
171.7062606619545
 20
141.471840395178
 30
0.0
 10
171.5154225146913
 20
141.2837964027472
 30
0.0
  0
SPLINE
  5
92
330
70
100
AcDbEntity
  8
splitsvg
100
AcDbSpline
210
0.0
220
0.0
230
1.0
 70
     9
 71
     3
 72
    11
 73
     7
 74
     0
 42
0.0000000001
 43
0.0000000001
 40
0.0
 40
0.0
 40
0.0
 40
0.0
 40
1.0
 40
1.0
 40
1.0
 40
2.0
 40
2.0
 40
2.0
 40
2.0
 10
169.0308088848057
 20
141.9812452178126
 30
0.0
 10
168.933228232597
 20
141.6798230262227
 30
0.0
 10
171.9272574562688
 20
141.2478510968766
 30
0.0
 10
170.7087850772922
 20
142.0174434913023
 30
0.0
 10
170.0591537382678
 20
142.1470512039637
 30
0.0
 10
169.0308088848057
 20
142.1251748476323
 30
0.0
 10
169.0308088848057
 20
141.9812452178126
 30
0.0
  0
SPLINE
  5
93
330
70
100
AcDbEntity
  8
splitsvg
100
AcDbSpline
210
0.0
220
0.0
230
1.0
 70
     9
 71
     3
 72
    11
 73
     7
 74
     0
 42
0.0000000001
 43
0.0000000001
 40
0.0
 40
0.0
 40
0.0
 40
0.0
 40
1.0
 40
1.0
 40
1.0
 40
2.0
 40
2.0
 40
2.0
 40
2.0
 10
198.2182284297821
 20
145.2426740500051
 30
0.0
 10
191.9697445439377
 20
139.7341958189629
 30
0.0
 10
184.0689598160209
 20
140.4063304585437
 30
0.0
 10
174.6752081157856
 20
140.4487705145152
 30
0.0
 10
180.9213832878454
 20
138.684711520697
 30
0.0
 10
196.2180705722082
 20
139.5209864331122
 30
0.0
 10
198.2182284297821
 20
145.2426740500051
 30
0.0
  0
SPLINE
  5
94
330
70
100
AcDbEntity
  8
splitsvg
100
AcDbSpline
210
0.0
220
0.0
230
1.0
 70
     9
 71
     3
 72
    11
 73
     7
 74
     0
 42
0.0000000001
 43
0.0000000001
 40
0.0
 40
0.0
 40
0.0
 40
0.0
 40
1.0
 40
1.0
 40
1.0
 40
2.0
 40
2.0
 40
2.0
 40
2.0
 10
152.3895712061997
 20
147.4874013748834
 30
0.0
 10
152.1243027407737
 20
146.3853135288685
 30
0.0
 10
151.1107254369654
 20
146.978507172669
 30
0.0
 10
150.8896876571692
 20
147.568945516686
 30
0.0
 10
151.1045988241733
 20
148.750156057221
 30
0.0
 10
153.5096634102185
 20
149.482487907053
 30
0.0
 10
152.3895712061997
 20
147.4874013748834
 30
0.0
  0
SPLINE
  5
95
330
70
100
AcDbEntity
  8
splitsvg
100
AcDbSpline
210
0.0
220
0.0
230
1.0
 70
     9
 71
     3
 72
    74
 73
    70
 74
     0
 42
0.0000000001
 43
0.0000000001
 40
0.0
 40
0.0
 40
0.0
 40
0.0
 40
1.0
 40
1.0
 40
1.0
 40
2.0
 40
2.0
 40
2.0
 40
3.0
 40
3.0
 40
3.0
 40
4.0
 40
4.0
 40
4.0
 40
5.0
 40
5.0
 40
5.0
 40
6.0
 40
6.0
 40
6.0
 40
7.0
 40
7.0
 40
7.0
 40
8.0
 40
8.0
 40
8.0
 40
9.0
 40
9.0
 40
9.0
 40
10.0
 40
10.0
 40
10.0
 40
11.0
 40
11.0
 40
11.0
 40
12.0
 40
12.0
 40
12.0
 40
13.0
 40
13.0
 40
13.0
 40
14.0
 40
14.0
 40
14.0
 40
15.0
 40
15.0
 40
15.0
 40
16.0
 40
16.0
 40
16.0
 40
17.0
 40
17.0
 40
17.0
 40
18.0
 40
18.0
 40
18.0
 40
19.0
 40
19.0
 40
19.0
 40
20.0
 40
20.0
 40
20.0
 40
21.0
 40
21.0
 40
21.0
 40
22.0
 40
22.0
 40
22.0
 40
23.0
 40
23.0
 40
23.0
 40
23.0
 10
193.4539628195365
 20
160.5807451487368
 30
0.0
 10
201.6876687862357
 20
146.2118821563605
 30
0.0
 10
170.7026650417465
 20
151.8580294663399
 30
0.0
 10
171.0209691464063
 20
151.8446087894371
 30
0.0
 10
177.3908174756827
 20
148.9489815231969
 30
0.0
 10
188.0087282751135
 20
147.9761808275424
 30
0.0
 10
194.2113908868449
 20
153.0416853877752
 30
0.0
 10
195.9161073654756
 20
156.3973677844605
 30
0.0
 10
198.78801218311
 20
147.6932893595799
 30
0.0
 10
199.0181383848317
 20
145.7820909781619
 30
0.0
 10
215.7468843775138
 20
132.9221912326708
 30
0.0
 10
179.6015709977882
 20
128.2979525264491
 30
0.0
 10
170.5832005395515
 20
131.7513194728514
 30
0.0
 10
181.1502259292882
 20
128.2597654375018
 30
0.0
 10
198.6131565381375
 20
128.6658289363122
 30
0.0
 10
204.8538917620597
 20
139.6777057536308
 30
0.0
 10
219.3907580609672
 20
123.1030092214116
 30
0.0
 10
183.0364006211014
 20
119.0136919792399
 30
0.0
 10
172.8071908782608
 20
122.4117036299488
 30
0.0
 10
206.2294004973604
 20
111.4123914382945
 30
0.0
 10
212.0722001936655
 20
146.169378175307
 30
0.0
 10
212.7491068084651
 20
121.5908943463279
 30
0.0
 10
223.8636134845882
 20
107.6813171635195
 30
0.0
 10
198.0979381901305
 20
101.3449908552594
 30
0.0
 10
186.0863299961767
 20
101.4287264407952
 30
0.0
 10
208.0309607427081
 20
98.41845790718014
 30
0.0
 10
216.6355258405795
 20
115.2251085958279
 30
0.0
 10
214.4111242389817
 20
107.3424664292421
 30
0.0
 10
215.3061590850645
 20
94.49194899789693
 30
0.0
 10
185.2520161377071
 20
86.68989984651968
 30
0.0
 10
185.4678858224763
 20
101.3228030998026
 30
0.0
 10
186.3595779698197
 20
101.6604447617196
 30
0.0
 10
185.2721599513597
 20
101.8857171931783
 30
0.0
 10
185.1174083510183
 20
102.1801785989822
 30
0.0
 10
183.808420543696
 20
102.6964481729037
 30
0.0
 10
182.6671439168837
 20
105.9114256641492
 30
0.0
 10
182.3662703934727
 20
106.1226696408754
 30
0.0
 10
181.8735938801684
 20
108.0973611467362
 30
0.0
 10
176.7101657317006
 20
111.9351611686012
 30
0.0
 10
180.2491379089651
 20
112.5842669740222
 30
0.0
 10
177.0965420774452
 20
112.0702807209527
 30
0.0
 10
169.3044337566863
 20
120.6796184969738
 30
0.0
 10
171.3835970958653
 20
122.4938074444363
 30
0.0
 10
173.2137927668172
 20
122.9334462814682
 30
0.0
 10
168.9797064326696
 20
123.3778415028033
 30
0.0
 10
169.5961711973498
 20
124.6762391876933
 30
0.0
 10
169.6805584923331
 20
126.4127746663859
 30
0.0
 10
166.3371106301384
 20
132.1441239449907
 30
0.0
 10
169.3916727419183
 20
132.087060452002
 30
0.0
 10
171.02823218346
 20
132.0868879204815
 30
0.0
 10
170.7594178423
 20
132.4139136094189
 30
0.0
 10
168.8745253578944
 20
132.7158869946244
 30
0.0
 10
167.903568249525
 20
131.6422202167639
 30
0.0
 10
166.6269590140226
 20
140.6566356968979
 30
0.0
 10
167.9755061307357
 20
142.2012326695696
 30
0.0
 10
169.0562742508009
 20
143.4176704111106
 30
0.0
 10
166.7396298416628
 20
141.8243601941989
 30
0.0
 10
167.9534179911269
 20
149.4004750600774
 30
0.0
 10
167.5104158968442
 20
153.88747701757
 30
0.0
 10
170.1926277223826
 20
151.9912202384856
 30
0.0
 10
169.2486112208504
 20
153.1899778908017
 30
0.0
 10
168.3218498109184
 20
152.2704943944178
 30
0.0
 10
168.1891872721171
 20
160.6344025080607
 30
0.0
 10
170.3886676728688
 20
160.2449249712197
 30
0.0
 10
174.5177904333999
 20
158.4306355307753
 30
0.0
 10
182.4653066816262
 20
157.4278106545411
 30
0.0
 10
187.0930430907492
 20
158.588913160917
 30
0.0
 10
189.1282839630395
 20
158.2763732030621
 30
0.0
 10
193.1034031908481
 20
163.0656341760883
 30
0.0
 10
193.4539628195365
 20
160.5807451487368
 30
0.0
  0
SPLINE
  5
96
330
70
100
AcDbEntity
  8
splitsvg
100
AcDbSpline
210
0.0
220
0.0
230
1.0
 70
     9
 71
     3
 72
    14
 73
    10
 74
     0
 42
0.0000000001
 43
0.0000000001
 40
0.0
 40
0.0
 40
0.0
 40
0.0
 40
1.0
 40
1.0
 40
1.0
 40
2.0
 40
2.0
 40
2.0
 40
3.0
 40
3.0
 40
3.0
 40
3.0
 10
171.7383740222039
 20
165.8152609097572
 30
0.0
 10
177.0390520691505
 20
163.8687316272354
 30
0.0
 10
184.5604420385752
 20
160.7055979417384
 30
0.0
 10
190.2950808281062
 20
163.2052282834601
 30
0.0
 10
196.8754939399646
 20
164.5683021946546
 30
0.0
 10
188.1214700843744
 20
158.956704167378
 30
0.0
 10
185.9639344919199
 20
159.2716097413955
 30
0.0
 10
181.6852098948826
 20
157.992609110386
 30
0.0
 10
163.1878623990178
 20
159.8103989435737
 30
0.0
 10
171.7383740222039
 20
165.8152609097572
 30
0.0
  0
SPLINE
  5
97
330
70
100
AcDbEntity
  8
splitsvg
100
AcDbSpline
210
0.0
220
0.0
230
1.0
 70
     9
 71
     3
 72
    11
 73
     7
 74
     0
 42
0.0000000001
 43
0.0000000001
 40
0.0
 40
0.0
 40
0.0
 40
0.0
 40
1.0
 40
1.0
 40
1.0
 40
2.0
 40
2.0
 40
2.0
 40
2.0
 10
189.5180219720641
 20
169.2576649141592
 30
0.0
 10
188.5062566406248
 20
168.5492886868515
 30
0.0
 10
190.2200516875325
 20
167.1974439843628
 30
0.0
 10
191.6692634011731
 20
167.5611599402181
 30
0.0
 10
192.9886972107189
 20
168.2013688953084
 30
0.0
 10
190.4867400578481
 20
169.9903231933369
 30
0.0
 10
189.5180219720641
 20
169.2576649141592
 30
0.0
  0
SPLINE
  5
98
330
70
100
AcDbEntity
  8
splitsvg
100
AcDbSpline
210
0.0
220
0.0
230
1.0
 70
     9
 71
     3
 72
    11
 73
     7
 74
     0
 42
0.0000000001
 43
0.0000000001
 40
0.0
 40
0.0
 40
0.0
 40
0.0
 40
1.0
 40
1.0
 40
1.0
 40
2.0
 40
2.0
 40
2.0
 40
2.0
 10
230.6095760101178
 20
171.2804957920172
 30
0.0
 10
231.2107917626826
 20
171.3995423621449
 30
0.0
 10
231.5679515627144
 20
160.6693112256884
 30
0.0
 10
230.8378573213916
 20
165.2487375918392
 30
0.0
 10
230.9291119400863
 20
166.5965464935781
 30
0.0
 10
228.1457286017468
 20
172.8285403259688
 30
0.0
 10
230.6095760101178
 20
171.2804957920172
 30
0.0
  0
SPLINE
  5
99
330
70
100
AcDbEntity
  8
splitsvg
100
AcDbSpline
210
0.0
220
0.0
230
1.0
 70
     9
 71
     3
 72
    11
 73
     7
 74
     0
 42
0.0000000001
 43
0.0000000001
 40
0.0
 40
0.0
 40
0.0
 40
0.0
 40
1.0
 40
1.0
 40
1.0
 40
2.0
 40
2.0
 40
2.0
 40
2.0
 10
195.7748913501792
 20
172.0283829581714
 30
0.0
 10
195.2884115698917
 20
171.0871721056778
 30
0.0
 10
195.8168676854823
 20
169.7067546425083
 30
0.0
 10
196.4924401442164
 20
170.1537234839493
 30
0.0
 10
197.4825375402907
 20
170.7040346470257
 30
0.0
 10
197.0911462310736
 20
173.505459251439
 30
0.0
 10
195.7748913501792
 20
172.0283829581714
 30
0.0
  0
SPLINE
  5
9A
330
70
100
AcDbEntity
  8
splitsvg
100
AcDbSpline
210
0.0
220
0.0
230
1.0
 70
     9
 71
     3
 72
    17
 73
    13
 74
     0
 42
0.0000000001
 43
0.0000000001
 40
0.0
 40
0.0
 40
0.0
 40
0.0
 40
1.0
 40
1.0
 40
1.0
 40
2.0
 40
2.0
 40
2.0
 40
3.0
 40
3.0
 40
3.0
 40
4.0
 40
4.0
 40
4.0
 40
4.0
 10
222.9352490094051
 20
172.6909017347934
 30
0.0
 10
227.6370258100305
 20
172.4010816713103
 30
0.0
 10
228.9432392742603
 20
170.709260144947
 30
0.0
 10
229.0515492298039
 20
166.3002120408498
 30
0.0
 10
226.139910134743
 20
167.5803910806504
 30
0.0
 10
222.8457766546608
 20
172.5386581723046
 30
0.0
 10
219.6558005846215
 20
172.4082691957901
 30
0.0
 10
204.6752544956894
 20
160.4324756631747
 30
0.0
 10
206.1163516876777
 20
174.5098442643876
 30
0.0
 10
195.7156897364802
 20
161.1883262712667
 30
0.0
 10
192.6932780464223
 20
167.6678197912268
 30
0.0
 10
215.9688707669779
 20
175.2432255454244
 30
0.0
 10
222.9352490094051
 20
172.6909017347934
 30
0.0
  0
SPLINE
  5
9B
330
70
100
AcDbEntity
  8
splitsvg
100
AcDbSpline
210
0.0
220
0.0
230
1.0
 70
     9
 71
     3
 72
    11
 73
     7
 74
     0
 42
0.0000000001
 43
0.0000000001
 40
0.0
 40
0.0
 40
0.0
 40
0.0
 40
1.0
 40
1.0
 40
1.0
 40
2.0
 40
2.0
 40
2.0
 40
2.0
 10
237.8930246302587
 20
175.4785491933386
 30
0.0
 10
241.2357368719679
 20
172.3177285653614
 30
0.0
 10
234.0160683836634
 20
173.1080396564997
 30
0.0
 10
235.7762009052153
 20
174.7951282907157
 30
0.0
 10
236.3123043740078
 20
175.5916702134545
 30
0.0
 10
236.9803547065229
 20
176.5936694956351
 30
0.0
 10
237.8930246302587
 20
175.4785491933386
 30
0.0
  0
SPLINE
  5
9C
330
70
100
AcDbEntity
  8
splitsvg
100
AcDbSpline
210
0.0
220
0.0
230
1.0
 70
     9
 71
     3
 72
    11
 73
     7
 74
     0
 42
0.0000000001
 43
0.0000000001
 40
0.0
 40
0.0
 40
0.0
 40
0.0
 40
1.0
 40
1.0
 40
1.0
 40
2.0
 40
2.0
 40
2.0
 40
2.0
 10
238.9905243926254
 20
182.3577158582855
 30
0.0
 10
244.4935075069047
 20
179.5105680133473
 30
0.0
 10
237.030931871907
 20
176.9351817032988
 30
0.0
 10
237.7516976644781
 20
181.0896741690781
 30
0.0
 10
237.7519156723676
 20
182.8636012154859
 30
0.0
 10
237.9021971969882
 20
183.0174139629789
 30
0.0
 10
238.9905243926254
 20
182.3577158582855
 30
0.0
  0
SPLINE
  5
9D
330
70
100
AcDbEntity
  8
splitsvg
100
AcDbSpline
210
0.0
220
0.0
230
1.0
 70
     9
 71
     3
 72
    11
 73
     7
 74
     0
 42
0.0000000001
 43
0.0000000001
 40
0.0
 40
0.0
 40
0.0
 40
0.0
 40
1.0
 40
1.0
 40
1.0
 40
2.0
 40
2.0
 40
2.0
 40
2.0
 10
125.8793811179854
 20
187.4430105381393
 30
0.0
 10
121.0560820364836
 20
180.5291019260396
 30
0.0
 10
117.2424967556782
 20
155.6848340484842
 30
0.0
 10
120.7771937533247
 20
151.9590276129276
 30
0.0
 10
118.7652534324683
 20
163.0696458850914
 30
0.0
 10
125.2452460332041
 20
177.981858134692
 30
0.0
 10
125.8793811179854
 20
187.4430105381393
 30
0.0
  0
SPLINE
  5
9E
330
70
100
AcDbEntity
  8
splitsvg
100
AcDbSpline
210
0.0
220
0.0
230
1.0
 70
     9
 71
     3
 72
    11
 73
     7
 74
     0
 42
0.0000000001
 43
0.0000000001
 40
0.0
 40
0.0
 40
0.0
 40
0.0
 40
1.0
 40
1.0
 40
1.0
 40
2.0
 40
2.0
 40
2.0
 40
2.0
 10
236.1361981875556
 20
187.9767634880384
 30
0.0
 10
237.0861011227143
 20
187.6868465258132
 30
0.0
 10
239.1602891688176
 20
186.9326363827914
 30
0.0
 10
237.0814585152604
 20
186.0363389051464
 30
0.0
 10
236.0817605670916
 20
185.4719113590609
 30
0.0
 10
234.3611578987349
 20
188.5222168258738
 30
0.0
 10
236.1361981875556
 20
187.9767634880384
 30
0.0
  0
SPLINE
  5
9F
330
70
100
AcDbEntity
  8
splitsvg
100
AcDbSpline
210
0.0
220
0.0
230
1.0
 70
     9
 71
     3
 72
    11
 73
     7
 74
     0
 42
0.0000000001
 43
0.0000000001
 40
0.0
 40
0.0
 40
0.0
 40
0.0
 40
1.0
 40
1.0
 40
1.0
 40
2.0
 40
2.0
 40
2.0
 40
2.0
 10
167.3374744753034
 20
188.7429957876516
 30
0.0
 10
166.8581664357445
 20
187.9985366630972
 30
0.0
 10
168.3106208035372
 20
188.2098303495978
 30
0.0
 10
168.3252147932621
 20
188.773392710332
 30
0.0
 10
168.3252533294266
 20
189.0269793148701
 30
0.0
 10
167.5533743029947
 20
189.0033427300642
 30
0.0
 10
167.3374744753034
 20
188.7429957876516
 30
0.0
  0
SPLINE
  5
A0
330
70
100
AcDbEntity
  8
splitsvg
100
AcDbSpline
210
0.0
220
0.0
230
1.0
 70
     9
 71
     3
 72
    17
 73
    13
 74
     0
 42
0.0000000001
 43
0.0000000001
 40
0.0
 40
0.0
 40
0.0
 40
0.0
 40
1.0
 40
1.0
 40
1.0
 40
2.0
 40
2.0
 40
2.0
 40
3.0
 40
3.0
 40
3.0
 40
4.0
 40
4.0
 40
4.0
 40
4.0
 10
127.6669065912391
 20
188.8724667823566
 30
0.0
 10
133.9386983671503
 20
180.8134113819906
 30
0.0
 10
139.1947731111518
 20
169.6688695926215
 30
0.0
 10
149.5134617613383
 20
165.8128337253047
 30
0.0
 10
151.8632890525157
 20
164.5626865383948
 30
0.0
 10
147.8180716961546
 20
164.1601746506891
 30
0.0
 10
146.6165865021952
 20
163.7482106216849
 30
0.0
 10
128.8665297031777
 20
160.9009833594515
 30
0.0
 10
115.5256186543778
 20
145.7061612533692
 30
0.0
 10
106.6255526154433
 20
131.4669542702008
 30
0.0
 10
104.1030627753723
 20
149.161573668026
 30
0.0
 10
111.5267208625535
 20
179.945502466007
 30
0.0
 10
127.6669065912391
 20
188.8724667823566
 30
0.0
  0
SPLINE
  5
A1
330
70
100
AcDbEntity
  8
splitsvg
100
AcDbSpline
210
0.0
220
0.0
230
1.0
 70
     9
 71
     3
 72
    17
 73
    13
 74
     0
 42
0.0000000001
 43
0.0000000001
 40
0.0
 40
0.0
 40
0.0
 40
0.0
 40
1.0
 40
1.0
 40
1.0
 40
2.0
 40
2.0
 40
2.0
 40
3.0
 40
3.0
 40
3.0
 40
4.0
 40
4.0
 40
4.0
 40
4.0
 10
168.3083185319319
 20
190.5862564463027
 30
0.0
 10
168.7481270787649
 20
187.9550070663866
 30
0.0
 10
170.5048636464305
 20
188.4828892742054
 30
0.0
 10
170.0521014458827
 20
186.5606342561818
 30
0.0
 10
167.9616558022102
 20
183.3165960234355
 30
0.0
 10
167.2252560725042
 20
188.8848485909739
 30
0.0
 10
166.670383709612
 20
187.7205717876119
 30
0.0
 10
166.4287174988732
 20
186.8570428597919
 30
0.0
 10
166.5631246694532
 20
183.7032140489348
 30
0.0
 10
166.8703948889673
 20
183.0279968656727
 30
0.0
 10
167.4208446318124
 20
175.4203148658181
 30
0.0
 10
160.6199890997799
 20
194.2239941191781
 30
0.0
 10
168.3083185319319
 20
190.5862564463027
 30
0.0
  0
SPLINE
  5
A2
330
70
100
AcDbEntity
  8
splitsvg
100
AcDbSpline
210
0.0
220
0.0
230
1.0
 70
     9
 71
     3
 72
    17
 73
    13
 74
     0
 42
0.0000000001
 43
0.0000000001
 40
0.0
 40
0.0
 40
0.0
 40
0.0
 40
1.0
 40
1.0
 40
1.0
 40
2.0
 40
2.0
 40
2.0
 40
3.0
 40
3.0
 40
3.0
 40
4.0
 40
4.0
 40
4.0
 40
4.0
 10
222.0885844961347
 20
191.5775665232982
 30
0.0
 10
231.5353490996509
 20
191.8039158903456
 30
0.0
 10
242.3858091578091
 20
182.0772527667102
 30
0.0
 10
232.6505275626649
 20
174.616143153353
 30
0.0
 10
222.5750991092257
 20
173.2282205386798
 30
0.0
 10
209.1865136060085
 20
176.6893193872211
 30
0.0
 10
200.0796757470648
 20
170.0952265712125
 30
0.0
 10
203.8934681619442
 20
175.439849147001
 30
0.0
 10
198.8315384707564
 20
181.0275789367715
 30
0.0
 10
200.4357021389828
 20
184.0160482486711
 30
0.0
 10
206.767888397879
 20
188.196731660721
 30
0.0
 10
214.1370417448812
 20
192.1086352224181
 30
0.0
 10
222.0885844961347
 20
191.5775665232982
 30
0.0
  0
SPLINE
  5
A3
330
70
100
AcDbEntity
  8
splitsvg
100
AcDbSpline
210
0.0
220
0.0
230
1.0
 70
     9
 71
     3
 72
    11
 73
     7
 74
     0
 42
0.0000000001
 43
0.0000000001
 40
0.0
 40
0.0
 40
0.0
 40
0.0
 40
1.0
 40
1.0
 40
1.0
 40
2.0
 40
2.0
 40
2.0
 40
2.0
 10
165.4197728393625
 20
192.3857805411761
 30
0.0
 10
158.7443191227611
 20
187.656181245773
 30
0.0
 10
167.1151549437977
 20
174.181943208044
 30
0.0
 10
173.7813478977965
 20
179.7514092539314
 30
0.0
 10
173.7574648793209
 20
184.549015789752
 30
0.0
 10
171.3938374461005
 20
192.7717254421797
 30
0.0
 10
165.4197728393625
 20
192.3857805411761
 30
0.0
  0
SPLINE
  5
A4
330
70
100
AcDbEntity
  8
splitsvg
100
AcDbSpline
210
0.0
220
0.0
230
1.0
 70
     9
 71
     3
 72
    20
 73
    16
 74
     0
 42
0.0000000001
 43
0.0000000001
 40
0.0
 40
0.0
 40
0.0
 40
0.0
 40
1.0
 40
1.0
 40
1.0
 40
2.0
 40
2.0
 40
2.0
 40
3.0
 40
3.0
 40
3.0
 40
4.0
 40
4.0
 40
4.0
 40
5.0
 40
5.0
 40
5.0
 40
5.0
 10
130.0629731927112
 20
195.2909030642875
 30
0.0
 10
131.6988765483128
 20
185.1265101993328
 30
0.0
 10
140.12131433745
 20
177.0116539167978
 30
0.0
 10
148.0461192201938
 20
170.186781744356
 30
0.0
 10
149.2863065214131
 20
169.1497831036713
 30
0.0
 10
157.02474380799
 20
165.60777128413
 30
0.0
 10
151.3565639637093
 20
167.1564497851317
 30
0.0
 10
128.3552392940578
 20
175.8780638777235
 30
0.0
 10
132.1198368027254
 20
211.7465735621953
 30
0.0
 10
113.2108153485207
 20
173.2209913093388
 30
0.0
 10
105.2288845264351
 20
160.0318082726307
 30
0.0
 10
103.5326585816207
 20
142.4078835837009
 30
0.0
 10
105.1191891067932
 20
127.5068660782852
 30
0.0
 10
99.03945890888085
 20
150.5529121262676
 30
0.0
 10
109.3073384436148
 20
183.5458425417063
 30
0.0
 10
130.0629731927112
 20
195.2909030642875
 30
0.0
  0
SPLINE
  5
A5
330
70
100
AcDbEntity
  8
splitsvg
100
AcDbSpline
210
0.0
220
0.0
230
1.0
 70
     9
 71
     3
 72
    17
 73
    13
 74
     0
 42
0.0000000001
 43
0.0000000001
 40
0.0
 40
0.0
 40
0.0
 40
0.0
 40
1.0
 40
1.0
 40
1.0
 40
2.0
 40
2.0
 40
2.0
 40
3.0
 40
3.0
 40
3.0
 40
4.0
 40
4.0
 40
4.0
 40
4.0
 10
154.9196977772224
 20
197.2865661344673
 30
0.0
 10
150.7388079902878
 20
189.3430591873534
 30
0.0
 10
163.0117475442541
 20
159.9300417283239
 30
0.0
 10
149.4170213729232
 20
172.385729002031
 30
0.0
 10
143.3315584999147
 20
177.0722316384676
 30
0.0
 10
137.5850286480684
 20
183.6294678219525
 30
0.0
 10
133.9653482664158
 20
190.2252361167923
 30
0.0
 10
130.2518125425657
 20
199.0975769602045
 30
0.0
 10
135.3229705388391
 20
192.4661315807412
 30
0.0
 10
138.3140418056763
 20
195.0213997166471
 30
0.0
 10
143.8523015202021
 20
193.918971785444
 30
0.0
 10
151.1742890047695
 20
199.9231366096102
 30
0.0
 10
154.9196977772224
 20
197.2865661344673
 30
0.0
  0
SPLINE
  5
A6
330
70
100
AcDbEntity
  8
splitsvg
100
AcDbSpline
210
0.0
220
0.0
230
1.0
 70
     9
 71
     3
 72
    14
 73
    10
 74
     0
 42
0.0000000001
 43
0.0000000001
 40
0.0
 40
0.0
 40
0.0
 40
0.0
 40
1.0
 40
1.0
 40
1.0
 40
2.0
 40
2.0
 40
2.0
 40
3.0
 40
3.0
 40
3.0
 40
3.0
 10
189.9339472734059
 20
198.0432759748407
 30
0.0
 10
191.2445879589421
 20
196.8541944281263
 30
0.0
 10
190.4439057603794
 20
194.8493516552837
 30
0.0
 10
190.1931185588233
 20
193.3229915726535
 30
0.0
 10
188.2396873798922
 20
193.1455895046839
 30
0.0
 10
189.003649219331
 20
195.8846984337008
 30
0.0
 10
189.3454061459589
 20
196.5742707490617
 30
0.0
 10
188.2412541988564
 20
196.7782177932334
 30
0.0
 10
188.4286814266621
 20
199.200288276759
 30
0.0
 10
189.9339472734059
 20
198.0432759748407
 30
0.0
  0
SPLINE
  5
A7
330
70
100
AcDbEntity
  8
splitsvg
100
AcDbSpline
210
0.0
220
0.0
230
1.0
 70
     9
 71
     3
 72
    68
 73
    64
 74
     0
 42
0.0000000001
 43
0.0000000001
 40
0.0
 40
0.0
 40
0.0
 40
0.0
 40
1.0
 40
1.0
 40
1.0
 40
2.0
 40
2.0
 40
2.0
 40
3.0
 40
3.0
 40
3.0
 40
4.0
 40
4.0
 40
4.0
 40
5.0
 40
5.0
 40
5.0
 40
6.0
 40
6.0
 40
6.0
 40
7.0
 40
7.0
 40
7.0
 40
8.0
 40
8.0
 40
8.0
 40
9.0
 40
9.0
 40
9.0
 40
10.0
 40
10.0
 40
10.0
 40
11.0
 40
11.0
 40
11.0
 40
12.0
 40
12.0
 40
12.0
 40
13.0
 40
13.0
 40
13.0
 40
14.0
 40
14.0
 40
14.0
 40
15.0
 40
15.0
 40
15.0
 40
16.0
 40
16.0
 40
16.0
 40
17.0
 40
17.0
 40
17.0
 40
18.0
 40
18.0
 40
18.0
 40
19.0
 40
19.0
 40
19.0
 40
20.0
 40
20.0
 40
20.0
 40
21.0
 40
21.0
 40
21.0
 40
21.0
 10
176.9330289518677
 20
209.4799782975905
 30
0.0
 10
185.8439164441504
 20
208.5375226158803
 30
0.0
 10
181.9614660956196
 20
202.7545443602164
 30
0.0
 10
185.9614661581556
 20
202.9751249190069
 30
0.0
 10
190.5366440736116
 20
203.4975994853846
 30
0.0
 10
185.7175026802288
 20
192.2715165483355
 30
0.0
 10
190.4104673327407
 20
187.5697962000108
 30
0.0
 10
207.7989098255029
 20
181.8866907278405
 30
0.0
 10
196.075138160124
 20
159.17904777627
 30
0.0
 10
179.8209365124606
 20
164.685012854021
 30
0.0
 10
174.693243744677
 20
164.6198821662448
 30
0.0
 10
171.9487174024982
 20
174.5892480091442
 30
0.0
 10
171.073032523869
 20
171.4387506039837
 30
0.0
 10
170.8141298747647
 20
169.6531526247944
 30
0.0
 10
173.0158112011103
 20
166.3311443249034
 30
0.0
 10
170.0603550646954
 20
168.620790773648
 30
0.0
 10
168.0886038735155
 20
168.8037962337998
 30
0.0
 10
165.6613428673024
 20
176.5333789777368
 30
0.0
 10
165.2104043790236
 20
172.5376140526464
 30
0.0
 10
165.100671797056
 20
168.1947709147207
 30
0.0
 10
169.2961303669739
 20
167.9445609535304
 30
0.0
 10
168.5371143689014
 20
164.7017890096983
 30
0.0
 10
152.7793049487884
 20
111.446535896235
 30
0.0
 10
203.0420747050949
 20
103.6742737808146
 30
0.0
 10
179.3692775371912
 20
75.77274002327029
 30
0.0
 10
176.792584611902
 20
73.79423283016151
 30
0.0
 10
169.8132175525974
 20
69.48693274828473
 30
0.0
 10
177.9035569161902
 20
71.48994203736404
 30
0.0
 10
181.3261742037915
 20
61.82327401675314
 30
0.0
 10
176.357678854661
 20
59.65793605572667
 30
0.0
 10
169.700222547559
 20
56.4755522895757
 30
0.0
 10
166.7256622801983
 20
60.22318307262216
 30
0.0
 10
161.5910903832044
 20
54.47520857624278
 30
0.0
 10
159.7826248578232
 20
58.47900958608592
 30
0.0
 10
158.2419445577966
 20
60.4501911356645
 30
0.0
 10
154.4457399538904
 20
70.11524551331159
 30
0.0
 10
156.7068389112923
 20
71.48388663213427
 30
0.0
 10
160.8071518406623
 20
68.84705663209905
 30
0.0
 10
165.1551796103136
 20
70.63707496004844
 30
0.0
 10
158.7300127432464
 20
73.10242760218478
 30
0.0
 10
129.9256179560538
 20
89.78960151583997
 30
0.0
 10
151.0377747241748
 20
124.4877404894763
 30
0.0
 10
154.915101685965
 20
149.1171096083517
 30
0.0
 10
166.932745463807
 20
154.2734763335384
 30
0.0
 10
152.465251734284
 20
152.456842919014
 30
0.0
 10
149.5574992556041
 20
149.2319787218554
 30
0.0
 10
139.9955446229702
 20
145.111328540396
 30
0.0
 10
137.313019701087
 20
123.4408147329874
 30
0.0
 10
124.8701285963057
 20
129.8677110908519
 30
0.0
 10
100.439352495822
 20
161.0732363701107
 30
0.0
 10
167.9061305898141
 20
154.891369289843
 30
0.0
 10
158.3917209156964
 20
178.7225280584066
 30
0.0
 10
158.2647653889032
 20
185.576711507585
 30
0.0
 10
152.8946470638287
 20
200.3077659308121
 30
0.0
 10
163.8923405790316
 20
196.9936624789767
 30
0.0
 10
167.6521189623346
 20
200.1273522715317
 30
0.0
 10
160.2989426356045
 20
201.1365385211097
 30
0.0
 10
160.6299511119402
 20
203.0650914204054
 30
0.0
 10
165.04975573587
 20
207.9529189061111
 30
0.0
 10
162.874160704141
 20
204.5723121417736
 30
0.0
 10
168.0445092513633
 20
204.7836160467305
 30
0.0
 10
174.7362049541106
 20
204.4783413065828
 30
0.0
 10
171.4391050666633
 20
210.912449755205
 30
0.0
 10
176.9330289518677
 20
209.4799782975905
 30
0.0
  0
SPLINE
  5
A8
330
70
100
AcDbEntity
  8
splitsvg
100
AcDbSpline
210
0.0
220
0.0
230
1.0
 70
     9
 71
     3
 72
    23
 73
    19
 74
     0
 42
0.0000000001
 43
0.0000000001
 40
0.0
 40
0.0
 40
0.0
 40
0.0
 40
1.0
 40
1.0
 40
1.0
 40
2.0
 40
2.0
 40
2.0
 40
3.0
 40
3.0
 40
3.0
 40
4.0
 40
4.0
 40
4.0
 40
5.0
 40
5.0
 40
5.0
 40
6.0
 40
6.0
 40
6.0
 40
6.0
 10
200.9268593935961
 20
209.7057558599934
 30
0.0
 10
206.0206981978378
 20
207.5682156475754
 30
0.0
 10
226.3755651795212
 20
192.5471941699923
 30
0.0
 10
212.7760102164947
 20
191.9192391229989
 30
0.0
 10
206.9091405113081
 20
188.9241750727121
 30
0.0
 10
207.6279530703908
 20
200.0646924435735
 30
0.0
 10
204.5219028125164
 20
202.8530227619718
 30
0.0
 10
195.5910247227663
 20
215.635594794685
 30
0.0
 10
205.2352838854011
 20
198.8264853559803
 30
0.0
 10
206.7084334329754
 20
195.4301283281285
 30
0.0
 10
210.8068879419813
 20
188.5870105387199
 30
0.0
 10
205.2332095088188
 20
189.8902906431978
 30
0.0
 10
200.7322106685933
 20
185.9887316138937
 30
0.0
 10
192.6166094699383
 20
181.6298520696737
 30
0.0
 10
198.1258645052825
 20
193.9650800336096
 30
0.0
 10
198.2436293559756
 20
198.0160087129257
 30
0.0
 10
199.2772125727413
 20
200.4690308258591
 30
0.0
 10
197.3866803085061
 20
210.3712712291642
 30
0.0
 10
200.9268593935961
 20
209.7057558599934
 30
0.0
  0
SPLINE
  5
A9
330
70
100
AcDbEntity
  8
splitsvg
100
AcDbSpline
210
0.0
220
0.0
230
1.0
 70
     9
 71
     3
 72
    11
 73
     7
 74
     0
 42
0.0000000001
 43
0.0000000001
 40
0.0
 40
0.0
 40
0.0
 40
0.0
 40
1.0
 40
1.0
 40
1.0
 40
2.0
 40
2.0
 40
2.0
 40
2.0
 10
168.3474741953064
 20
212.2379952434817
 30
0.0
 10
174.4539416896818
 20
209.5888783533318
 30
0.0
 10
171.3044420400144
 20
204.9067185397612
 30
0.0
 10
165.9833824457484
 20
207.1927001739263
 30
0.0
 10
166.0441022959876
 20
208.6405074659517
 30
0.0
 10
166.1609326765383
 20
213.9177233885259
 30
0.0
 10
168.3474741953064
 20
212.2379952434817
 30
0.0
  0
SPLINE
  5
AA
330
70
100
AcDbEntity
  8
splitsvg
100
AcDbSpline
210
0.0
220
0.0
230
1.0
 70
     9
 71
     3
 72
    14
 73
    10
 74
     0
 42
0.0000000001
 43
0.0000000001
 40
0.0
 40
0.0
 40
0.0
 40
0.0
 40
1.0
 40
1.0
 40
1.0
 40
2.0
 40
2.0
 40
2.0
 40
3.0
 40
3.0
 40
3.0
 40
3.0
 10
119.7735038154347
 20
214.3197372541375
 30
0.0
 10
134.3482137255513
 20
186.9481905020812
 30
0.0
 10
140.4627414329326
 20
204.9454805779642
 30
0.0
 10
160.6348158768849
 20
200.6451912679775
 30
0.0
 10
169.790303296278
 20
195.9427039918294
 30
0.0
 10
151.3267263264746
 20
201.1040614044939
 30
0.0
 10
149.4805204235583
 20
198.9152855666545
 30
0.0
 10
137.7830403159407
 20
189.0974285532789
 30
0.0
 10
113.0985208165871
 20
209.8950632650727
 30
0.0
 10
119.7735038154347
 20
214.3197372541375
 30
0.0
  0
SPLINE
  5
AB
330
70
100
AcDbEntity
  8
splitsvg
100
AcDbSpline
210
0.0
220
0.0
230
1.0
 70
     9
 71
     3
 72
    11
 73
     7
 74
     0
 42
0.0000000001
 43
0.0000000001
 40
0.0
 40
0.0
 40
0.0
 40
0.0
 40
1.0
 40
1.0
 40
1.0
 40
2.0
 40
2.0
 40
2.0
 40
2.0
 10
193.0196977676974
 20
212.374520609489
 30
0.0
 10
193.8845199858217
 20
210.4475852030843
 30
0.0
 10
193.571477462055
 20
193.5692719293806
 30
0.0
 10
192.172657169941
 20
197.3499005916355
 30
0.0
 10
183.8379579600491
 20
209.1057542393478
 30
0.0
 10
192.9226565944411
 20
219.0912667637751
 30
0.0
 10
193.0196977676974
 20
212.374520609489
 30
0.0
  0
SPLINE
  5
AC
330
70
100
AcDbEntity
  8
splitsvg
100
AcDbSpline
210
0.0
220
0.0
230
1.0
 70
     9
 71
     3
 72
    17
 73
    13
 74
     0
 42
0.0000000001
 43
0.0000000001
 40
0.0
 40
0.0
 40
0.0
 40
0.0
 40
1.0
 40
1.0
 40
1.0
 40
2.0
 40
2.0
 40
2.0
 40
3.0
 40
3.0
 40
3.0
 40
4.0
 40
4.0
 40
4.0
 40
4.0
 10
198.2408045711339
 20
215.1808657854842
 30
0.0
 10
208.1789277337602
 20
211.3591618597053
 30
0.0
 10
218.0146279706171
 20
202.6536541300751
 30
0.0
 10
222.3634521166735
 20
193.3298797469612
 30
0.0
 10
214.6249027455759
 20
197.990692062003
 30
0.0
 10
209.7836928182478
 20
211.3553081897778
 30
0.0
 10
199.0707459720777
 20
211.8384093327612
 30
0.0
 10
195.3305601454397
 20
208.4381016227556
 30
0.0
 10
198.4247504561481
 20
192.3093929132163
 30
0.0
 10
193.8719259389356
 20
189.2299947038852
 30
0.0
 10
197.545537253785
 20
194.0120290234574
 30
0.0
 10
192.5623450316015
 20
217.2699609956697
 30
0.0
 10
198.2408045711339
 20
215.1808657854842
 30
0.0
  0
SPLINE
  5
AD
330
70
100
AcDbEntity
  8
splitsvg
100
AcDbSpline
210
0.0
220
0.0
230
1.0
 70
     9
 71
     3
 72
    14
 73
    10
 74
     0
 42
0.0000000001
 43
0.0000000001
 40
0.0
 40
0.0
 40
0.0
 40
0.0
 40
1.0
 40
1.0
 40
1.0
 40
2.0
 40
2.0
 40
2.0
 40
3.0
 40
3.0
 40
3.0
 40
3.0
 10
195.208679141255
 20
236.5687252398553
 30
0.0
 10
204.4580304308237
 20
220.0183410337516
 30
0.0
 10
186.3376689903549
 20
218.1515795494257
 30
0.0
 10
185.5046409180654
 20
204.1459931148183
 30
0.0
 10
179.2949837329414
 20
216.0203238655585
 30
0.0
 10
201.8963028981839
 20
220.270812285873
 30
0.0
 10
194.2370777622254
 20
234.0333627661566
 30
0.0
 10
193.4265868846364
 20
235.1888726338227
 30
0.0
 10
193.3590780125126
 20
237.6636469272805
 30
0.0
 10
195.208679141255
 20
236.5687252398553
 30
0.0
  0
SPLINE
  5
AE
330
70
100
AcDbEntity
  8
splitsvg
100
AcDbSpline
210
0.0
220
0.0
230
1.0
 70
     9
 71
     3
 72
   323
 73
   319
 74
     0
 42
0.0000000001
 43
0.0000000001
 40
0.0
 40
0.0
 40
0.0
 40
0.0
 40
1.0
 40
1.0
 40
1.0
 40
2.0
 40
2.0
 40
2.0
 40
3.0
 40
3.0
 40
3.0
 40
4.0
 40
4.0
 40
4.0
 40
5.0
 40
5.0
 40
5.0
 40
6.0
 40
6.0
 40
6.0
 40
7.0
 40
7.0
 40
7.0
 40
8.0
 40
8.0
 40
8.0
 40
9.0
 40
9.0
 40
9.0
 40
10.0
 40
10.0
 40
10.0
 40
11.0
 40
11.0
 40
11.0
 40
12.0
 40
12.0
 40
12.0
 40
13.0
 40
13.0
 40
13.0
 40
14.0
 40
14.0
 40
14.0
 40
15.0
 40
15.0
 40
15.0
 40
16.0
 40
16.0
 40
16.0
 40
17.0
 40
17.0
 40
17.0
 40
18.0
 40
18.0
 40
18.0
 40
19.0
 40
19.0
 40
19.0
 40
20.0
 40
20.0
 40
20.0
 40
21.0
 40
21.0
 40
21.0
 40
22.0
 40
22.0
 40
22.0
 40
23.0
 40
23.0
 40
23.0
 40
24.0
 40
24.0
 40
24.0
 40
25.0
 40
25.0
 40
25.0
 40
26.0
 40
26.0
 40
26.0
 40
27.0
 40
27.0
 40
27.0
 40
28.0
 40
28.0
 40
28.0
 40
29.0
 40
29.0
 40
29.0
 40
30.0
 40
30.0
 40
30.0
 40
31.0
 40
31.0
 40
31.0
 40
32.0
 40
32.0
 40
32.0
 40
33.0
 40
33.0
 40
33.0
 40
34.0
 40
34.0
 40
34.0
 40
35.0
 40
35.0
 40
35.0
 40
36.0
 40
36.0
 40
36.0
 40
37.0
 40
37.0
 40
37.0
 40
38.0
 40
38.0
 40
38.0
 40
39.0
 40
39.0
 40
39.0
 40
40.0
 40
40.0
 40
40.0
 40
41.0
 40
41.0
 40
41.0
 40
42.0
 40
42.0
 40
42.0
 40
43.0
 40
43.0
 40
43.0
 40
44.0
 40
44.0
 40
44.0
 40
45.0
 40
45.0
 40
45.0
 40
46.0
 40
46.0
 40
46.0
 40
47.0
 40
47.0
 40
47.0
 40
48.0
 40
48.0
 40
48.0
 40
49.0
 40
49.0
 40
49.0
 40
50.0
 40
50.0
 40
50.0
 40
51.0
 40
51.0
 40
51.0
 40
52.0
 40
52.0
 40
52.0
 40
53.0
 40
53.0
 40
53.0
 40
54.0
 40
54.0
 40
54.0
 40
55.0
 40
55.0
 40
55.0
 40
56.0
 40
56.0
 40
56.0
 40
57.0
 40
57.0
 40
57.0
 40
58.0
 40
58.0
 40
58.0
 40
59.0
 40
59.0
 40
59.0
 40
60.0
 40
60.0
 40
60.0
 40
61.0
 40
61.0
 40
61.0
 40
62.0
 40
62.0
 40
62.0
 40
63.0
 40
63.0
 40
63.0
 40
64.0
 40
64.0
 40
64.0
 40
65.0
 40
65.0
 40
65.0
 40
66.0
 40
66.0
 40
66.0
 40
67.0
 40
67.0
 40
67.0
 40
68.0
 40
68.0
 40
68.0
 40
69.0
 40
69.0
 40
69.0
 40
70.0
 40
70.0
 40
70.0
 40
71.0
 40
71.0
 40
71.0
 40
72.0
 40
72.0
 40
72.0
 40
73.0
 40
73.0
 40
73.0
 40
74.0
 40
74.0
 40
74.0
 40
75.0
 40
75.0
 40
75.0
 40
76.0
 40
76.0
 40
76.0
 40
77.0
 40
77.0
 40
77.0
 40
78.0
 40
78.0
 40
78.0
 40
79.0
 40
79.0
 40
79.0
 40
80.0
 40
80.0
 40
80.0
 40
81.0
 40
81.0
 40
81.0
 40
82.0
 40
82.0
 40
82.0
 40
83.0
 40
83.0
 40
83.0
 40
84.0
 40
84.0
 40
84.0
 40
85.0
 40
85.0
 40
85.0
 40
86.0
 40
86.0
 40
86.0
 40
87.0
 40
87.0
 40
87.0
 40
88.0
 40
88.0
 40
88.0
 40
89.0
 40
89.0
 40
89.0
 40
90.0
 40
90.0
 40
90.0
 40
91.0
 40
91.0
 40
91.0
 40
92.0
 40
92.0
 40
92.0
 40
93.0
 40
93.0
 40
93.0
 40
94.0
 40
94.0
 40
94.0
 40
95.0
 40
95.0
 40
95.0
 40
96.0
 40
96.0
 40
96.0
 40
97.0
 40
97.0
 40
97.0
 40
98.0
 40
98.0
 40
98.0
 40
99.0
 40
99.0
 40
99.0
 40
100.0
 40
100.0
 40
100.0
 40
101.0
 40
101.0
 40
101.0
 40
102.0
 40
102.0
 40
102.0
 40
103.0
 40
103.0
 40
103.0
 40
104.0
 40
104.0
 40
104.0
 40
105.0
 40
105.0
 40
105.0
 40
106.0
 40
106.0
 40
106.0
 40
106.0
 10
192.1730332544271
 20
237.9780724844345
 30
0.0
 10
191.708233774951
 20
237.4378933205093
 30
0.0
 10
191.0079643716391
 20
235.7373262609895
 30
0.0
 10
191.8938265359002
 20
235.5211798882978
 30
0.0
 10
192.4786241396098
 20
235.6955721473971
 30
0.0
 10
191.9260951446834
 20
232.5510994709752
 30
0.0
 10
192.6836657789241
 20
233.1230140129945
 30
0.0
 10
196.009400918001
 20
226.388234714227
 30
0.0
 10
191.1648816022717
 20
220.322107684614
 30
0.0
 10
186.3028440121517
 20
217.1774060869027
 30
0.0
 10
184.4210061317833
 20
217.0368182237293
 30
0.0
 10
183.283870438929
 20
209.1469474292425
 30
0.0
 10
181.8451025100616
 20
210.4526295674888
 30
0.0
 10
178.8162771949959
 20
212.0416379565242
 30
0.0
 10
173.9206906488975
 20
211.5236458994871
 30
0.0
 10
171.0415598873708
 20
213.1985862359846
 30
0.0
 10
170.0001090184066
 20
213.6295860357077
 30
0.0
 10
169.537586055803
 20
214.5506722288409
 30
0.0
 10
168.4058682370084
 20
214.7782116686024
 30
0.0
 10
166.5311315501453
 20
215.1152909424641
 30
0.0
 10
167.7801068313107
 20
216.5232630878048
 30
0.0
 10
165.4861241322685
 20
214.7367023567825
 30
0.0
 10
164.1697071302758
 20
215.0313030205925
 30
0.0
 10
164.8804402845627
 20
212.4672392076029
 30
0.0
 10
164.1619442027471
 20
212.3786465698803
 30
0.0
 10
163.7296143772606
 20
212.3791068928543
 30
0.0
 10
163.6685823575547
 20
212.1596785337706
 30
0.0
 10
163.6685823575547
 20
210.603574658258
 30
0.0
 10
163.8162083301687
 20
208.5243932029618
 30
0.0
 10
163.2941987320758
 20
209.8683749376924
 30
0.0
 10
162.8922879896992
 20
208.8514095280753
 30
0.0
 10
162.8691132147216
 20
208.1448503470673
 30
0.0
 10
162.0745748676365
 20
208.7143873969417
 30
0.0
 10
162.1163263071518
 20
208.0752074002904
 30
0.0
 10
158.5562057395841
 20
206.9882119722904
 30
0.0
 10
159.9472809975322
 20
203.7710777381602
 30
0.0
 10
155.363376288902
 20
203.7352085472771
 30
0.0
 10
147.110092539956
 20
203.910150941937
 30
0.0
 10
139.6321550411886
 20
197.7207930261666
 30
0.0
 10
132.7074580392252
 20
201.7246616641132
 30
0.0
 10
127.8513553568117
 20
204.3584601533366
 30
0.0
 10
123.8225366746311
 20
209.9718834804781
 30
0.0
 10
122.0408198540444
 20
213.9741371210758
 30
0.0
 10
119.8331494624573
 20
219.5509425758179
 30
0.0
 10
113.3109259393073
 20
214.8406140870461
 30
0.0
 10
117.6964444717905
 20
210.0770448280089
 30
0.0
 10
119.8983529417754
 20
205.7827654393334
 30
0.0
 10
122.8666160380109
 20
201.2664546146446
 30
0.0
 10
127.260340657164
 20
198.1963422615975
 30
0.0
 10
129.8774117947939
 20
197.4944327073639
 30
0.0
 10
124.4787352563184
 20
197.1842228616125
 30
0.0
 10
124.8632563769593
 20
196.1510554907756
 30
0.0
 10
125.0236474881692
 20
195.3899616072743
 30
0.0
 10
123.9202415029361
 20
196.0480245087347
 30
0.0
 10
124.0163485731263
 20
195.3752022004563
 30
0.0
 10
124.0771934608506
 20
194.7334963420177
 30
0.0
 10
123.1934521197204
 20
195.3241760472902
 30
0.0
 10
123.3108448360091
 20
194.5990979397626
 30
0.0
 10
123.310806743054
 20
194.222691996501
 30
0.0
 10
123.263887503169
 20
194.1757714108907
 30
0.0
 10
122.8874731406755
 20
194.1757714108865
 30
0.0
 10
117.7895424287321
 20
189.5332436001536
 30
0.0
 10
112.7940168455816
 20
181.8132110677291
 30
0.0
 10
109.3758467188266
 20
175.1002278553853
 30
0.0
 10
101.7075698071351
 20
166.9203486717235
 30
0.0
 10
94.87996868357383
 20
120.0467583480857
 30
0.0
 10
109.1977715770831
 20
121.6418856046017
 30
0.0
 10
108.9555943380499
 20
121.8226936563387
 30
0.0
 10
109.248943433436
 20
124.8765377197091
 30
0.0
 10
108.5291210806099
 20
125.1471467884029
 30
0.0
 10
108.2348481981686
 20
125.1886655711319
 30
0.0
 10
108.2119181270847
 20
125.26310116546
 30
0.0
 10
108.211918127085
 20
126.1746841967805
 30
0.0
 10
106.7232692724068
 20
130.0363896135626
 30
0.0
 10
108.5370629950976
 20
129.9713073161056
 30
0.0
 10
110.0179223833542
 20
133.9216407259166
 30
0.0
 10
111.2295800128323
 20
134.9129958890788
 30
0.0
 10
111.7860202347652
 20
136.774628303688
 30
0.0
 10
112.8693176640197
 20
137.5895581419168
 30
0.0
 10
113.7664718352153
 20
138.320917593563
 30
0.0
 10
114.2350602928299
 20
139.8625891102583
 30
0.0
 10
115.2547530142971
 20
140.3582901119466
 30
0.0
 10
116.2558681076431
 20
140.3977367836855
 30
0.0
 10
115.6227828392394
 20
141.1073673722329
 30
0.0
 10
116.4097420118591
 20
141.1180859544631
 30
0.0
 10
116.7600761030135
 20
141.1179904165923
 30
0.0
 10
116.8401570784066
 20
141.1853743311055
 30
0.0
 10
116.9114180710805
 20
141.541328056193
 30
0.0
 10
116.8043874640466
 20
142.0645909246142
 30
0.0
 10
118.0110728634841
 20
142.0633235149636
 30
0.0
 10
117.4548084539637
 20
141.7960298111176
 30
0.0
 10
116.4406985815232
 20
142.6531600868898
 30
0.0
 10
117.3957901269061
 20
130.6306158689999
 30
0.0
 10
116.6786523111855
 20
131.2728810983952
 30
0.0
 10
115.6941475285004
 20
128.7890090252014
 30
0.0
 10
117.8721217723721
 20
128.0506060357947
 30
0.0
 10
119.9948361888637
 20
128.4890290320132
 30
0.0
 10
121.8456553638914
 20
131.4294229960742
 30
0.0
 10
121.223325922725
 20
121.9025779458548
 30
0.0
 10
122.8538323978312
 20
122.0687198341551
 30
0.0
 10
125.1443086445304
 20
120.26167673859
 30
0.0
 10
126.2636516823932
 20
123.7788906413096
 30
0.0
 10
127.6243371706975
 20
124.4664878074969
 30
0.0
 10
129.0315821283284
 20
126.9369234361144
 30
0.0
 10
128.9683220164415
 20
122.1996449706098
 30
0.0
 10
130.3673883712293
 20
121.5655298481186
 30
0.0
 10
134.9705103835645
 20
116.7057932692836
 30
0.0
 10
134.9217331628272
 20
126.450522286987
 30
0.0
 10
136.7162404833452
 20
129.0002938730559
 30
0.0
 10
139.9059873962748
 20
132.0636364336234
 30
0.0
 10
146.1512698242844
 20
147.4566094578523
 30
0.0
 10
150.6511508823012
 20
144.1992145499741
 30
0.0
 10
148.0767351927587
 20
134.4876545509387
 30
0.0
 10
144.7763105755247
 20
125.445039471301
 30
0.0
 10
143.9048761812765
 20
114.1839562397258
 30
0.0
 10
136.6535240895644
 20
104.4093145964142
 30
0.0
 10
139.4744276456696
 20
85.57126402415143
 30
0.0
 10
148.523889954035
 20
77.7584544518455
 30
0.0
 10
148.87551556574
 20
68.26197126682837
 30
0.0
 10
150.8562624900348
 20
60.59743175083824
 30
0.0
 10
153.3674951159306
 20
53.00313122344662
 30
0.0
 10
159.2000976050309
 20
35.72200002775334
 30
0.0
 10
170.6212790850325
 20
19.4066658101215
 30
0.0
 10
186.4578772217639
 20
9.626950842175915
 30
0.0
 10
188.9331329513811
 20
7.880945125238473
 30
0.0
 10
191.0371889179685
 20
7.053099368911912
 30
0.0
 10
193.0199450178028
 20
6.004423733934441
 30
0.0
 10
192.7783695149159
 20
5.308180046008474
 30
0.0
 10
194.8256635194812
 20
5.996876133670884
 30
0.0
 10
194.5976129869335
 20
5.263240326204774
 30
0.0
 10
195.8300112625897
 20
4.413651959950231
 30
0.0
 10
197.6109957117592
 20
3.810612125915837
 30
0.0
 10
199.4029514056107
 20
3.252063535052883
 30
0.0
 10
201.8266349085322
 20
1.021724386231007
 30
0.0
 10
229.6551911800809
 20
-3.152041145021223
 30
0.0
 10
217.1503046567419
 20
4.805322140599755
 30
0.0
 10
214.8968300795539
 20
6.799627516604317
 30
0.0
 10
212.0626839896337
 20
10.02963803032479
 30
0.0
 10
210.0235457243323
 20
11.86034073058413
 30
0.0
 10
209.3709609916659
 20
11.68966326694038
 30
0.0
 10
209.8642356338507
 20
13.75859068024031
 30
0.0
 10
209.1602695295089
 20
13.41193312959356
 30
0.0
 10
208.5586851001515
 20
13.30499938918802
 30
0.0
 10
209.0908000667762
 20
14.37465329430303
 30
0.0
 10
208.4808804834233
 20
14.25910523197744
 30
0.0
 10
207.8956725238565
 20
14.18090816195234
 30
0.0
 10
208.2840237221346
 20
15.12838990495455
 30
0.0
 10
207.6670106568955
 20
15.07926738698773
 30
0.0
 10
206.9650239904263
 20
14.91632206806897
 30
0.0
 10
207.5235594407778
 20
16.80419141200819
 30
0.0
 10
206.8133026501041
 20
16.63223098385019
 30
0.0
 10
206.4883954605906
 20
16.66964348319676
 30
0.0
 10
206.4252533199032
 20
16.74407907751402
 30
0.0
 10
206.4252533199019
 20
17.09084946995506
 30
0.0
 10
206.4978316442235
 20
17.86541637399398
 30
0.0
 10
205.5853791712505
 20
17.12630359119805
 30
0.0
 10
205.7197535389434
 20
18.00771981648325
 30
0.0
 10
205.8106456579778
 20
19.29456022806432
 30
0.0
 10
205.0327931812048
 20
18.68063823001661
 30
0.0
 10
204.8727422581377
 20
19.41327144234362
 30
0.0
 10
204.8912154850435
 20
20.04103441667446
 30
0.0
 10
204.0520685354477
 20
19.79075506617733
 30
0.0
 10
204.1675278226006
 20
20.5234241319244
 30
0.0
 10
204.260848886892
 20
22.11030170187925
 30
0.0
 10
203.2655849097021
 20
20.76880438721154
 30
0.0
 10
203.2928665978787
 20
22.19666878999929
 30
0.0
 10
203.2534292680955
 20
22.88416510164603
 30
0.0
 10
203.2227356205079
 20
22.940621603908
 30
0.0
 10
202.8692472918738
 20
22.98153211279662
 30
0.0
 10
202.2037670256939
 20
22.79762197671876
 30
0.0
 10
202.6711631154836
 20
24.63924549648274
 30
0.0
 10
202.0860690253076
 20
24.5348653766899
 30
0.0
 10
201.4827097249188
 20
24.63047656914169
 30
0.0
 10
201.8982007800801
 20
26.36611872908835
 30
0.0
 10
201.2569231440337
 20
26.11205025095587
 30
0.0
 10
200.5943745213598
 20
25.89205839939458
 30
0.0
 10
201.2666857859805
 20
27.97298424857894
 30
0.0
 10
200.4985561252199
 20
27.7562377805818
 30
0.0
 10
194.1130571740102
 20
37.17134011384497
 30
0.0
 10
186.6268031928692
 20
95.03892640477038
 30
0.0
 10
210.5178953258156
 20
73.38528297555747
 30
0.0
 10
210.3955547567334
 20
72.66187079109965
 30
0.0
 10
211.2911653181233
 20
73.25112995667378
 30
0.0
 10
211.2230499048371
 20
72.60504039490064
 30
0.0
 10
211.1220427842923
 20
72.04918666146738
 30
0.0
 10
212.0860981741673
 20
72.27041636788951
 30
0.0
 10
212.0972297799593
 20
71.78090907342881
 30
0.0
 10
211.9964250866014
 20
71.21034231907739
 30
0.0
 10
213.9252613780588
 20
71.70170306543858
 30
0.0
 10
213.6218272413509
 20
70.97839207779968
 30
0.0
 10
213.4618040485388
 20
70.2543869092713
 30
0.0
 10
214.5543769109742
 20
70.85528465506816
 30
0.0
 10
214.4686053271881
 20
70.22625906195848
 30
0.0
 10
214.1720819671803
 20
69.57706278253387
 30
0.0
 10
216.0877281646035
 20
69.99475092418212
 30
0.0
 10
216.0208628660986
 20
69.36333046377841
 30
0.0
 10
215.9140306436285
 20
68.77254909020249
 30
0.0
 10
216.8533580748512
 20
69.21502531345807
 30
0.0
 10
216.9080586164841
 20
68.72973248366054
 30
0.0
 10
217.3828887840854
 20
67.93703801677786
 30
0.0
 10
220.5536403547664
 20
67.9836216712758
 30
0.0
 10
220.8185591795538
 20
67.02723652913912
 30
0.0
 10
220.8185823432749
 20
66.6173268474299
 30
0.0
 10
220.8295205214281
 20
66.6113302281163
 30
0.0
 10
221.594697760554
 20
66.61133022810988
 30
0.0
 10
223.0918773338207
 20
66.69695424351674
 30
0.0
 10
221.7093263695109
 20
65.66740035026128
 30
0.0
 10
223.3368609926374
 20
65.76465780553826
 30
0.0
 10
224.4399768808413
 20
65.67948464848803
 30
0.0
 10
223.6083252223795
 20
64.98379372715021
 30
0.0
 10
225.2283750817773
 20
65.0885571705018
 30
0.0
 10
234.9217546647898
 20
61.04157313136031
 30
0.0
 10
229.7648378985932
 20
65.827058735417
 30
0.0
 10
232.9345992601286
 20
65.76549051937909
 30
0.0
 10
240.1495774841279
 20
62.5223879246559
 30
0.0
 10
234.9791878119209
 20
71.15830660471001
 30
0.0
 10
238.2598851582059
 20
68.65054331923566
 30
0.0
 10
239.4652804505084
 20
67.18534378079249
 30
0.0
 10
241.6977747807241
 20
70.62468411015164
 30
0.0
 10
240.0046273407582
 20
71.26812324578342
 30
0.0
 10
239.4759693226577
 20
71.03348380903817
 30
0.0
 10
240.003584674446
 20
73.29910359193552
 30
0.0
 10
239.3821123277262
 20
72.96125035648376
 30
0.0
 10
238.7413741712566
 20
72.73824444736354
 30
0.0
 10
239.2489382412859
 20
74.69631192287593
 30
0.0
 10
238.5703519546636
 20
74.48702524826457
 30
0.0
 10
237.8667805041026
 20
74.32109498920164
 30
0.0
 10
238.4280247942431
 20
76.21413667930913
 30
0.0
 10
237.7166239279554
 20
76.04000000857592
 30
0.0
 10
234.6076377639809
 20
80.70108241702717
 30
0.0
 10
231.1283658191154
 20
83.71945619235452
 30
0.0
 10
226.2686841023394
 20
86.80503098225299
 30
0.0
 10
220.647775394277
 20
87.57644577790426
 30
0.0
 10
239.3987424374468
 20
99.86434696322483
 30
0.0
 10
227.4499995688926
 20
117.2705745829892
 30
0.0
 10
227.0324149426256
 20
117.2702212575194
 30
0.0
 10
227.0274733837889
 20
117.2790385487756
 30
0.0
 10
227.0274733837889
 20
118.0364535571318
 30
0.0
 10
227.003300231928
 20
119.1710627224981
 30
0.0
 10
225.3563149488591
 20
119.8695428351467
 30
0.0
 10
225.1335027916524
 20
120.5166141923908
 30
0.0
 10
222.793710317221
 20
122.3711711670537
 30
0.0
 10
222.209864162591
 20
124.0512321363047
 30
0.0
 10
219.9014598828675
 20
125.2371521365772
 30
0.0
 10
218.9501453966636
 20
125.0742695496187
 30
0.0
 10
218.3942163546522
 20
127.1588568832382
 30
0.0
 10
217.4392683653576
 20
126.8656295092261
 30
0.0
 10
216.0396371126999
 20
126.7499848046933
 30
0.0
 10
217.4257037416456
 20
127.7165783412426
 30
0.0
 10
215.9502426979419
 20
127.5712895892164
 30
0.0
 10
214.5837870512353
 20
127.3468836295527
 30
0.0
 10
215.6802119735569
 20
128.4049513848154
 30
0.0
 10
214.7607127185471
 20
128.4181409856101
 30
0.0
 10
213.9648736160998
 20
128.4319183263153
 30
0.0
 10
213.7599977772434
 20
130.0023408805401
 30
0.0
 10
213.198721118956
 20
129.9703343095135
 30
0.0
 10
210.3925194919937
 20
140.3189139127744
 30
0.0
 10
186.4854542151588
 20
156.033740957755
 30
0.0
 10
203.3395310857647
 20
165.6713804156258
 30
0.0
 10
206.2891470870839
 20
165.7920942687167
 30
0.0
 10
209.3179742375844
 20
165.6333605305257
 30
0.0
 10
210.5176018874691
 20
164.4717422563176
 30
0.0
 10
218.4513756439128
 20
160.9578510993087
 30
0.0
 10
214.4260499437927
 20
183.1622608150032
 30
0.0
 10
231.6528048986803
 20
158.6153856960881
 30
0.0
 10
234.4190601305156
 20
157.8823896044071
 30
0.0
 10
233.3601956330572
 20
170.6408390040434
 30
0.0
 10
233.1312827458928
 20
171.8690266621341
 30
0.0
 10
232.9697443816281
 20
172.6254793391675
 30
0.0
 10
242.0120635435521
 20
170.6013424596066
 30
0.0
 10
240.5434618647354
 20
173.5377127599407
 30
0.0
 10
240.2185506272387
 20
174.4920022452842
 30
0.0
 10
241.070367818251
 20
174.5522107590495
 30
0.0
 10
239.726843768257
 20
175.5580613152629
 30
0.0
 10
236.126362212933
 20
179.119220873167
 30
0.0
 10
247.5896978622655
 20
175.6921044321149
 30
0.0
 10
240.4736627078539
 20
183.4577527290315
 30
0.0
 10
236.4714089237248
 20
185.080483648815
 30
0.0
 10
241.3656103180387
 20
185.5967685227408
 30
0.0
 10
240.0896789192586
 20
187.7067972436886
 30
0.0
 10
238.8304203471602
 20
189.9069491938893
 30
0.0
 10
235.2601939038869
 20
189.3196034656108
 30
0.0
 10
233.3774118970103
 20
190.5103303426757
 30
0.0
 10
231.1449849370946
 20
191.8295909876804
 30
0.0
 10
229.0517457189703
 20
192.8927489454476
 30
0.0
 10
226.0045079169331
 20
193.4690808077434
 30
0.0
 10
222.3484245679006
 20
198.0220635300066
 30
0.0
 10
217.9880978113901
 20
205.2627323974797
 30
0.0
 10
212.0684064063362
 20
209.6297760370502
 30
0.0
 10
212.1799344390941
 20
210.2040440569253
 30
0.0
 10
211.1332449104194
 20
209.9388809606852
 30
0.0
 10
211.2230291987325
 20
210.4917402775094
 30
0.0
 10
211.3341862483692
 20
211.0844766302731
 30
0.0
 10
210.262209439641
 20
210.5677662612508
 30
0.0
 10
210.3763660576136
 20
211.1644896023898
 30
0.0
 10
210.6020087188305
 20
211.8535195754191
 30
0.0
 10
208.764589401722
 20
211.4029233692892
 30
0.0
 10
208.8239141349702
 20
212.0259995882794
 30
0.0
 10
208.8693621736068
 20
212.6683577355775
 30
0.0
 10
208.082645154026
 20
212.1018977208747
 30
0.0
 10
208.0692688670631
 20
212.8025181493258
 30
0.0
 10
208.0318296125612
 20
213.4762088599504
 30
0.0
 10
207.3212185094639
 20
212.988410183535
 30
0.0
 10
207.2172129932897
 20
213.5651326600136
 30
0.0
 10
206.5386680703098
 20
213.9997140027528
 30
0.0
 10
205.7570802030873
 20
214.461052970554
 30
0.0
 10
204.917441792981
 20
214.7503598888228
 30
0.0
 10
203.5964834678038
 20
214.6631053686769
 30
0.0
 10
204.6711513090074
 20
215.6169211934554
 30
0.0
 10
203.4781537749844
 20
215.5985781714523
 30
0.0
 10
202.0037155601277
 20
216.5706934753521
 30
0.0
 10
200.0720278623837
 20
216.9016674460542
 30
0.0
 10
198.5228056715022
 20
217.4678015334621
 30
0.0
 10
198.3653996342773
 20
218.336228468406
 30
0.0
 10
196.3502534385704
 20
217.523365476384
 30
0.0
 10
196.9711811894447
 20
219.0133907752756
 30
0.0
 10
200.6966991062107
 20
222.7137736777397
 30
0.0
 10
201.1129248286264
 20
240.5284127675545
 30
0.0
 10
192.1730332544271
 20
237.9780724844345
 30
0.0
  0
HATCH
  5
AF
330
70
100
AcDbEntity
  8
splitsvg
 62
   250
420
  2567724
440
 33554687
100
AcDbHatch
 10
0.0
 20
0.0
 30
0.0
210
0.0
220
0.0
230
1.0
  2
SOLID
 70
     1
 71
     1
 91
       54
 92
        1
 93
        2
 72
     4
 94
        3
 73
     0
 74
     0
 95
       14
 96
       10
 40
0.0
 40
0.0
 40
0.0
 40
0.0
 40
1.0
 40
1.0
 40
1.0
 40
2.0
 40
2.0
 40
2.0
 40
3.0
 40
3.0
 40
3.0
 40
3.0
 10
209.9530310967978
 20
9.004478283283072
 10
214.2828330117165
 20
4.125009655518295
 10
221.9838509976483
 20
-0.5252199504091305
 10
209.9834469733414
 20
2.490097269270815
 10
208.0042249340609
 20
3.202318143808152
 10
198.1899809404934
 20
6.051791513068996
 10
202.0943963965911
 20
6.924979849314148
 10
204.7781474017018
 20
6.049000526268918
 10
208.3701374335818
 20
11.5500524674557
 10
209.9530310967978
 20
9.004478283283072
 97
        0
 72
     1
 10
209.9530310967978
 20
9.00447828328307
 11
209.9530310967978
 21
9.004478283283072
 97
        0
 92
        1
 93
        2
 72
     4
 94
        3
 73
     0
 74
     0
 95
       11
 96
        7
 40
0.0
 40
0.0
 40
0.0
 40
0.0
 40
1.0
 40
1.0
 40
1.0
 40
2.0
 40
2.0
 40
2.0
 40
2.0
 10
203.8908903580247
 20
16.72573394405892
 10
219.8305289309563
 20
-0.2297900702243444
 10
178.0255638334253
 20
12.70229868086325
 10
197.8174473933048
 20
13.4389420118045
 10
200.1994492245706
 20
13.65014721473252
 10
202.0987161575533
 20
16.45426173078029
 10
203.8908903580247
 20
16.72573394405892
 97
        0
 72
     1
 10
203.8908903580247
 20
16.72573394405892
 11
203.8908903580247
 21
16.72573394405892
 97
        0
 92
        1
 93
        2
 72
     4
 94
        3
 73
     0
 74
     0
 95
       14
 96
       10
 40
0.0
 40
0.0
 40
0.0
 40
0.0
 40
1.0
 40
1.0
 40
1.0
 40
2.0
 40
2.0
 40
2.0
 40
3.0
 40
3.0
 40
3.0
 40
3.0
 10
199.1760188042985
 20
24.92004427865314
 10
209.1759695273262
 20
15.02278173604165
 10
192.7863287715559
 20
9.97787916254215
 10
187.3908156610589
 20
16.36360859618626
 10
182.5083576406484
 20
21.65751949428227
 10
181.7340336864945
 20
21.08716027860443
 10
186.6002715035288
 20
21.23662798116245
 10
192.7740686219665
 20
21.25359514103613
 10
194.8658108137689
 20
23.24758469966004
 10
199.1760188042985
 20
24.92004427865314
 97
        0
 72
     1
 10
199.1760188042985
 20
24.92004427865314
 11
199.1760188042985
 21
24.92004427865314
 97
        0
 92
        1
 93
        2
 72
     4
 94
        3
 73
     0
 74
     0
 95
       14
 96
       10
 40
0.0
 40
0.0
 40
0.0
 40
0.0
 40
1.0
 40
1.0
 40
1.0
 40
2.0
 40
2.0
 40
2.0
 40
3.0
 40
3.0
 40
3.0
 40
3.0
 10
195.3399157473962
 20
34.64966141624895
 10
205.2622861213971
 20
20.77076125162857
 10
181.0764360235829
 20
16.72647462730305
 10
177.123111381252
 20
28.79339228725394
 10
175.8538535354344
 20
30.9182860454894
 10
173.91556829196
 20
31.57143297598268
 10
179.7000892273202
 20
31.42327071139753
 10
189.9863073973645
 20
30.39149152150622
 10
194.9536128519261
 20
37.82223507991085
 10
195.3399157473962
 20
34.64966141624895
 97
        0
 72
     1
 10
195.3399157473963
 20
34.64966141624894
 11
195.3399157473962
 21
34.64966141624895
 97
        0
 92
        1
 93
        2
 72
     4
 94
        3
 73
     0
 74
     0
 95
       11
 96
        7
 40
0.0
 40
0.0
 40
0.0
 40
0.0
 40
1.0
 40
1.0
 40
1.0
 40
2.0
 40
2.0
 40
2.0
 40
2.0
 10
192.5176935258796
 20
46.25993464739585
 10
201.5544104842466
 20
29.71983848649713
 10
170.8975211597023
 20
25.91991582456062
 10
170.2458279629713
 20
42.29927169335721
 10
178.2075408569421
 20
41.23433986008659
 10
185.8040410702771
 20
43.93829789676575
 10
192.5176935258796
 20
46.25993464739585
 97
        0
 72
     1
 10
192.5176935258796
 20
46.25993464739585
 11
192.5176935258796
 21
46.25993464739585
 97
        0
 92
        1
 93
        2
 72
     4
 94
        3
 73
     0
 74
     0
 95
       11
 96
        7
 40
0.0
 40
0.0
 40
0.0
 40
0.0
 40
1.0
 40
1.0
 40
1.0
 40
2.0
 40
2.0
 40
2.0
 40
2.0
 10
162.2708802043804
 20
49.94857685160607
 10
172.5807665128679
 20
34.70292300839497
 10
178.9335026073041
 20
18.81131298196009
 10
195.8418498393553
 20
7.902669864398141
 10
181.3956746852214
 20
13.29643988082966
 10
154.6334040187724
 20
39.19543634461576
 10
162.2708802043804
 20
49.94857685160607
 97
        0
 72
     1
 10
162.2708802043804
 20
49.94857685160607
 11
162.2708802043804
 21
49.94857685160607
 97
        0
 92
        1
 93
        2
 72
     4
 94
        3
 73
     0
 74
     0
 95
       11
 96
        7
 40
0.0
 40
0.0
 40
0.0
 40
0.0
 40
1.0
 40
1.0
 40
1.0
 40
2.0
 40
2.0
 40
2.0
 40
2.0
 10
167.9636528775177
 20
56.21707880994563
 10
171.0396634793036
 20
55.28785356509306
 10
169.2735136430114
 20
52.20884351394734
 10
168.5694092810045
 20
50.34433029830762
 10
165.8050093909665
 20
38.93786171959612
 10
157.5089048663772
 20
60.69737322953407
 10
167.9636528775177
 20
56.21707880994563
 97
        0
 72
     1
 10
167.9636528775177
 20
56.21707880994563
 11
167.9636528775177
 21
56.21707880994563
 97
        0
 92
        1
 93
        2
 72
     4
 94
        3
 73
     0
 74
     0
 95
       11
 96
        7
 40
0.0
 40
0.0
 40
0.0
 40
0.0
 40
1.0
 40
1.0
 40
1.0
 40
2.0
 40
2.0
 40
2.0
 40
2.0
 10
158.7649734008542
 20
56.85455066579756
 10
161.896540764086
 20
55.52085122470178
 10
161.6014230228255
 20
51.23080072783112
 10
159.5740862361513
 20
49.81945613489141
 10
158.3668788552642
 20
50.26126417149868
 10
156.4174485735852
 20
59.58709168082735
 10
158.7649734008542
 20
56.85455066579756
 97
        0
 72
     1
 10
158.7649734008542
 20
56.85455066579755
 11
158.7649734008542
 21
56.85455066579756
 97
        0
 92
        1
 93
        2
 72
     4
 94
        3
 73
     0
 74
     0
 95
       11
 96
        7
 40
0.0
 40
0.0
 40
0.0
 40
0.0
 40
1.0
 40
1.0
 40
1.0
 40
2.0
 40
2.0
 40
2.0
 40
2.0
 10
176.756640063023
 20
58.1968675260848
 10
177.6773287736098
 20
56.47515708155822
 10
176.5895639069442
 20
42.78300971513741
 10
172.8205786484983
 20
50.46820518176494
 10
169.1492399273866
 20
53.52154342806982
 10
173.7205291968984
 20
60.19334805392188
 10
176.756640063023
 20
58.1968675260848
 97
        0
 72
     1
 10
176.756640063023
 20
58.1968675260848
 11
176.756640063023
 21
58.1968675260848
 97
        0
 92
        1
 93
        2
 72
     4
 94
        3
 73
     0
 74
     0
 95
       17
 96
       13
 40
0.0
 40
0.0
 40
0.0
 40
0.0
 40
1.0
 40
1.0
 40
1.0
 40
2.0
 40
2.0
 40
2.0
 40
3.0
 40
3.0
 40
3.0
 40
4.0
 40
4.0
 40
4.0
 40
4.0
 10
191.8103723590642
 20
55.81385191524392
 10
198.8969716577086
 20
42.35776753777737
 10
163.7268434901823
 20
37.78663424597948
 10
168.8875647819749
 20
48.81627647838319
 10
171.1452488694538
 20
59.70932324616118
 10
172.8297703709577
 20
41.01124528713738
 10
176.7883360519253
 20
48.0553169859306
 10
178.3635203893358
 20
56.54389276239202
 10
178.0994104865666
 20
53.72671359635326
 10
185.2615575278086
 20
55.93714307862541
 10
188.4378807339207
 20
55.82973220696298
 10
192.4175079575447
 20
62.45138550269253
 10
191.8103723590642
 20
55.81385191524392
 97
        0
 72
     1
 10
191.8103723590642
 20
55.81385191524392
 11
191.8103723590642
 21
55.81385191524392
 97
        0
 92
        1
 93
        2
 72
     4
 94
        3
 73
     0
 74
     0
 95
       17
 96
       13
 40
0.0
 40
0.0
 40
0.0
 40
0.0
 40
1.0
 40
1.0
 40
1.0
 40
2.0
 40
2.0
 40
2.0
 40
3.0
 40
3.0
 40
3.0
 40
4.0
 40
4.0
 40
4.0
 40
4.0
 10
192.539214606739
 20
68.73540384954066
 10
193.3327535047082
 20
59.57885897089365
 10
188.1200940019981
 20
56.21583556342102
 10
178.8551992394869
 20
55.42635675571553
 10
176.9750449216924
 20
56.86855395387272
 10
180.9869768103722
 20
60.79044688625132
 10
180.4492666791279
 20
64.45749407693648
 10
180.5952138993436
 20
66.26172839782076
 10
180.6029761301088
 20
66.26808029262169
 10
182.7573881236565
 20
66.36932303619447
 10
186.2308257471411
 20
65.64577339440505
 10
190.5237265834362
 20
69.53216997980786
 10
192.539214606739
 20
68.73540384954066
 97
        0
 72
     1
 10
192.539214606739
 20
68.73540384954066
 11
192.539214606739
 21
68.73540384954066
 97
        0
 92
        1
 93
        2
 72
     4
 94
        3
 73
     0
 74
     0
 95
       11
 96
        7
 40
0.0
 40
0.0
 40
0.0
 40
0.0
 40
1.0
 40
1.0
 40
1.0
 40
2.0
 40
2.0
 40
2.0
 40
2.0
 10
225.7973374452401
 20
72.73167154873691
 10
231.1104123329539
 20
67.6018295747597
 10
230.6075480789689
 20
63.78484999568332
 10
222.4278342317296
 20
68.37036436092581
 10
218.8232611628653
 20
69.67202702054854
 10
224.384538724028
 20
74.34614345693423
 10
225.7973374452401
 20
72.73167154873691
 97
        0
 72
     1
 10
225.7973374452401
 20
72.73167154873691
 11
225.7973374452401
 21
72.73167154873691
 97
        0
 92
        1
 93
        2
 72
     4
 94
        3
 73
     0
 74
     0
 95
       11
 96
        7
 40
0.0
 40
0.0
 40
0.0
 40
0.0
 40
1.0
 40
1.0
 40
1.0
 40
2.0
 40
2.0
 40
2.0
 40
2.0
 10
152.5003471749355
 20
74.16641386133938
 10
153.3273714249533
 20
74.96719590373579
 10
156.9763350406427
 20
50.18341122679775
 10
155.6157848275034
 20
55.621334330521
 10
155.0254088026167
 20
58.12537625652584
 10
149.5314921019405
 20
75.60724217051968
 10
152.5003471749355
 20
74.16641386133938
 97
        0
 72
     1
 10
152.5003471749355
 20
74.16641386133938
 11
152.5003471749355
 21
74.16641386133938
 97
        0
 92
        1
 93
        2
 72
     4
 94
        3
 73
     0
 74
     0
 95
       11
 96
        7
 40
0.0
 40
0.0
 40
0.0
 40
0.0
 40
1.0
 40
1.0
 40
1.0
 40
2.0
 40
2.0
 40
2.0
 40
2.0
 10
231.3923878317537
 20
74.5103743477714
 10
232.2215816557688
 20
74.66665493906493
 10
238.0338456248672
 20
64.65829316712987
 10
232.3825363066708
 20
68.10884692889789
 10
228.6028253320346
 20
68.62525098133208
 10
224.8400228059374
 20
76.64160538125194
 10
231.3923878317537
 20
74.5103743477714
 97
        0
 72
     1
 10
231.3923878317537
 20
74.5103743477714
 11
231.3923878317537
 21
74.5103743477714
 97
        0
 92
        1
 93
        2
 72
     4
 94
        3
 73
     0
 74
     0
 95
       11
 96
        7
 40
0.0
 40
0.0
 40
0.0
 40
0.0
 40
1.0
 40
1.0
 40
1.0
 40
2.0
 40
2.0
 40
2.0
 40
2.0
 10
235.6162040877507
 20
75.34927663027652
 10
236.7523471472319
 20
74.56932757037151
 10
237.7894728369802
 20
72.6153134432258
 10
238.1732816945336
 20
71.23598014305939
 10
235.4254875346794
 20
68.92957098574824
 10
230.1476190355433
 20
77.21270719490246
 10
235.6162040877507
 20
75.34927663027652
 97
        0
 72
     1
 10
235.6162040877507
 20
75.34927663027651
 11
235.6162040877507
 21
75.34927663027652
 97
        0
 92
        1
 93
        2
 72
     4
 94
        3
 73
     0
 74
     0
 95
       11
 96
        7
 40
0.0
 40
0.0
 40
0.0
 40
0.0
 40
1.0
 40
1.0
 40
1.0
 40
2.0
 40
2.0
 40
2.0
 40
2.0
 10
193.5901409845144
 20
75.63150531198222
 10
194.9297498255558
 20
68.62862411376603
 10
179.3742034164645
 20
62.73133033406426
 10
179.6157117920115
 20
71.85866416389996
 10
177.6087979395334
 20
73.59945361306758
 10
192.3252368878894
 20
75.28758413268239
 10
193.5901409845144
 20
75.63150531198222
 97
        0
 72
     1
 10
193.5901409845144
 20
75.63150531198221
 11
193.5901409845144
 21
75.63150531198222
 97
        0
 92
        1
 93
        2
 72
     4
 94
        3
 73
     0
 74
     0
 95
       11
 96
        7
 40
0.0
 40
0.0
 40
0.0
 40
0.0
 40
1.0
 40
1.0
 40
1.0
 40
2.0
 40
2.0
 40
2.0
 40
2.0
 10
193.4631353862661
 20
77.79544514773139
 10
192.1726714048599
 20
76.83384171401456
 10
180.7735125775693
 20
73.01259991592833
 10
181.8363723159537
 20
75.70254288102699
 10
184.0113690813295
 20
78.75176106114065
 10
190.096825245466
 20
77.56268215209934
 10
193.4631353862661
 20
77.79544514773139
 97
        0
 72
     1
 10
193.4631353862661
 20
77.79544514773137
 11
193.4631353862661
 21
77.79544514773139
 97
        0
 92
        1
 93
        2
 72
     4
 94
        3
 73
     0
 74
     0
 95
       11
 96
        7
 40
0.0
 40
0.0
 40
0.0
 40
0.0
 40
1.0
 40
1.0
 40
1.0
 40
2.0
 40
2.0
 40
2.0
 40
2.0
 10
204.8405739922273
 20
86.5079947366177
 10
204.5349233901252
 20
81.42009467050327
 10
179.9369547941474
 20
72.85383647581432
 10
186.5859248521747
 20
82.78404252167469
 10
190.4501819362101
 20
84.17402150021095
 10
200.6309881335546
 20
83.83938212583855
 10
204.8405739922273
 20
86.5079947366177
 97
        0
 72
     1
 10
204.8405739922273
 20
86.5079947366177
 11
204.8405739922273
 21
86.5079947366177
 97
        0
 92
        1
 93
        2
 72
     4
 94
        3
 73
     0
 74
     0
 95
       14
 96
       10
 40
0.0
 40
0.0
 40
0.0
 40
0.0
 40
1.0
 40
1.0
 40
1.0
 40
2.0
 40
2.0
 40
2.0
 40
3.0
 40
3.0
 40
3.0
 40
3.0
 10
210.9171733661151
 20
97.11179408767227
 10
210.0626597163413
 20
87.71287902011446
 10
192.8041846752708
 20
81.07973109637873
 10
187.4326746397988
 20
85.60589576208419
 10
189.1679876049266
 20
88.15848885606566
 10
184.8449575115456
 20
94.38338751058974
 10
190.0827739674113
 20
93.13942848622501
 10
198.8056970668728
 20
91.97178133858441
 10
204.3970276859667
 20
95.22380079370551
 10
210.9171733661151
 20
97.11179408767227
 97
        0
 72
     1
 10
210.9171733661151
 20
97.11179408767229
 11
210.9171733661151
 21
97.11179408767227
 97
        0
 92
        1
 93
        2
 72
     4
 94
        3
 73
     0
 74
     0
 95
       11
 96
        7
 40
0.0
 40
0.0
 40
0.0
 40
0.0
 40
1.0
 40
1.0
 40
1.0
 40
2.0
 40
2.0
 40
2.0
 40
2.0
 10
211.9285888050441
 20
121.1825255201857
 10
204.7195122357033
 20
112.070278899816
 10
191.4298696538364
 20
112.0804720880604
 10
180.9336469731214
 20
111.7428814414852
 10
190.3582288774226
 20
110.27095177921
 10
209.111560193859
 20
112.3155082662387
 10
211.9285888050441
 20
121.1825255201857
 97
        0
 72
     1
 10
211.9285888050441
 20
121.1825255201857
 11
211.9285888050441
 21
121.1825255201857
 97
        0
 92
        1
 93
        2
 72
     4
 94
        3
 73
     0
 74
     0
 95
       29
 96
       25
 40
0.0
 40
0.0
 40
0.0
 40
0.0
 40
1.0
 40
1.0
 40
1.0
 40
2.0
 40
2.0
 40
2.0
 40
3.0
 40
3.0
 40
3.0
 40
4.0
 40
4.0
 40
4.0
 40
5.0
 40
5.0
 40
5.0
 40
6.0
 40
6.0
 40
6.0
 40
7.0
 40
7.0
 40
7.0
 40
8.0
 40
8.0
 40
8.0
 40
8.0
 10
215.7992612419562
 20
124.607994727093
 10
236.3421905175837
 20
115.1272102878811
 10
229.6149887303655
 20
85.19070897747637
 10
207.5715666541479
 20
83.15951351182999
 10
203.2131822733596
 20
81.82074053780665
 10
209.3780043969303
 20
80.06261570759987
 10
210.7995928665876
 20
81.49459328064097
 10
216.0835363960734
 20
81.26720097417777
 10
220.1952323171865
 20
88.13582988026569
 10
224.9569599536294
 20
84.58163422054928
 10
226.2020676377531
 20
83.51817052263156
 10
235.9730178831388
 20
77.96937867808286
 10
232.8842889865588
 20
76.34954793371868
 10
230.5765199111168
 20
75.29392229186534
 10
228.1217025643812
 20
77.44048379558276
 10
226.2837024303129
 20
74.20369755226258
 10
221.5269920775683
 20
75.57953015621563
 10
221.4612232223552
 20
71.05025656876043
 10
219.014170359967
 20
70.73312121720609
 10
213.6489976990401
 20
74.29392723901774
 10
208.7557688430015
 20
78.18509404754099
 10
203.5707114538388
 20
81.70426396802024
 10
215.1636471864831
 20
90.36100137651077
 10
217.4692920639767
 20
113.8706488822394
 10
215.7992612419562
 20
124.607994727093
 97
        0
 72
     1
 10
215.7992612419562
 20
124.607994727093
 11
215.7992612419562
 21
124.607994727093
 97
        0
 92
        1
 93
        2
 72
     4
 94
        3
 73
     0
 74
     0
 95
       11
 96
        7
 40
0.0
 40
0.0
 40
0.0
 40
0.0
 40
1.0
 40
1.0
 40
1.0
 40
2.0
 40
2.0
 40
2.0
 40
2.0
 10
133.9054281444145
 20
127.4090511432222
 10
134.0465020392156
 20
125.9636003890073
 10
132.9721480960355
 20
120.4792483058404
 10
130.8525605401317
 20
124.3533456139901
 10
128.354508558941
 20
126.6254133408759
 10
132.8745540251708
 20
127.6519118571093
 10
133.9054281444145
 20
127.4090511432222
 97
        0
 72
     1
 10
133.9054281444145
 20
127.4090511432222
 11
133.9054281444145
 21
127.4090511432222
 97
        0
 92
        1
 93
        2
 72
     4
 94
        3
 73
     0
 74
     0
 95
       11
 96
        7
 40
0.0
 40
0.0
 40
0.0
 40
0.0
 40
1.0
 40
1.0
 40
1.0
 40
2.0
 40
2.0
 40
2.0
 40
2.0
 10
124.8806667771774
 20
127.7681808157127
 10
129.1170527574
 20
127.7159361323611
 10
124.4997706735212
 20
122.730649479415
 10
123.6844712651247
 20
124.8187263410558
 10
123.5915380206768
 20
126.1496698804255
 10
121.4852787648222
 20
129.7274445664093
 10
124.8806667771774
 20
127.7681808157127
 97
        0
 72
     1
 10
124.8806667771774
 20
127.7681808157127
 11
124.8806667771774
 21
127.7681808157127
 97
        0
 92
        1
 93
        2
 72
     4
 94
        3
 73
     0
 74
     0
 95
       11
 96
        7
 40
0.0
 40
0.0
 40
0.0
 40
0.0
 40
1.0
 40
1.0
 40
1.0
 40
2.0
 40
2.0
 40
2.0
 40
2.0
 10
119.781971214182
 20
132.2805561163695
 10
120.5168945881841
 20
131.6317950221805
 10
120.0970968146663
 20
130.3662660274966
 10
118.894197549642
 20
130.5627604535447
 10
117.2751068676903
 20
131.1015321762189
 10
118.953993458368
 20
134.6530681826829
 10
119.781971214182
 20
132.2805561163695
 97
        0
 72
     1
 10
119.781971214182
 20
132.2805561163695
 11
119.781971214182
 21
132.2805561163695
 97
        0
 92
        1
 93
        2
 72
     4
 94
        3
 73
     0
 74
     0
 95
       11
 96
        7
 40
0.0
 40
0.0
 40
0.0
 40
0.0
 40
1.0
 40
1.0
 40
1.0
 40
2.0
 40
2.0
 40
2.0
 40
2.0
 10
171.5154225146913
 20
141.2837964027472
 10
171.3590043185666
 20
140.8816621682847
 10
173.7212039912706
 20
140.6644818090818
 10
174.4635609162071
 20
141.0136199849983
 10
173.753847948497
 20
141.2854502275015
 10
171.7062606619545
 20
141.471840395178
 10
171.5154225146913
 20
141.2837964027472
 97
        0
 72
     1
 10
171.5154225146913
 20
141.2837964027472
 11
171.5154225146913
 21
141.2837964027472
 97
        0
 92
        1
 93
        2
 72
     4
 94
        3
 73
     0
 74
     0
 95
       11
 96
        7
 40
0.0
 40
0.0
 40
0.0
 40
0.0
 40
1.0
 40
1.0
 40
1.0
 40
2.0
 40
2.0
 40
2.0
 40
2.0
 10
169.0308088848057
 20
141.9812452178126
 10
168.933228232597
 20
141.6798230262227
 10
171.9272574562688
 20
141.2478510968766
 10
170.7087850772922
 20
142.0174434913023
 10
170.0591537382678
 20
142.1470512039637
 10
169.0308088848057
 20
142.1251748476323
 10
169.0308088848057
 20
141.9812452178126
 97
        0
 72
     1
 10
169.0308088848058
 20
141.9812452178126
 11
169.0308088848057
 21
141.9812452178126
 97
        0
 92
        1
 93
        2
 72
     4
 94
        3
 73
     0
 74
     0
 95
       11
 96
        7
 40
0.0
 40
0.0
 40
0.0
 40
0.0
 40
1.0
 40
1.0
 40
1.0
 40
2.0
 40
2.0
 40
2.0
 40
2.0
 10
198.2182284297821
 20
145.2426740500051
 10
191.9697445439377
 20
139.7341958189629
 10
184.0689598160209
 20
140.4063304585437
 10
174.6752081157856
 20
140.4487705145152
 10
180.9213832878454
 20
138.684711520697
 10
196.2180705722082
 20
139.5209864331122
 10
198.2182284297821
 20
145.2426740500051
 97
        0
 72
     1
 10
198.2182284297822
 20
145.2426740500051
 11
198.2182284297821
 21
145.2426740500051
 97
        0
 92
        1
 93
        2
 72
     4
 94
        3
 73
     0
 74
     0
 95
       11
 96
        7
 40
0.0
 40
0.0
 40
0.0
 40
0.0
 40
1.0
 40
1.0
 40
1.0
 40
2.0
 40
2.0
 40
2.0
 40
2.0
 10
152.3895712061997
 20
147.4874013748834
 10
152.1243027407737
 20
146.3853135288685
 10
151.1107254369654
 20
146.978507172669
 10
150.8896876571692
 20
147.568945516686
 10
151.1045988241733
 20
148.750156057221
 10
153.5096634102185
 20
149.482487907053
 10
152.3895712061997
 20
147.4874013748834
 97
        0
 72
     1
 10
152.3895712061997
 20
147.4874013748834
 11
152.3895712061997
 21
147.4874013748834
 97
        0
 92
        1
 93
        2
 72
     4
 94
        3
 73
     0
 74
     0
 95
       74
 96
       70
 40
0.0
 40
0.0
 40
0.0
 40
0.0
 40
1.0
 40
1.0
 40
1.0
 40
2.0
 40
2.0
 40
2.0
 40
3.0
 40
3.0
 40
3.0
 40
4.0
 40
4.0
 40
4.0
 40
5.0
 40
5.0
 40
5.0
 40
6.0
 40
6.0
 40
6.0
 40
7.0
 40
7.0
 40
7.0
 40
8.0
 40
8.0
 40
8.0
 40
9.0
 40
9.0
 40
9.0
 40
10.0
 40
10.0
 40
10.0
 40
11.0
 40
11.0
 40
11.0
 40
12.0
 40
12.0
 40
12.0
 40
13.0
 40
13.0
 40
13.0
 40
14.0
 40
14.0
 40
14.0
 40
15.0
 40
15.0
 40
15.0
 40
16.0
 40
16.0
 40
16.0
 40
17.0
 40
17.0
 40
17.0
 40
18.0
 40
18.0
 40
18.0
 40
19.0
 40
19.0
 40
19.0
 40
20.0
 40
20.0
 40
20.0
 40
21.0
 40
21.0
 40
21.0
 40
22.0
 40
22.0
 40
22.0
 40
23.0
 40
23.0
 40
23.0
 40
23.0
 10
193.4539628195365
 20
160.5807451487368
 10
201.6876687862357
 20
146.2118821563605
 10
170.7026650417465
 20
151.8580294663399
 10
171.0209691464063
 20
151.8446087894371
 10
177.3908174756827
 20
148.9489815231969
 10
188.0087282751135
 20
147.9761808275424
 10
194.2113908868449
 20
153.0416853877752
 10
195.9161073654756
 20
156.3973677844605
 10
198.78801218311
 20
147.6932893595799
 10
199.0181383848317
 20
145.7820909781619
 10
215.7468843775138
 20
132.9221912326708
 10
179.6015709977882
 20
128.2979525264491
 10
170.5832005395515
 20
131.7513194728514
 10
181.1502259292882
 20
128.2597654375018
 10
198.6131565381375
 20
128.6658289363122
 10
204.8538917620597
 20
139.6777057536308
 10
219.3907580609672
 20
123.1030092214116
 10
183.0364006211014
 20
119.0136919792399
 10
172.8071908782608
 20
122.4117036299488
 10
206.2294004973604
 20
111.4123914382945
 10
212.0722001936655
 20
146.169378175307
 10
212.7491068084651
 20
121.5908943463279
 10
223.8636134845882
 20
107.6813171635195
 10
198.0979381901305
 20
101.3449908552594
 10
186.0863299961767
 20
101.4287264407952
 10
208.0309607427081
 20
98.41845790718014
 10
216.6355258405795
 20
115.2251085958279
 10
214.4111242389817
 20
107.3424664292421
 10
215.3061590850645
 20
94.49194899789693
 10
185.2520161377071
 20
86.68989984651968
 10
185.4678858224763
 20
101.3228030998026
 10
186.3595779698197
 20
101.6604447617196
 10
185.2721599513597
 20
101.8857171931783
 10
185.1174083510183
 20
102.1801785989822
 10
183.808420543696
 20
102.6964481729037
 10
182.6671439168837
 20
105.9114256641492
 10
182.3662703934727
 20
106.1226696408754
 10
181.8735938801684
 20
108.0973611467362
 10
176.7101657317006
 20
111.9351611686012
 10
180.2491379089651
 20
112.5842669740222
 10
177.0965420774452
 20
112.0702807209527
 10
169.3044337566863
 20
120.6796184969738
 10
171.3835970958653
 20
122.4938074444363
 10
173.2137927668172
 20
122.9334462814682
 10
168.9797064326696
 20
123.3778415028033
 10
169.5961711973498
 20
124.6762391876933
 10
169.6805584923331
 20
126.4127746663859
 10
166.3371106301384
 20
132.1441239449907
 10
169.3916727419183
 20
132.087060452002
 10
171.02823218346
 20
132.0868879204815
 10
170.7594178423
 20
132.4139136094189
 10
168.8745253578944
 20
132.7158869946244
 10
167.903568249525
 20
131.6422202167639
 10
166.6269590140226
 20
140.6566356968979
 10
167.9755061307357
 20
142.2012326695696
 10
169.0562742508009
 20
143.4176704111106
 10
166.7396298416628
 20
141.8243601941989
 10
167.9534179911269
 20
149.4004750600774
 10
167.5104158968442
 20
153.88747701757
 10
170.1926277223826
 20
151.9912202384856
 10
169.2486112208504
 20
153.1899778908017
 10
168.3218498109184
 20
152.2704943944178
 10
168.1891872721171
 20
160.6344025080607
 10
170.3886676728688
 20
160.2449249712197
 10
174.5177904333999
 20
158.4306355307753
 10
182.4653066816262
 20
157.4278106545411
 10
187.0930430907492
 20
158.588913160917
 10
189.1282839630395
 20
158.2763732030621
 10
193.1034031908481
 20
163.0656341760883
 10
193.4539628195365
 20
160.5807451487368
 97
        0
 72
     1
 10
193.4539628195365
 20
160.5807451487368
 11
193.4539628195365
 21
160.5807451487368
 97
        0
 92
        1
 93
        2
 72
     4
 94
        3
 73
     0
 74
     0
 95
       14
 96
       10
 40
0.0
 40
0.0
 40
0.0
 40
0.0
 40
1.0
 40
1.0
 40
1.0
 40
2.0
 40
2.0
 40
2.0
 40
3.0
 40
3.0
 40
3.0
 40
3.0
 10
171.7383740222039
 20
165.8152609097572
 10
177.0390520691505
 20
163.8687316272354
 10
184.5604420385752
 20
160.7055979417384
 10
190.2950808281062
 20
163.2052282834601
 10
196.8754939399646
 20
164.5683021946546
 10
188.1214700843744
 20
158.956704167378
 10
185.9639344919199
 20
159.2716097413955
 10
181.6852098948826
 20
157.992609110386
 10
163.1878623990178
 20
159.8103989435737
 10
171.7383740222039
 20
165.8152609097572
 97
        0
 72
     1
 10
171.7383740222039
 20
165.8152609097572
 11
171.7383740222039
 21
165.8152609097572
 97
        0
 92
        1
 93
        2
 72
     4
 94
        3
 73
     0
 74
     0
 95
       11
 96
        7
 40
0.0
 40
0.0
 40
0.0
 40
0.0
 40
1.0
 40
1.0
 40
1.0
 40
2.0
 40
2.0
 40
2.0
 40
2.0
 10
189.5180219720641
 20
169.2576649141592
 10
188.5062566406248
 20
168.5492886868515
 10
190.2200516875325
 20
167.1974439843628
 10
191.6692634011731
 20
167.5611599402181
 10
192.9886972107189
 20
168.2013688953084
 10
190.4867400578481
 20
169.9903231933369
 10
189.5180219720641
 20
169.2576649141592
 97
        0
 72
     1
 10
189.518021972064
 20
169.2576649141592
 11
189.5180219720641
 21
169.2576649141592
 97
        0
 92
        1
 93
        2
 72
     4
 94
        3
 73
     0
 74
     0
 95
       11
 96
        7
 40
0.0
 40
0.0
 40
0.0
 40
0.0
 40
1.0
 40
1.0
 40
1.0
 40
2.0
 40
2.0
 40
2.0
 40
2.0
 10
230.6095760101178
 20
171.2804957920172
 10
231.2107917626826
 20
171.3995423621449
 10
231.5679515627144
 20
160.6693112256884
 10
230.8378573213916
 20
165.2487375918392
 10
230.9291119400863
 20
166.5965464935781
 10
228.1457286017468
 20
172.8285403259688
 10
230.6095760101178
 20
171.2804957920172
 97
        0
 72
     1
 10
230.6095760101178
 20
171.2804957920172
 11
230.6095760101178
 21
171.2804957920172
 97
        0
 92
        1
 93
        2
 72
     4
 94
        3
 73
     0
 74
     0
 95
       11
 96
        7
 40
0.0
 40
0.0
 40
0.0
 40
0.0
 40
1.0
 40
1.0
 40
1.0
 40
2.0
 40
2.0
 40
2.0
 40
2.0
 10
195.7748913501792
 20
172.0283829581714
 10
195.2884115698917
 20
171.0871721056778
 10
195.8168676854823
 20
169.7067546425083
 10
196.4924401442164
 20
170.1537234839493
 10
197.4825375402907
 20
170.7040346470257
 10
197.0911462310736
 20
173.505459251439
 10
195.7748913501792
 20
172.0283829581714
 97
        0
 72
     1
 10
195.7748913501792
 20
172.0283829581714
 11
195.7748913501792
 21
172.0283829581714
 97
        0
 92
        1
 93
        2
 72
     4
 94
        3
 73
     0
 74
     0
 95
       17
 96
       13
 40
0.0
 40
0.0
 40
0.0
 40
0.0
 40
1.0
 40
1.0
 40
1.0
 40
2.0
 40
2.0
 40
2.0
 40
3.0
 40
3.0
 40
3.0
 40
4.0
 40
4.0
 40
4.0
 40
4.0
 10
222.9352490094051
 20
172.6909017347934
 10
227.6370258100305
 20
172.4010816713103
 10
228.9432392742603
 20
170.709260144947
 10
229.0515492298039
 20
166.3002120408498
 10
226.139910134743
 20
167.5803910806504
 10
222.8457766546608
 20
172.5386581723046
 10
219.6558005846215
 20
172.4082691957901
 10
204.6752544956894
 20
160.4324756631747
 10
206.1163516876777
 20
174.5098442643876
 10
195.7156897364802
 20
161.1883262712667
 10
192.6932780464223
 20
167.6678197912268
 10
215.9688707669779
 20
175.2432255454244
 10
222.9352490094051
 20
172.6909017347934
 97
        0
 72
     1
 10
222.9352490094051
 20
172.6909017347934
 11
222.9352490094051
 21
172.6909017347934
 97
        0
 92
        1
 93
        2
 72
     4
 94
        3
 73
     0
 74
     0
 95
       11
 96
        7
 40
0.0
 40
0.0
 40
0.0
 40
0.0
 40
1.0
 40
1.0
 40
1.0
 40
2.0
 40
2.0
 40
2.0
 40
2.0
 10
237.8930246302587
 20
175.4785491933386
 10
241.2357368719679
 20
172.3177285653614
 10
234.0160683836634
 20
173.1080396564997
 10
235.7762009052153
 20
174.7951282907157
 10
236.3123043740078
 20
175.5916702134545
 10
236.9803547065229
 20
176.5936694956351
 10
237.8930246302587
 20
175.4785491933386
 97
        0
 72
     1
 10
237.8930246302587
 20
175.4785491933386
 11
237.8930246302587
 21
175.4785491933386
 97
        0
 92
        1
 93
        2
 72
     4
 94
        3
 73
     0
 74
     0
 95
       11
 96
        7
 40
0.0
 40
0.0
 40
0.0
 40
0.0
 40
1.0
 40
1.0
 40
1.0
 40
2.0
 40
2.0
 40
2.0
 40
2.0
 10
238.9905243926254
 20
182.3577158582855
 10
244.4935075069047
 20
179.5105680133473
 10
237.030931871907
 20
176.9351817032988
 10
237.7516976644781
 20
181.0896741690781
 10
237.7519156723676
 20
182.8636012154859
 10
237.9021971969882
 20
183.0174139629789
 10
238.9905243926254
 20
182.3577158582855
 97
        0
 72
     1
 10
238.9905243926254
 20
182.3577158582855
 11
238.9905243926254
 21
182.3577158582855
 97
        0
 92
        1
 93
        2
 72
     4
 94
        3
 73
     0
 74
     0
 95
       11
 96
        7
 40
0.0
 40
0.0
 40
0.0
 40
0.0
 40
1.0
 40
1.0
 40
1.0
 40
2.0
 40
2.0
 40
2.0
 40
2.0
 10
125.8793811179854
 20
187.4430105381393
 10
121.0560820364836
 20
180.5291019260396
 10
117.2424967556782
 20
155.6848340484842
 10
120.7771937533247
 20
151.9590276129276
 10
118.7652534324683
 20
163.0696458850914
 10
125.2452460332041
 20
177.981858134692
 10
125.8793811179854
 20
187.4430105381393
 97
        0
 72
     1
 10
125.8793811179854
 20
187.4430105381393
 11
125.8793811179854
 21
187.4430105381393
 97
        0
 92
        1
 93
        2
 72
     4
 94
        3
 73
     0
 74
     0
 95
       11
 96
        7
 40
0.0
 40
0.0
 40
0.0
 40
0.0
 40
1.0
 40
1.0
 40
1.0
 40
2.0
 40
2.0
 40
2.0
 40
2.0
 10
236.1361981875556
 20
187.9767634880384
 10
237.0861011227143
 20
187.6868465258132
 10
239.1602891688176
 20
186.9326363827914
 10
237.0814585152604
 20
186.0363389051464
 10
236.0817605670916
 20
185.4719113590609
 10
234.3611578987349
 20
188.5222168258738
 10
236.1361981875556
 20
187.9767634880384
 97
        0
 72
     1
 10
236.1361981875556
 20
187.9767634880384
 11
236.1361981875556
 21
187.9767634880384
 97
        0
 92
        1
 93
        2
 72
     4
 94
        3
 73
     0
 74
     0
 95
       11
 96
        7
 40
0.0
 40
0.0
 40
0.0
 40
0.0
 40
1.0
 40
1.0
 40
1.0
 40
2.0
 40
2.0
 40
2.0
 40
2.0
 10
167.3374744753034
 20
188.7429957876516
 10
166.8581664357445
 20
187.9985366630972
 10
168.3106208035372
 20
188.2098303495978
 10
168.3252147932621
 20
188.773392710332
 10
168.3252533294266
 20
189.0269793148701
 10
167.5533743029947
 20
189.0033427300642
 10
167.3374744753034
 20
188.7429957876516
 97
        0
 72
     1
 10
167.3374744753034
 20
188.7429957876516
 11
167.3374744753034
 21
188.7429957876516
 97
        0
 92
        1
 93
        2
 72
     4
 94
        3
 73
     0
 74
     0
 95
       17
 96
       13
 40
0.0
 40
0.0
 40
0.0
 40
0.0
 40
1.0
 40
1.0
 40
1.0
 40
2.0
 40
2.0
 40
2.0
 40
3.0
 40
3.0
 40
3.0
 40
4.0
 40
4.0
 40
4.0
 40
4.0
 10
127.6669065912391
 20
188.8724667823566
 10
133.9386983671503
 20
180.8134113819906
 10
139.1947731111518
 20
169.6688695926215
 10
149.5134617613383
 20
165.8128337253047
 10
151.8632890525157
 20
164.5626865383948
 10
147.8180716961546
 20
164.1601746506891
 10
146.6165865021952
 20
163.7482106216849
 10
128.8665297031777
 20
160.9009833594515
 10
115.5256186543778
 20
145.7061612533692
 10
106.6255526154433
 20
131.4669542702008
 10
104.1030627753723
 20
149.161573668026
 10
111.5267208625535
 20
179.945502466007
 10
127.6669065912391
 20
188.8724667823566
 97
        0
 72
     1
 10
127.6669065912391
 20
188.8724667823566
 11
127.6669065912391
 21
188.8724667823566
 97
        0
 92
        1
 93
        2
 72
     4
 94
        3
 73
     0
 74
     0
 95
       17
 96
       13
 40
0.0
 40
0.0
 40
0.0
 40
0.0
 40
1.0
 40
1.0
 40
1.0
 40
2.0
 40
2.0
 40
2.0
 40
3.0
 40
3.0
 40
3.0
 40
4.0
 40
4.0
 40
4.0
 40
4.0
 10
168.3083185319319
 20
190.5862564463027
 10
168.7481270787649
 20
187.9550070663866
 10
170.5048636464305
 20
188.4828892742054
 10
170.0521014458827
 20
186.5606342561818
 10
167.9616558022102
 20
183.3165960234355
 10
167.2252560725042
 20
188.8848485909739
 10
166.670383709612
 20
187.7205717876119
 10
166.4287174988732
 20
186.8570428597919
 10
166.5631246694532
 20
183.7032140489348
 10
166.8703948889673
 20
183.0279968656727
 10
167.4208446318124
 20
175.4203148658181
 10
160.6199890997799
 20
194.2239941191781
 10
168.3083185319319
 20
190.5862564463027
 97
        0
 72
     1
 10
168.3083185319319
 20
190.5862564463027
 11
168.3083185319319
 21
190.5862564463027
 97
        0
 92
        1
 93
        2
 72
     4
 94
        3
 73
     0
 74
     0
 95
       17
 96
       13
 40
0.0
 40
0.0
 40
0.0
 40
0.0
 40
1.0
 40
1.0
 40
1.0
 40
2.0
 40
2.0
 40
2.0
 40
3.0
 40
3.0
 40
3.0
 40
4.0
 40
4.0
 40
4.0
 40
4.0
 10
222.0885844961347
 20
191.5775665232982
 10
231.5353490996509
 20
191.8039158903456
 10
242.3858091578091
 20
182.0772527667102
 10
232.6505275626649
 20
174.616143153353
 10
222.5750991092257
 20
173.2282205386798
 10
209.1865136060085
 20
176.6893193872211
 10
200.0796757470648
 20
170.0952265712125
 10
203.8934681619442
 20
175.439849147001
 10
198.8315384707564
 20
181.0275789367715
 10
200.4357021389828
 20
184.0160482486711
 10
206.767888397879
 20
188.196731660721
 10
214.1370417448812
 20
192.1086352224181
 10
222.0885844961347
 20
191.5775665232982
 97
        0
 72
     1
 10
222.0885844961347
 20
191.5775665232982
 11
222.0885844961347
 21
191.5775665232982
 97
        0
 92
        1
 93
        2
 72
     4
 94
        3
 73
     0
 74
     0
 95
       11
 96
        7
 40
0.0
 40
0.0
 40
0.0
 40
0.0
 40
1.0
 40
1.0
 40
1.0
 40
2.0
 40
2.0
 40
2.0
 40
2.0
 10
165.4197728393625
 20
192.3857805411761
 10
158.7443191227611
 20
187.656181245773
 10
167.1151549437977
 20
174.181943208044
 10
173.7813478977965
 20
179.7514092539314
 10
173.7574648793209
 20
184.549015789752
 10
171.3938374461005
 20
192.7717254421797
 10
165.4197728393625
 20
192.3857805411761
 97
        0
 72
     1
 10
165.4197728393625
 20
192.3857805411761
 11
165.4197728393625
 21
192.3857805411761
 97
        0
 92
        1
 93
        2
 72
     4
 94
        3
 73
     0
 74
     0
 95
       20
 96
       16
 40
0.0
 40
0.0
 40
0.0
 40
0.0
 40
1.0
 40
1.0
 40
1.0
 40
2.0
 40
2.0
 40
2.0
 40
3.0
 40
3.0
 40
3.0
 40
4.0
 40
4.0
 40
4.0
 40
5.0
 40
5.0
 40
5.0
 40
5.0
 10
130.0629731927112
 20
195.2909030642875
 10
131.6988765483128
 20
185.1265101993328
 10
140.12131433745
 20
177.0116539167978
 10
148.0461192201938
 20
170.186781744356
 10
149.2863065214131
 20
169.1497831036713
 10
157.02474380799
 20
165.60777128413
 10
151.3565639637093
 20
167.1564497851317
 10
128.3552392940578
 20
175.8780638777235
 10
132.1198368027254
 20
211.7465735621953
 10
113.2108153485207
 20
173.2209913093388
 10
105.2288845264351
 20
160.0318082726307
 10
103.5326585816207
 20
142.4078835837009
 10
105.1191891067932
 20
127.5068660782852
 10
99.03945890888085
 20
150.5529121262676
 10
109.3073384436148
 20
183.5458425417063
 10
130.0629731927112
 20
195.2909030642875
 97
        0
 72
     1
 10
130.0629731927112
 20
195.2909030642875
 11
130.0629731927112
 21
195.2909030642875
 97
        0
 92
        1
 93
        2
 72
     4
 94
        3
 73
     0
 74
     0
 95
       17
 96
       13
 40
0.0
 40
0.0
 40
0.0
 40
0.0
 40
1.0
 40
1.0
 40
1.0
 40
2.0
 40
2.0
 40
2.0
 40
3.0
 40
3.0
 40
3.0
 40
4.0
 40
4.0
 40
4.0
 40
4.0
 10
154.9196977772224
 20
197.2865661344673
 10
150.7388079902878
 20
189.3430591873534
 10
163.0117475442541
 20
159.9300417283239
 10
149.4170213729232
 20
172.385729002031
 10
143.3315584999147
 20
177.0722316384676
 10
137.5850286480684
 20
183.6294678219525
 10
133.9653482664158
 20
190.2252361167923
 10
130.2518125425657
 20
199.0975769602045
 10
135.3229705388391
 20
192.4661315807412
 10
138.3140418056763
 20
195.0213997166471
 10
143.8523015202021
 20
193.918971785444
 10
151.1742890047695
 20
199.9231366096102
 10
154.9196977772224
 20
197.2865661344673
 97
        0
 72
     1
 10
154.9196977772224
 20
197.2865661344672
 11
154.9196977772224
 21
197.2865661344673
 97
        0
 92
        1
 93
        2
 72
     4
 94
        3
 73
     0
 74
     0
 95
       14
 96
       10
 40
0.0
 40
0.0
 40
0.0
 40
0.0
 40
1.0
 40
1.0
 40
1.0
 40
2.0
 40
2.0
 40
2.0
 40
3.0
 40
3.0
 40
3.0
 40
3.0
 10
189.9339472734059
 20
198.0432759748407
 10
191.2445879589421
 20
196.8541944281263
 10
190.4439057603794
 20
194.8493516552837
 10
190.1931185588233
 20
193.3229915726535
 10
188.2396873798922
 20
193.1455895046839
 10
189.003649219331
 20
195.8846984337008
 10
189.3454061459589
 20
196.5742707490617
 10
188.2412541988564
 20
196.7782177932334
 10
188.4286814266621
 20
199.200288276759
 10
189.9339472734059
 20
198.0432759748407
 97
        0
 72
     1
 10
189.9339472734059
 20
198.0432759748407
 11
189.9339472734059
 21
198.0432759748407
 97
        0
 92
        1
 93
        2
 72
     4
 94
        3
 73
     0
 74
     0
 95
       68
 96
       64
 40
0.0
 40
0.0
 40
0.0
 40
0.0
 40
1.0
 40
1.0
 40
1.0
 40
2.0
 40
2.0
 40
2.0
 40
3.0
 40
3.0
 40
3.0
 40
4.0
 40
4.0
 40
4.0
 40
5.0
 40
5.0
 40
5.0
 40
6.0
 40
6.0
 40
6.0
 40
7.0
 40
7.0
 40
7.0
 40
8.0
 40
8.0
 40
8.0
 40
9.0
 40
9.0
 40
9.0
 40
10.0
 40
10.0
 40
10.0
 40
11.0
 40
11.0
 40
11.0
 40
12.0
 40
12.0
 40
12.0
 40
13.0
 40
13.0
 40
13.0
 40
14.0
 40
14.0
 40
14.0
 40
15.0
 40
15.0
 40
15.0
 40
16.0
 40
16.0
 40
16.0
 40
17.0
 40
17.0
 40
17.0
 40
18.0
 40
18.0
 40
18.0
 40
19.0
 40
19.0
 40
19.0
 40
20.0
 40
20.0
 40
20.0
 40
21.0
 40
21.0
 40
21.0
 40
21.0
 10
176.9330289518677
 20
209.4799782975905
 10
185.8439164441504
 20
208.5375226158803
 10
181.9614660956196
 20
202.7545443602164
 10
185.9614661581556
 20
202.9751249190069
 10
190.5366440736116
 20
203.4975994853846
 10
185.7175026802288
 20
192.2715165483355
 10
190.4104673327407
 20
187.5697962000108
 10
207.7989098255029
 20
181.8866907278405
 10
196.075138160124
 20
159.17904777627
 10
179.8209365124606
 20
164.685012854021
 10
174.693243744677
 20
164.6198821662448
 10
171.9487174024982
 20
174.5892480091442
 10
171.073032523869
 20
171.4387506039837
 10
170.8141298747647
 20
169.6531526247944
 10
173.0158112011103
 20
166.3311443249034
 10
170.0603550646954
 20
168.620790773648
 10
168.0886038735155
 20
168.8037962337998
 10
165.6613428673024
 20
176.5333789777368
 10
165.2104043790236
 20
172.5376140526464
 10
165.100671797056
 20
168.1947709147207
 10
169.2961303669739
 20
167.9445609535304
 10
168.5371143689014
 20
164.7017890096983
 10
152.7793049487884
 20
111.446535896235
 10
203.0420747050949
 20
103.6742737808146
 10
179.3692775371912
 20
75.77274002327029
 10
176.792584611902
 20
73.79423283016151
 10
169.8132175525974
 20
69.48693274828473
 10
177.9035569161902
 20
71.48994203736404
 10
181.3261742037915
 20
61.82327401675314
 10
176.357678854661
 20
59.65793605572667
 10
169.700222547559
 20
56.4755522895757
 10
166.7256622801983
 20
60.22318307262216
 10
161.5910903832044
 20
54.47520857624278
 10
159.7826248578232
 20
58.47900958608592
 10
158.2419445577966
 20
60.4501911356645
 10
154.4457399538904
 20
70.11524551331159
 10
156.7068389112923
 20
71.48388663213427
 10
160.8071518406623
 20
68.84705663209905
 10
165.1551796103136
 20
70.63707496004844
 10
158.7300127432464
 20
73.10242760218478
 10
129.9256179560538
 20
89.78960151583997
 10
151.0377747241748
 20
124.4877404894763
 10
154.915101685965
 20
149.1171096083517
 10
166.932745463807
 20
154.2734763335384
 10
152.465251734284
 20
152.456842919014
 10
149.5574992556041
 20
149.2319787218554
 10
139.9955446229702
 20
145.111328540396
 10
137.313019701087
 20
123.4408147329874
 10
124.8701285963057
 20
129.8677110908519
 10
100.439352495822
 20
161.0732363701107
 10
167.9061305898141
 20
154.891369289843
 10
158.3917209156964
 20
178.7225280584066
 10
158.2647653889032
 20
185.576711507585
 10
152.8946470638287
 20
200.3077659308121
 10
163.8923405790316
 20
196.9936624789767
 10
167.6521189623346
 20
200.1273522715317
 10
160.2989426356045
 20
201.1365385211097
 10
160.6299511119402
 20
203.0650914204054
 10
165.04975573587
 20
207.9529189061111
 10
162.874160704141
 20
204.5723121417736
 10
168.0445092513633
 20
204.7836160467305
 10
174.7362049541106
 20
204.4783413065828
 10
171.4391050666633
 20
210.912449755205
 10
176.9330289518677
 20
209.4799782975905
 97
        0
 72
     1
 10
176.9330289518677
 20
209.4799782975905
 11
176.9330289518677
 21
209.4799782975905
 97
        0
 92
        1
 93
        2
 72
     4
 94
        3
 73
     0
 74
     0
 95
       23
 96
       19
 40
0.0
 40
0.0
 40
0.0
 40
0.0
 40
1.0
 40
1.0
 40
1.0
 40
2.0
 40
2.0
 40
2.0
 40
3.0
 40
3.0
 40
3.0
 40
4.0
 40
4.0
 40
4.0
 40
5.0
 40
5.0
 40
5.0
 40
6.0
 40
6.0
 40
6.0
 40
6.0
 10
200.9268593935961
 20
209.7057558599934
 10
206.0206981978378
 20
207.5682156475754
 10
226.3755651795212
 20
192.5471941699923
 10
212.7760102164947
 20
191.9192391229989
 10
206.9091405113081
 20
188.9241750727121
 10
207.6279530703908
 20
200.0646924435735
 10
204.5219028125164
 20
202.8530227619718
 10
195.5910247227663
 20
215.635594794685
 10
205.2352838854011
 20
198.8264853559803
 10
206.7084334329754
 20
195.4301283281285
 10
210.8068879419813
 20
188.5870105387199
 10
205.2332095088188
 20
189.8902906431978
 10
200.7322106685933
 20
185.9887316138937
 10
192.6166094699383
 20
181.6298520696737
 10
198.1258645052825
 20
193.9650800336096
 10
198.2436293559756
 20
198.0160087129257
 10
199.2772125727413
 20
200.4690308258591
 10
197.3866803085061
 20
210.3712712291642
 10
200.9268593935961
 20
209.7057558599934
 97
        0
 72
     1
 10
200.9268593935961
 20
209.7057558599934
 11
200.9268593935961
 21
209.7057558599934
 97
        0
 92
        1
 93
        2
 72
     4
 94
        3
 73
     0
 74
     0
 95
       11
 96
        7
 40
0.0
 40
0.0
 40
0.0
 40
0.0
 40
1.0
 40
1.0
 40
1.0
 40
2.0
 40
2.0
 40
2.0
 40
2.0
 10
168.3474741953064
 20
212.2379952434817
 10
174.4539416896818
 20
209.5888783533318
 10
171.3044420400144
 20
204.9067185397612
 10
165.9833824457484
 20
207.1927001739263
 10
166.0441022959876
 20
208.6405074659517
 10
166.1609326765383
 20
213.9177233885259
 10
168.3474741953064
 20
212.2379952434817
 97
        0
 72
     1
 10
168.3474741953064
 20
212.2379952434817
 11
168.3474741953064
 21
212.2379952434817
 97
        0
 92
        1
 93
        2
 72
     4
 94
        3
 73
     0
 74
     0
 95
       14
 96
       10
 40
0.0
 40
0.0
 40
0.0
 40
0.0
 40
1.0
 40
1.0
 40
1.0
 40
2.0
 40
2.0
 40
2.0
 40
3.0
 40
3.0
 40
3.0
 40
3.0
 10
119.7735038154347
 20
214.3197372541375
 10
134.3482137255513
 20
186.9481905020812
 10
140.4627414329326
 20
204.9454805779642
 10
160.6348158768849
 20
200.6451912679775
 10
169.790303296278
 20
195.9427039918294
 10
151.3267263264746
 20
201.1040614044939
 10
149.4805204235583
 20
198.9152855666545
 10
137.7830403159407
 20
189.0974285532789
 10
113.0985208165871
 20
209.8950632650727
 10
119.7735038154347
 20
214.3197372541375
 97
        0
 72
     1
 10
119.7735038154347
 20
214.3197372541374
 11
119.7735038154347
 21
214.3197372541375
 97
        0
 92
        1
 93
        2
 72
     4
 94
        3
 73
     0
 74
     0
 95
       11
 96
        7
 40
0.0
 40
0.0
 40
0.0
 40
0.0
 40
1.0
 40
1.0
 40
1.0
 40
2.0
 40
2.0
 40
2.0
 40
2.0
 10
193.0196977676974
 20
212.374520609489
 10
193.8845199858217
 20
210.4475852030843
 10
193.571477462055
 20
193.5692719293806
 10
192.172657169941
 20
197.3499005916355
 10
183.8379579600491
 20
209.1057542393478
 10
192.9226565944411
 20
219.0912667637751
 10
193.0196977676974
 20
212.374520609489
 97
        0
 72
     1
 10
193.0196977676974
 20
212.374520609489
 11
193.0196977676974
 21
212.374520609489
 97
        0
 92
        1
 93
        2
 72
     4
 94
        3
 73
     0
 74
     0
 95
       17
 96
       13
 40
0.0
 40
0.0
 40
0.0
 40
0.0
 40
1.0
 40
1.0
 40
1.0
 40
2.0
 40
2.0
 40
2.0
 40
3.0
 40
3.0
 40
3.0
 40
4.0
 40
4.0
 40
4.0
 40
4.0
 10
198.2408045711339
 20
215.1808657854842
 10
208.1789277337602
 20
211.3591618597053
 10
218.0146279706171
 20
202.6536541300751
 10
222.3634521166735
 20
193.3298797469612
 10
214.6249027455759
 20
197.990692062003
 10
209.7836928182478
 20
211.3553081897778
 10
199.0707459720777
 20
211.8384093327612
 10
195.3305601454397
 20
208.4381016227556
 10
198.4247504561481
 20
192.3093929132163
 10
193.8719259389356
 20
189.2299947038852
 10
197.545537253785
 20
194.0120290234574
 10
192.5623450316015
 20
217.2699609956697
 10
198.2408045711339
 20
215.1808657854842
 97
        0
 72
     1
 10
198.2408045711339
 20
215.1808657854841
 11
198.2408045711339
 21
215.1808657854842
 97
        0
 92
        1
 93
        2
 72
     4
 94
        3
 73
     0
 74
     0
 95
       14
 96
       10
 40
0.0
 40
0.0
 40
0.0
 40
0.0
 40
1.0
 40
1.0
 40
1.0
 40
2.0
 40
2.0
 40
2.0
 40
3.0
 40
3.0
 40
3.0
 40
3.0
 10
195.208679141255
 20
236.5687252398553
 10
204.4580304308237
 20
220.0183410337516
 10
186.3376689903549
 20
218.1515795494257
 10
185.5046409180654
 20
204.1459931148183
 10
179.2949837329414
 20
216.0203238655585
 10
201.8963028981839
 20
220.270812285873
 10
194.2370777622254
 20
234.0333627661566
 10
193.4265868846364
 20
235.1888726338227
 10
193.3590780125126
 20
237.6636469272805
 10
195.208679141255
 20
236.5687252398553
 97
        0
 72
     1
 10
195.208679141255
 20
236.5687252398553
 11
195.208679141255
 21
236.5687252398553
 97
        0
 92
        1
 93
        2
 72
     4
 94
        3
 73
     0
 74
     0
 95
      323
 96
      319
 40
0.0
 40
0.0
 40
0.0
 40
0.0
 40
1.0
 40
1.0
 40
1.0
 40
2.0
 40
2.0
 40
2.0
 40
3.0
 40
3.0
 40
3.0
 40
4.0
 40
4.0
 40
4.0
 40
5.0
 40
5.0
 40
5.0
 40
6.0
 40
6.0
 40
6.0
 40
7.0
 40
7.0
 40
7.0
 40
8.0
 40
8.0
 40
8.0
 40
9.0
 40
9.0
 40
9.0
 40
10.0
 40
10.0
 40
10.0
 40
11.0
 40
11.0
 40
11.0
 40
12.0
 40
12.0
 40
12.0
 40
13.0
 40
13.0
 40
13.0
 40
14.0
 40
14.0
 40
14.0
 40
15.0
 40
15.0
 40
15.0
 40
16.0
 40
16.0
 40
16.0
 40
17.0
 40
17.0
 40
17.0
 40
18.0
 40
18.0
 40
18.0
 40
19.0
 40
19.0
 40
19.0
 40
20.0
 40
20.0
 40
20.0
 40
21.0
 40
21.0
 40
21.0
 40
22.0
 40
22.0
 40
22.0
 40
23.0
 40
23.0
 40
23.0
 40
24.0
 40
24.0
 40
24.0
 40
25.0
 40
25.0
 40
25.0
 40
26.0
 40
26.0
 40
26.0
 40
27.0
 40
27.0
 40
27.0
 40
28.0
 40
28.0
 40
28.0
 40
29.0
 40
29.0
 40
29.0
 40
30.0
 40
30.0
 40
30.0
 40
31.0
 40
31.0
 40
31.0
 40
32.0
 40
32.0
 40
32.0
 40
33.0
 40
33.0
 40
33.0
 40
34.0
 40
34.0
 40
34.0
 40
35.0
 40
35.0
 40
35.0
 40
36.0
 40
36.0
 40
36.0
 40
37.0
 40
37.0
 40
37.0
 40
38.0
 40
38.0
 40
38.0
 40
39.0
 40
39.0
 40
39.0
 40
40.0
 40
40.0
 40
40.0
 40
41.0
 40
41.0
 40
41.0
 40
42.0
 40
42.0
 40
42.0
 40
43.0
 40
43.0
 40
43.0
 40
44.0
 40
44.0
 40
44.0
 40
45.0
 40
45.0
 40
45.0
 40
46.0
 40
46.0
 40
46.0
 40
47.0
 40
47.0
 40
47.0
 40
48.0
 40
48.0
 40
48.0
 40
49.0
 40
49.0
 40
49.0
 40
50.0
 40
50.0
 40
50.0
 40
51.0
 40
51.0
 40
51.0
 40
52.0
 40
52.0
 40
52.0
 40
53.0
 40
53.0
 40
53.0
 40
54.0
 40
54.0
 40
54.0
 40
55.0
 40
55.0
 40
55.0
 40
56.0
 40
56.0
 40
56.0
 40
57.0
 40
57.0
 40
57.0
 40
58.0
 40
58.0
 40
58.0
 40
59.0
 40
59.0
 40
59.0
 40
60.0
 40
60.0
 40
60.0
 40
61.0
 40
61.0
 40
61.0
 40
62.0
 40
62.0
 40
62.0
 40
63.0
 40
63.0
 40
63.0
 40
64.0
 40
64.0
 40
64.0
 40
65.0
 40
65.0
 40
65.0
 40
66.0
 40
66.0
 40
66.0
 40
67.0
 40
67.0
 40
67.0
 40
68.0
 40
68.0
 40
68.0
 40
69.0
 40
69.0
 40
69.0
 40
70.0
 40
70.0
 40
70.0
 40
71.0
 40
71.0
 40
71.0
 40
72.0
 40
72.0
 40
72.0
 40
73.0
 40
73.0
 40
73.0
 40
74.0
 40
74.0
 40
74.0
 40
75.0
 40
75.0
 40
75.0
 40
76.0
 40
76.0
 40
76.0
 40
77.0
 40
77.0
 40
77.0
 40
78.0
 40
78.0
 40
78.0
 40
79.0
 40
79.0
 40
79.0
 40
80.0
 40
80.0
 40
80.0
 40
81.0
 40
81.0
 40
81.0
 40
82.0
 40
82.0
 40
82.0
 40
83.0
 40
83.0
 40
83.0
 40
84.0
 40
84.0
 40
84.0
 40
85.0
 40
85.0
 40
85.0
 40
86.0
 40
86.0
 40
86.0
 40
87.0
 40
87.0
 40
87.0
 40
88.0
 40
88.0
 40
88.0
 40
89.0
 40
89.0
 40
89.0
 40
90.0
 40
90.0
 40
90.0
 40
91.0
 40
91.0
 40
91.0
 40
92.0
 40
92.0
 40
92.0
 40
93.0
 40
93.0
 40
93.0
 40
94.0
 40
94.0
 40
94.0
 40
95.0
 40
95.0
 40
95.0
 40
96.0
 40
96.0
 40
96.0
 40
97.0
 40
97.0
 40
97.0
 40
98.0
 40
98.0
 40
98.0
 40
99.0
 40
99.0
 40
99.0
 40
100.0
 40
100.0
 40
100.0
 40
101.0
 40
101.0
 40
101.0
 40
102.0
 40
102.0
 40
102.0
 40
103.0
 40
103.0
 40
103.0
 40
104.0
 40
104.0
 40
104.0
 40
105.0
 40
105.0
 40
105.0
 40
106.0
 40
106.0
 40
106.0
 40
106.0
 10
192.1730332544271
 20
237.9780724844345
 10
191.708233774951
 20
237.4378933205093
 10
191.0079643716391
 20
235.7373262609895
 10
191.8938265359002
 20
235.5211798882978
 10
192.4786241396098
 20
235.6955721473971
 10
191.9260951446834
 20
232.5510994709752
 10
192.6836657789241
 20
233.1230140129945
 10
196.009400918001
 20
226.388234714227
 10
191.1648816022717
 20
220.322107684614
 10
186.3028440121517
 20
217.1774060869027
 10
184.4210061317833
 20
217.0368182237293
 10
183.283870438929
 20
209.1469474292425
 10
181.8451025100616
 20
210.4526295674888
 10
178.8162771949959
 20
212.0416379565242
 10
173.9206906488975
 20
211.5236458994871
 10
171.0415598873708
 20
213.1985862359846
 10
170.0001090184066
 20
213.6295860357077
 10
169.537586055803
 20
214.5506722288409
 10
168.4058682370084
 20
214.7782116686024
 10
166.5311315501453
 20
215.1152909424641
 10
167.7801068313107
 20
216.5232630878048
 10
165.4861241322685
 20
214.7367023567825
 10
164.1697071302758
 20
215.0313030205925
 10
164.8804402845627
 20
212.4672392076029
 10
164.1619442027471
 20
212.3786465698803
 10
163.7296143772606
 20
212.3791068928543
 10
163.6685823575547
 20
212.1596785337706
 10
163.6685823575547
 20
210.603574658258
 10
163.8162083301687
 20
208.5243932029618
 10
163.2941987320758
 20
209.8683749376924
 10
162.8922879896992
 20
208.8514095280753
 10
162.8691132147216
 20
208.1448503470673
 10
162.0745748676365
 20
208.7143873969417
 10
162.1163263071518
 20
208.0752074002904
 10
158.5562057395841
 20
206.9882119722904
 10
159.9472809975322
 20
203.7710777381602
 10
155.363376288902
 20
203.7352085472771
 10
147.110092539956
 20
203.910150941937
 10
139.6321550411886
 20
197.7207930261666
 10
132.7074580392252
 20
201.7246616641132
 10
127.8513553568117
 20
204.3584601533366
 10
123.8225366746311
 20
209.9718834804781
 10
122.0408198540444
 20
213.9741371210758
 10
119.8331494624573
 20
219.5509425758179
 10
113.3109259393073
 20
214.8406140870461
 10
117.6964444717905
 20
210.0770448280089
 10
119.8983529417754
 20
205.7827654393334
 10
122.8666160380109
 20
201.2664546146446
 10
127.260340657164
 20
198.1963422615975
 10
129.8774117947939
 20
197.4944327073639
 10
124.4787352563184
 20
197.1842228616125
 10
124.8632563769593
 20
196.1510554907756
 10
125.0236474881692
 20
195.3899616072743
 10
123.9202415029361
 20
196.0480245087347
 10
124.0163485731263
 20
195.3752022004563
 10
124.0771934608506
 20
194.7334963420177
 10
123.1934521197204
 20
195.3241760472902
 10
123.3108448360091
 20
194.5990979397626
 10
123.310806743054
 20
194.222691996501
 10
123.263887503169
 20
194.1757714108907
 10
122.8874731406755
 20
194.1757714108865
 10
117.7895424287321
 20
189.5332436001536
 10
112.7940168455816
 20
181.8132110677291
 10
109.3758467188266
 20
175.1002278553853
 10
101.7075698071351
 20
166.9203486717235
 10
94.87996868357383
 20
120.0467583480857
 10
109.1977715770831
 20
121.6418856046017
 10
108.9555943380499
 20
121.8226936563387
 10
109.248943433436
 20
124.8765377197091
 10
108.5291210806099
 20
125.1471467884029
 10
108.2348481981686
 20
125.1886655711319
 10
108.2119181270847
 20
125.26310116546
 10
108.211918127085
 20
126.1746841967805
 10
106.7232692724068
 20
130.0363896135626
 10
108.5370629950976
 20
129.9713073161056
 10
110.0179223833542
 20
133.9216407259166
 10
111.2295800128323
 20
134.9129958890788
 10
111.7860202347652
 20
136.774628303688
 10
112.8693176640197
 20
137.5895581419168
 10
113.7664718352153
 20
138.320917593563
 10
114.2350602928299
 20
139.8625891102583
 10
115.2547530142971
 20
140.3582901119466
 10
116.2558681076431
 20
140.3977367836855
 10
115.6227828392394
 20
141.1073673722329
 10
116.4097420118591
 20
141.1180859544631
 10
116.7600761030135
 20
141.1179904165923
 10
116.8401570784066
 20
141.1853743311055
 10
116.9114180710805
 20
141.541328056193
 10
116.8043874640466
 20
142.0645909246142
 10
118.0110728634841
 20
142.0633235149636
 10
117.4548084539637
 20
141.7960298111176
 10
116.4406985815232
 20
142.6531600868898
 10
117.3957901269061
 20
130.6306158689999
 10
116.6786523111855
 20
131.2728810983952
 10
115.6941475285004
 20
128.7890090252014
 10
117.8721217723721
 20
128.0506060357947
 10
119.9948361888637
 20
128.4890290320132
 10
121.8456553638914
 20
131.4294229960742
 10
121.223325922725
 20
121.9025779458548
 10
122.8538323978312
 20
122.0687198341551
 10
125.1443086445304
 20
120.26167673859
 10
126.2636516823932
 20
123.7788906413096
 10
127.6243371706975
 20
124.4664878074969
 10
129.0315821283284
 20
126.9369234361144
 10
128.9683220164415
 20
122.1996449706098
 10
130.3673883712293
 20
121.5655298481186
 10
134.9705103835645
 20
116.7057932692836
 10
134.9217331628272
 20
126.450522286987
 10
136.7162404833452
 20
129.0002938730559
 10
139.9059873962748
 20
132.0636364336234
 10
146.1512698242844
 20
147.4566094578523
 10
150.6511508823012
 20
144.1992145499741
 10
148.0767351927587
 20
134.4876545509387
 10
144.7763105755247
 20
125.445039471301
 10
143.9048761812765
 20
114.1839562397258
 10
136.6535240895644
 20
104.4093145964142
 10
139.4744276456696
 20
85.57126402415143
 10
148.523889954035
 20
77.7584544518455
 10
148.87551556574
 20
68.26197126682837
 10
150.8562624900348
 20
60.59743175083824
 10
153.3674951159306
 20
53.00313122344662
 10
159.2000976050309
 20
35.72200002775334
 10
170.6212790850325
 20
19.4066658101215
 10
186.4578772217639
 20
9.626950842175915
 10
188.9331329513811
 20
7.880945125238473
 10
191.0371889179685
 20
7.053099368911912
 10
193.0199450178028
 20
6.004423733934441
 10
192.7783695149159
 20
5.308180046008474
 10
194.8256635194812
 20
5.996876133670884
 10
194.5976129869335
 20
5.263240326204774
 10
195.8300112625897
 20
4.413651959950231
 10
197.6109957117592
 20
3.810612125915837
 10
199.4029514056107
 20
3.252063535052883
 10
201.8266349085322
 20
1.021724386231007
 10
229.6551911800809
 20
-3.152041145021223
 10
217.1503046567419
 20
4.805322140599755
 10
214.8968300795539
 20
6.799627516604317
 10
212.0626839896337
 20
10.02963803032479
 10
210.0235457243323
 20
11.86034073058413
 10
209.3709609916659
 20
11.68966326694038
 10
209.8642356338507
 20
13.75859068024031
 10
209.1602695295089
 20
13.41193312959356
 10
208.5586851001515
 20
13.30499938918802
 10
209.0908000667762
 20
14.37465329430303
 10
208.4808804834233
 20
14.25910523197744
 10
207.8956725238565
 20
14.18090816195234
 10
208.2840237221346
 20
15.12838990495455
 10
207.6670106568955
 20
15.07926738698773
 10
206.9650239904263
 20
14.91632206806897
 10
207.5235594407778
 20
16.80419141200819
 10
206.8133026501041
 20
16.63223098385019
 10
206.4883954605906
 20
16.66964348319676
 10
206.4252533199032
 20
16.74407907751402
 10
206.4252533199019
 20
17.09084946995506
 10
206.4978316442235
 20
17.86541637399398
 10
205.5853791712505
 20
17.12630359119805
 10
205.7197535389434
 20
18.00771981648325
 10
205.8106456579778
 20
19.29456022806432
 10
205.0327931812048
 20
18.68063823001661
 10
204.8727422581377
 20
19.41327144234362
 10
204.8912154850435
 20
20.04103441667446
 10
204.0520685354477
 20
19.79075506617733
 10
204.1675278226006
 20
20.5234241319244
 10
204.260848886892
 20
22.11030170187925
 10
203.2655849097021
 20
20.76880438721154
 10
203.2928665978787
 20
22.19666878999929
 10
203.2534292680955
 20
22.88416510164603
 10
203.2227356205079
 20
22.940621603908
 10
202.8692472918738
 20
22.98153211279662
 10
202.2037670256939
 20
22.79762197671876
 10
202.6711631154836
 20
24.63924549648274
 10
202.0860690253076
 20
24.5348653766899
 10
201.4827097249188
 20
24.63047656914169
 10
201.8982007800801
 20
26.36611872908835
 10
201.2569231440337
 20
26.11205025095587
 10
200.5943745213598
 20
25.89205839939458
 10
201.2666857859805
 20
27.97298424857894
 10
200.4985561252199
 20
27.7562377805818
 10
194.1130571740102
 20
37.17134011384497
 10
186.6268031928692
 20
95.03892640477038
 10
210.5178953258156
 20
73.38528297555747
 10
210.3955547567334
 20
72.66187079109965
 10
211.2911653181233
 20
73.25112995667378
 10
211.2230499048371
 20
72.60504039490064
 10
211.1220427842923
 20
72.04918666146738
 10
212.0860981741673
 20
72.27041636788951
 10
212.0972297799593
 20
71.78090907342881
 10
211.9964250866014
 20
71.21034231907739
 10
213.9252613780588
 20
71.70170306543858
 10
213.6218272413509
 20
70.97839207779968
 10
213.4618040485388
 20
70.2543869092713
 10
214.5543769109742
 20
70.85528465506816
 10
214.4686053271881
 20
70.22625906195848
 10
214.1720819671803
 20
69.57706278253387
 10
216.0877281646035
 20
69.99475092418212
 10
216.0208628660986
 20
69.36333046377841
 10
215.9140306436285
 20
68.77254909020249
 10
216.8533580748512
 20
69.21502531345807
 10
216.9080586164841
 20
68.72973248366054
 10
217.3828887840854
 20
67.93703801677786
 10
220.5536403547664
 20
67.9836216712758
 10
220.8185591795538
 20
67.02723652913912
 10
220.8185823432749
 20
66.6173268474299
 10
220.8295205214281
 20
66.6113302281163
 10
221.594697760554
 20
66.61133022810988
 10
223.0918773338207
 20
66.69695424351674
 10
221.7093263695109
 20
65.66740035026128
 10
223.3368609926374
 20
65.76465780553826
 10
224.4399768808413
 20
65.67948464848803
 10
223.6083252223795
 20
64.98379372715021
 10
225.2283750817773
 20
65.0885571705018
 10
234.9217546647898
 20
61.04157313136031
 10
229.7648378985932
 20
65.827058735417
 10
232.9345992601286
 20
65.76549051937909
 10
240.1495774841279
 20
62.5223879246559
 10
234.9791878119209
 20
71.15830660471001
 10
238.2598851582059
 20
68.65054331923566
 10
239.4652804505084
 20
67.18534378079249
 10
241.6977747807241
 20
70.62468411015164
 10
240.0046273407582
 20
71.26812324578342
 10
239.4759693226577
 20
71.03348380903817
 10
240.003584674446
 20
73.29910359193552
 10
239.3821123277262
 20
72.96125035648376
 10
238.7413741712566
 20
72.73824444736354
 10
239.2489382412859
 20
74.69631192287593
 10
238.5703519546636
 20
74.48702524826457
 10
237.8667805041026
 20
74.32109498920164
 10
238.4280247942431
 20
76.21413667930913
 10
237.7166239279554
 20
76.04000000857592
 10
234.6076377639809
 20
80.70108241702717
 10
231.1283658191154
 20
83.71945619235452
 10
226.2686841023394
 20
86.80503098225299
 10
220.647775394277
 20
87.57644577790426
 10
239.3987424374468
 20
99.86434696322483
 10
227.4499995688926
 20
117.2705745829892
 10
227.0324149426256
 20
117.2702212575194
 10
227.0274733837889
 20
117.2790385487756
 10
227.0274733837889
 20
118.0364535571318
 10
227.003300231928
 20
119.1710627224981
 10
225.3563149488591
 20
119.8695428351467
 10
225.1335027916524
 20
120.5166141923908
 10
222.793710317221
 20
122.3711711670537
 10
222.209864162591
 20
124.0512321363047
 10
219.9014598828675
 20
125.2371521365772
 10
218.9501453966636
 20
125.0742695496187
 10
218.3942163546522
 20
127.1588568832382
 10
217.4392683653576
 20
126.8656295092261
 10
216.0396371126999
 20
126.7499848046933
 10
217.4257037416456
 20
127.7165783412426
 10
215.9502426979419
 20
127.5712895892164
 10
214.5837870512353
 20
127.3468836295527
 10
215.6802119735569
 20
128.4049513848154
 10
214.7607127185471
 20
128.4181409856101
 10
213.9648736160998
 20
128.4319183263153
 10
213.7599977772434
 20
130.0023408805401
 10
213.198721118956
 20
129.9703343095135
 10
210.3925194919937
 20
140.3189139127744
 10
186.4854542151588
 20
156.033740957755
 10
203.3395310857647
 20
165.6713804156258
 10
206.2891470870839
 20
165.7920942687167
 10
209.3179742375844
 20
165.6333605305257
 10
210.5176018874691
 20
164.4717422563176
 10
218.4513756439128
 20
160.9578510993087
 10
214.4260499437927
 20
183.1622608150032
 10
231.6528048986803
 20
158.6153856960881
 10
234.4190601305156
 20
157.8823896044071
 10
233.3601956330572
 20
170.6408390040434
 10
233.1312827458928
 20
171.8690266621341
 10
232.9697443816281
 20
172.6254793391675
 10
242.0120635435521
 20
170.6013424596066
 10
240.5434618647354
 20
173.5377127599407
 10
240.2185506272387
 20
174.4920022452842
 10
241.070367818251
 20
174.5522107590495
 10
239.726843768257
 20
175.5580613152629
 10
236.126362212933
 20
179.119220873167
 10
247.5896978622655
 20
175.6921044321149
 10
240.4736627078539
 20
183.4577527290315
 10
236.4714089237248
 20
185.080483648815
 10
241.3656103180387
 20
185.5967685227408
 10
240.0896789192586
 20
187.7067972436886
 10
238.8304203471602
 20
189.9069491938893
 10
235.2601939038869
 20
189.3196034656108
 10
233.3774118970103
 20
190.5103303426757
 10
231.1449849370946
 20
191.8295909876804
 10
229.0517457189703
 20
192.8927489454476
 10
226.0045079169331
 20
193.4690808077434
 10
222.3484245679006
 20
198.0220635300066
 10
217.9880978113901
 20
205.2627323974797
 10
212.0684064063362
 20
209.6297760370502
 10
212.1799344390941
 20
210.2040440569253
 10
211.1332449104194
 20
209.9388809606852
 10
211.2230291987325
 20
210.4917402775094
 10
211.3341862483692
 20
211.0844766302731
 10
210.262209439641
 20
210.5677662612508
 10
210.3763660576136
 20
211.1644896023898
 10
210.6020087188305
 20
211.8535195754191
 10
208.764589401722
 20
211.4029233692892
 10
208.8239141349702
 20
212.0259995882794
 10
208.8693621736068
 20
212.6683577355775
 10
208.082645154026
 20
212.1018977208747
 10
208.0692688670631
 20
212.8025181493258
 10
208.0318296125612
 20
213.4762088599504
 10
207.3212185094639
 20
212.988410183535
 10
207.2172129932897
 20
213.5651326600136
 10
206.5386680703098
 20
213.9997140027528
 10
205.7570802030873
 20
214.461052970554
 10
204.917441792981
 20
214.7503598888228
 10
203.5964834678038
 20
214.6631053686769
 10
204.6711513090074
 20
215.6169211934554
 10
203.4781537749844
 20
215.5985781714523
 10
202.0037155601277
 20
216.5706934753521
 10
200.0720278623837
 20
216.9016674460542
 10
198.5228056715022
 20
217.4678015334621
 10
198.3653996342773
 20
218.336228468406
 10
196.3502534385704
 20
217.523365476384
 10
196.9711811894447
 20
219.0133907752756
 10
200.6966991062107
 20
222.7137736777397
 10
201.1129248286264
 20
240.5284127675545
 10
192.1730332544271
 20
237.9780724844345
 97
        0
 72
     1
 10
192.1730332544271
 20
237.9780724844345
 11
192.1730332544271
 21
237.9780724844345
 97
        0
 75
     0
 76
     1
 98
        1
 10
0.0
 20
0.0
450
        0
451
        0
460
0.0
461
0.0
452
        0
462
0.0
453
        0
470

  0
ENDSEC
  0
SECTION
  2
OBJECTS
  0
DICTIONARY
  5
C
330
0
100
AcDbDictionary
281
     1
  3
ACAD_COLOR
350
63
  3
ACAD_DETAILVIEWSTYLE
350
6A
  3
ACAD_GROUP
350
D
  3
ACAD_LAYOUT
350
62
  3
ACAD_MATERIAL
350
10
  3
ACAD_MLEADERSTYLE
350
66
  3
ACAD_MLINESTYLE
350
5F
  3
ACAD_PLOTSETTINGS
350
61
  3
ACAD_PLOTSTYLENAME
350
E
  3
ACAD_SCALELIST
350
42
  3
ACAD_SECTIONVIEWSTYLE
350
68
  3
ACAD_TABLESTYLE
350
64
  3
ACAD_VISUALSTYLE
350
29
  3
ACDB_RECOMPOSE_DATA
350
B8
  3
AcDbVariableDictionary
350
B0
  0
DICTIONARY
  5
63
102
{ACAD_REACTORS
330
C
102
}
330
C
100
AcDbDictionary
281
     1
  0
DICTIONARY
  5
6A
102
{ACAD_REACTORS
330
C
102
}
330
C
100
AcDbDictionary
281
     1
  3
Imperial24
350
6B
  0
DICTIONARY
  5
D
102
{ACAD_REACTORS
330
C
102
}
330
C
100
AcDbDictionary
281
     1
  0
DICTIONARY
  5
62
102
{ACAD_REACTORS
330
C
102
}
330
C
100
AcDbDictionary
281
     1
  3
Layout1
350
6F
  3
Layout2
350
77
  3
Model
350
73
  0
DICTIONARY
  5
10
102
{ACAD_REACTORS
330
C
102
}
330
C
100
AcDbDictionary
281
     1
  3
ByBlock
350
19
  3
ByLayer
350
11
  3
Global
350
21
  0
DICTIONARY
  5
66
102
{ACAD_REACTORS
330
C
102
}
330
C
100
AcDbDictionary
281
     1
  3
Standard
350
67
  0
DICTIONARY
  5
5F
102
{ACAD_REACTORS
330
C
102
}
330
C
100
AcDbDictionary
281
     1
  3
Standard
350
60
  0
DICTIONARY
  5
61
102
{ACAD_REACTORS
330
C
102
}
330
C
100
AcDbDictionary
281
     1
  0
ACDBDICTIONARYWDFLT
  5
E
102
{ACAD_REACTORS
330
C
102
}
330
C
100
AcDbDictionary
281
     1
  3
Normal
350
F
100
AcDbDictionaryWithDefault
340
F
  0
DICTIONARY
  5
42
102
{ACAD_REACTORS
330
C
102
}
330
C
100
AcDbDictionary
281
     1
  3
A0
350
43
  3
A1
350
44
  3
A2
350
45
  3
A3
350
46
  3
A4
350
47
  3
A5
350
48
  3
A6
350
49
  3
A7
350
4A
  3
A8
350
4B
  3
A9
350
4C
  3
B0
350
4D
  3
B1
350
4E
  3
B2
350
4F
  3
B3
350
50
  3
B4
350
51
  3
B5
350
52
  3
B6
350
53
  0
DICTIONARY
  5
68
102
{ACAD_REACTORS
330
C
102
}
330
C
100
AcDbDictionary
281
     1
  3
Imperial24
350
69
  0
DICTIONARY
  5
64
102
{ACAD_REACTORS
330
C
102
}
330
C
100
AcDbDictionary
281
     1
  3
Standard
350
65
  0
DICTIONARY
  5
29
102
{ACAD_REACTORS
330
C
102
}
330
C
100
AcDbDictionary
281
     1
  3
2dWireframe
350
2F
  3
Basic
350
2E
  3
Brighten
350
35
  3
ColorChange
350
39
  3
Conceptual
350
32
  3
Dim
350
34
  3
EdgeColorOff
350
41
  3
Facepattern
350
38
  3
Flat
350
2A
  3
FlatWithEdges
350
2B
  3
Gouraud
350
2C
  3
GouraudWithEdges
350
2D
  3
Hidden
350
31
  3
JitterOff
350
3F
  3
Linepattern
350
37
  3
OverhangOff
350
40
  3
Realistic
350
33
  3
Shaded
350
3E
  3
Shaded with edges
350
3D
  3
Shades of Gray
350
3A
  3
Sketchy
350
3B
  3
Thicken
350
36
  3
Wireframe
350
30
  3
X-Ray
350
3C
  0
XRECORD
  5
B8
102
{ACAD_REACTORS
330
C
102
}
330
C
100
AcDbXrecord
280
     1
 90
        1
330
65
  0
DICTIONARY
  5
B0
102
{ACAD_REACTORS
330
C
102
}
330
C
100
AcDbDictionary
281
     1
  3
CANNOSCALE
350
B5
  3
CMLEADERSTYLE
350
B2
  3
CTABLESTYLE
350
B1
  3
CVIEWDETAILSTYLE
350
B3
  3
CVIEWSECTIONSTYLE
350
B4
  0
ACDBDETAILVIEWSTYLE
  5
6B
102
{ACAD_REACTORS
330
6A
102
}
330
6A
100
AcDbModelDocViewStyle
 70
     0
  3
Imperial24
290
     1
300
Imperial24
 90
        0
100
AcDbDetailViewStyle
 70
     0
 71
     0
 90
        3
 71
     1
340
55
 62
   256
 40
0.24
340
0
 62
   256
 40
0.24
300

 40
0.36
280
     3
 71
     2
340
5D
 90
       25
 62
   256
 71
     3
340
55
 62
   256
 40
0.24
 90
        1
 40
0.75
 90
        1
300
%<\AcVar ViewType \f "%tc1">% %<\AcVar ViewDetailId>%\PSCALE %<\AcVar ViewScale \f "%sn">%
 71
     4
340
5D
 90
       25
 62
   256
340
5D
 90
       25
 62
   256
280
     0
  0
LAYOUT
  5
6F
102
{ACAD_REACTORS
330
62
102
}
330
62
100
AcDbPlotSettings
  1

  2

  4

  6

 40
0.0
 41
0.0
 42
0.0
 43
0.0
 44
0.0
 45
0.0
 46
0.0
 47
0.0
 48
0.0
 49
0.0
140
0.0
141
0.0
142
1.0
143
1.0
 70
   688
 72
     0
 73
     0
 74
     5
  7

 75
    16
147
1.0
 76
     0
 77
     2
 78
   300
148
0.0
149
0.0
100
AcDbLayout
  1
Layout1
 70
     1
 71
     1
 10
0.0
 20
0.0
 11
12.0
 21
9.0
 12
0.0
 22
0.0
 32
0.0
 14
0.0
 24
0.0
 34
0.0
 15
0.0
 25
0.0
 35
0.0
146
0.0
 13
0.0
 23
0.0
 33
0.0
 16
1.0
 26
0.0
 36
0.0
 17
0.0
 27
1.0
 37
0.0
 76
     0
330
6C
  0
LAYOUT
  5
77
102
{ACAD_REACTORS
330
62
102
}
330
62
100
AcDbPlotSettings
  1

  2

  4

  6

 40
0.0
 41
0.0
 42
0.0
 43
0.0
 44
0.0
 45
0.0
 46
0.0
 47
0.0
 48
0.0
 49
0.0
140
0.0
141
0.0
142
1.0
143
1.0
 70
   688
 72
     0
 73
     0
 74
     5
  7

 75
    16
147
1.0
 76
     0
 77
     2
 78
   300
148
0.0
149
0.0
100
AcDbLayout
  1
Layout2
 70
     1
 71
     2
 10
0.0
 20
0.0
 11
12.0
 21
9.0
 12
0.0
 22
0.0
 32
0.0
 14
0.0
 24
0.0
 34
0.0
 15
0.0
 25
0.0
 35
0.0
146
0.0
 13
0.0
 23
0.0
 33
0.0
 16
1.0
 26
0.0
 36
0.0
 17
0.0
 27
1.0
 37
0.0
 76
     0
330
74
  0
LAYOUT
  5
73
102
{ACAD_REACTORS
330
62
102
}
330
62
100
AcDbPlotSettings
  1

  2

  4

  6

 40
0.0
 41
0.0
 42
0.0
 43
0.0
 44
0.0
 45
0.0
 46
0.0
 47
0.0
 48
0.0
 49
0.0
140
0.0
141
0.0
142
1.0
143
1.0
 70
  1712
 72
     0
 73
     0
 74
     0
  7

 75
     0
147
1.0
 76
     0
 77
     2
 78
   300
148
0.0
149
0.0
100
AcDbLayout
  1
Model
 70
     1
 71
     0
 10
0.0
 20
0.0
 11
12.0
 21
9.0
 12
0.0
 22
0.0
 32
0.0
 14
0.0
 24
0.0
 34
0.0
 15
0.0
 25
0.0
 35
0.0
146
0.0
 13
0.0
 23
0.0
 33
0.0
 16
1.0
 26
0.0
 36
0.0
 17
0.0
 27
1.0
 37
0.0
 76
     0
330
70
  0
MATERIAL
  5
19
102
{ACAD_XDICTIONARY
360
1A
102
}
102
{ACAD_REACTORS
330
10
102
}
330
10
100
AcDbMaterial
  1
ByBlock
 72
     0
 43
0.0208333333333333
 43
0.0
 43
0.0
 43
0.0
 43
0.0
 43
0.0208333333333333
 43
0.0
 43
0.0
 43
0.0
 43
0.0
 43
1.0
 43
0.0
 43
0.0
 43
0.0
 43
0.0
 43
1.0
 77
     0
 47
0.0208333333333333
 47
0.0
 47
0.0
 47
0.0
 47
0.0
 47
0.0208333333333333
 47
0.0
 47
0.0
 47
0.0
 47
0.0
 47
1.0
 47
0.0
 47
0.0
 47
0.0
 47
0.0
 47
1.0
171
     0
 49
0.0208333333333333
 49
0.0
 49
0.0
 49
0.0
 49
0.0
 49
0.0208333333333333
 49
0.0
 49
0.0
 49
0.0
 49
0.0
 49
1.0
 49
0.0
 49
0.0
 49
0.0
 49
0.0
 49
1.0
175
     0
142
0.0208333333333333
142
0.0
142
0.0
142
0.0
142
0.0
142
0.0208333333333333
142
0.0
142
0.0
142
0.0
142
0.0
142
1.0
142
0.0
142
0.0
142
0.0
142
0.0
142
1.0
179
     0
144
0.0208333333333333
144
0.0
144
0.0
144
0.0
144
0.0
144
0.0208333333333333
144
0.0
144
0.0
144
0.0
144
0.0
144
1.0
144
0.0
144
0.0
144
0.0
144
0.0
144
1.0
147
0.0208333333333333
147
0.0
147
0.0
147
0.0
147
0.0
147
0.0208333333333333
147
0.0
147
0.0
147
0.0
147
0.0
147
1.0
147
0.0
147
0.0
147
0.0
147
0.0
147
1.0
  0
MATERIAL
  5
11
102
{ACAD_XDICTIONARY
360
12
102
}
102
{ACAD_REACTORS
330
10
102
}
330
10
100
AcDbMaterial
  1
ByLayer
 72
     0
 43
0.0208333333333333
 43
0.0
 43
0.0
 43
0.0
 43
0.0
 43
0.0208333333333333
 43
0.0
 43
0.0
 43
0.0
 43
0.0
 43
1.0
 43
0.0
 43
0.0
 43
0.0
 43
0.0
 43
1.0
 77
     0
 47
0.0208333333333333
 47
0.0
 47
0.0
 47
0.0
 47
0.0
 47
0.0208333333333333
 47
0.0
 47
0.0
 47
0.0
 47
0.0
 47
1.0
 47
0.0
 47
0.0
 47
0.0
 47
0.0
 47
1.0
171
     0
 49
0.0208333333333333
 49
0.0
 49
0.0
 49
0.0
 49
0.0
 49
0.0208333333333333
 49
0.0
 49
0.0
 49
0.0
 49
0.0
 49
1.0
 49
0.0
 49
0.0
 49
0.0
 49
0.0
 49
1.0
175
     0
142
0.0208333333333333
142
0.0
142
0.0
142
0.0
142
0.0
142
0.0208333333333333
142
0.0
142
0.0
142
0.0
142
0.0
142
1.0
142
0.0
142
0.0
142
0.0
142
0.0
142
1.0
179
     0
144
0.0208333333333333
144
0.0
144
0.0
144
0.0
144
0.0
144
0.0208333333333333
144
0.0
144
0.0
144
0.0
144
0.0
144
1.0
144
0.0
144
0.0
144
0.0
144
0.0
144
1.0
147
0.0208333333333333
147
0.0
147
0.0
147
0.0
147
0.0
147
0.0208333333333333
147
0.0
147
0.0
147
0.0
147
0.0
147
1.0
147
0.0
147
0.0
147
0.0
147
0.0
147
1.0
  0
MATERIAL
  5
21
102
{ACAD_XDICTIONARY
360
22
102
}
102
{ACAD_REACTORS
330
10
102
}
330
10
100
AcDbMaterial
  1
Global
 72
     0
 43
0.0208333333333333
 43
0.0
 43
0.0
 43
0.0
 43
0.0
 43
0.0208333333333333
 43
0.0
 43
0.0
 43
0.0
 43
0.0
 43
1.0
 43
0.0
 43
0.0
 43
0.0
 43
0.0
 43
1.0
 77
     0
 47
0.0208333333333333
 47
0.0
 47
0.0
 47
0.0
 47
0.0
 47
0.0208333333333333
 47
0.0
 47
0.0
 47
0.0
 47
0.0
 47
1.0
 47
0.0
 47
0.0
 47
0.0
 47
0.0
 47
1.0
171
     0
 49
0.0208333333333333
 49
0.0
 49
0.0
 49
0.0
 49
0.0
 49
0.0208333333333333
 49
0.0
 49
0.0
 49
0.0
 49
0.0
 49
1.0
 49
0.0
 49
0.0
 49
0.0
 49
0.0
 49
1.0
175
     0
142
0.0208333333333333
142
0.0
142
0.0
142
0.0
142
0.0
142
0.0208333333333333
142
0.0
142
0.0
142
0.0
142
0.0
142
1.0
142
0.0
142
0.0
142
0.0
142
0.0
142
1.0
179
     0
144
0.0208333333333333
144
0.0
144
0.0
144
0.0
144
0.0
144
0.0208333333333333
144
0.0
144
0.0
144
0.0
144
0.0
144
1.0
144
0.0
144
0.0
144
0.0
144
0.0
144
1.0
147
0.0208333333333333
147
0.0
147
0.0
147
0.0
147
0.0
147
0.0208333333333333
147
0.0
147
0.0
147
0.0
147
0.0
147
1.0
147
0.0
147
0.0
147
0.0
147
0.0
147
1.0
  0
MLEADERSTYLE
  5
67
102
{ACAD_REACTORS
330
66
102
}
330
66
100
AcDbMLeaderStyle
179
     2
170
     2
171
     1
172
     0
 90
        2
 40
0.0
 41
0.0
173
     1
 91
-1056964608
340
5B
 92
       -2
290
     1
 42
0.09
291
     1
 43
0.36
  3
Standard
 44
0.18
300

342
55
174
     1
178
     6
175
     1
176
     0
 93
-1056964608
 45
0.18
292
     0
297
     0
 46
0.18
 94
-1056964608
 47
1.0
 49
1.0
140
1.0
293
     1
141
0.0
294
     1
177
     0
142
1.0
295
     1
296
     0
143
0.125
271
     0
272
     9
273
     9
298
     1
  0
MLINESTYLE
  5
60
102
{ACAD_REACTORS
330
5F
102
}
330
5F
100
AcDbMlineStyle
  2
STANDARD
 70
     0
  3

 62
   256
 51
90.0
 52
90.0
 71
     2
 49
0.5
 62
   256
  6
BYLAYER
 49
-0.5
 62
   256
  6
BYLAYER
  0
ACDBPLACEHOLDER
  5
F
102
{ACAD_REACTORS
330
E
102
}
330
E
  0
SCALE
  5
43
102
{ACAD_REACTORS
330
42
102
}
330
42
100
AcDbScale
 70
     0
300
1:1
140
1.0
141
1.0
290
     1
  0
SCALE
  5
44
102
{ACAD_REACTORS
330
42
102
}
330
42
100
AcDbScale
 70
     0
300
1/128" = 1'-0"
140
0.0078125
141
12.0
290
     0
  0
SCALE
  5
45
102
{ACAD_REACTORS
330
42
102
}
330
42
100
AcDbScale
 70
     0
300
1/64" = 1'-0"
140
0.015625
141
12.0
290
     0
  0
SCALE
  5
46
102
{ACAD_REACTORS
330
42
102
}
330
42
100
AcDbScale
 70
     0
300
1/32" = 1'-0"
140
0.03125
141
12.0
290
     0
  0
SCALE
  5
47
102
{ACAD_REACTORS
330
42
102
}
330
42
100
AcDbScale
 70
     0
300
1/16" = 1'-0"
140
0.0625
141
12.0
290
     0
  0
SCALE
  5
48
102
{ACAD_REACTORS
330
42
102
}
330
42
100
AcDbScale
 70
     0
300
3/32" = 1'-0"
140
0.09375
141
12.0
290
     0
  0
SCALE
  5
49
102
{ACAD_REACTORS
330
42
102
}
330
42
100
AcDbScale
 70
     0
300
1/8" = 1'-0"
140
0.125
141
12.0
290
     0
  0
SCALE
  5
4A
102
{ACAD_REACTORS
330
42
102
}
330
42
100
AcDbScale
 70
     0
300
3/16" = 1'-0"
140
0.1875
141
12.0
290
     0
  0
SCALE
  5
4B
102
{ACAD_REACTORS
330
42
102
}
330
42
100
AcDbScale
 70
     0
300
1/4" = 1'-0"
140
0.25
141
12.0
290
     0
  0
SCALE
  5
4C
102
{ACAD_REACTORS
330
42
102
}
330
42
100
AcDbScale
 70
     0
300
3/8" = 1'-0"
140
0.375
141
12.0
290
     0
  0
SCALE
  5
4D
102
{ACAD_REACTORS
330
42
102
}
330
42
100
AcDbScale
 70
     0
300
1/2" = 1'-0"
140
0.5
141
12.0
290
     0
  0
SCALE
  5
4E
102
{ACAD_REACTORS
330
42
102
}
330
42
100
AcDbScale
 70
     0
300
3/4" = 1'-0"
140
0.75
141
12.0
290
     0
  0
SCALE
  5
4F
102
{ACAD_REACTORS
330
42
102
}
330
42
100
AcDbScale
 70
     0
300
1" = 1'-0"
140
1.0
141
12.0
290
     0
  0
SCALE
  5
50
102
{ACAD_REACTORS
330
42
102
}
330
42
100
AcDbScale
 70
     0
300
1-1/2" = 1'-0"
140
1.5
141
12.0
290
     0
  0
SCALE
  5
51
102
{ACAD_REACTORS
330
42
102
}
330
42
100
AcDbScale
 70
     0
300
3" = 1'-0"
140
3.0
141
12.0
290
     0
  0
SCALE
  5
52
102
{ACAD_REACTORS
330
42
102
}
330
42
100
AcDbScale
 70
     0
300
6" = 1'-0"
140
6.0
141
12.0
290
     0
  0
SCALE
  5
53
102
{ACAD_REACTORS
330
42
102
}
330
42
100
AcDbScale
 70
     0
300
1'-0" = 1'-0"
140
12.0
141
12.0
290
     0
  0
ACDBSECTIONVIEWSTYLE
  5
69
102
{ACAD_REACTORS
330
68
102
}
330
68
100
AcDbModelDocViewStyle
 70
     0
  3
Imperial24
290
     1
300
Imperial24
 90
        0
100
AcDbSectionViewStyle
 70
     0
 71
     0
 90
       78
 71
     1
340
55
 62
   256
 40
0.24
340
0
340
0
 62
   256
 40
0.24
300
I, O, Q, S, X, Z
 40
0.48
 90
        3
 40
0.18
 90
        1
 71
     2
340
5D
 90
       25
 62
   256
340
5D
 90
       50
 62
   256
 40
0.24
 40
0.0
 40
0.24
 71
     3
340
55
 62
   256
 40
0.24
 90
        1
 40
0.75
 90
        1
300
%<\AcVar ViewType \f "%tc1">% %<\AcVar ViewSectionStartId>%-%<\AcVar ViewSectionEndId>%\PSCALE %<\AcVar ViewScale \f "%sn">%
 71
     4
 62
   256
 62
   257
300
ANSI31
 40
1.0
 90
        0
290
     0
290
     0
 90
        6
 40
0.0
 40
1.570796326794896
 40
0.2617993877991494
 40
1.308996938995747
 40
-0.2617993877991494
 40
1.832595714594046
  0
TABLESTYLE
  5
65
102
{ACAD_XDICTIONARY
360
B6
102
}
102
{ACAD_REACTORS
330
64
102
}
330
64
100
AcDbTableStyle
280
     0
  3
Standard
 70
     0
 71
     0
 40
0.06
 41
0.06
280
     0
281
     0
  7
Standard
140
0.18
170
     2
 62
     0
 63
     7
283
     0
 90
      512
 91
        0
  1

274
    -2
284
     1
 64
     0
275
    -2
285
     1
 65
     0
276
    -2
286
     1
 66
     0
277
    -2
287
     1
 67
     0
278
    -2
288
     1
 68
     0
279
    -2
289
     1
 69
     0
  7
Standard
140
0.25
170
     5
 62
     0
 63
     7
283
     0
 90
      512
 91
        0
  1

274
    -2
284
     1
 64
     0
275
    -2
285
     1
 65
     0
276
    -2
286
     1
 66
     0
277
    -2
287
     1
 67
     0
278
    -2
288
     1
 68
     0
279
    -2
289
     1
 69
     0
  7
Standard
140
0.18
170
     5
 62
     0
 63
     7
283
     0
 90
      512
 91
        0
  1

274
    -2
284
     1
 64
     0
275
    -2
285
     1
 65
     0
276
    -2
286
     1
 66
     0
277
    -2
287
     1
 67
     0
278
    -2
288
     1
 68
     0
279
    -2
289
     1
 69
     0
  0
VISUALSTYLE
  5
2F
102
{ACAD_REACTORS
330
29
102
}
330
29
100
AcDbVisualStyle
  2
2dWireframe
 70
     4
177
     3
291
     0
 70
    58
 90
        0
176
     1
 90
        2
176
     1
 90
        0
176
     1
 90
        0
176
     1
 40
0.6
176
     1
 40
30.0
176
     1
 62
     7
420
 16777215
176
     1
 90
        1
176
     1
 90
        4
176
     1
 62
     7
176
     1
 62
   257
176
     1
 90
        1
176
     1
 90
        1
176
     1
 40
1.0
176
     1
 90
        0
176
     1
 62
   257
176
     1
 40
1.0
176
     1
 90
        1
176
     1
 90
        6
176
     1
 90
        2
176
     1
 62
     7
176
     1
 90
        5
176
     1
 90
        0
176
     1
 90
        0
176
     1
290
     0
176
     1
 90
        1
176
     1
 40
0.0
176
     1
 90
        0
176
     1
290
     1
176
     1
290
     1
176
     1
290
     0
176
     1
290
     0
176
     1
290
     0
176
     1
290
     0
176
     1
290
     0
176
     1
290
     0
176
     1
290
     0
176
     1
 90
       50
176
     1
 40
0.0
176
     1
 40
1.0
176
     1
 90
        0
176
     1
 62
    18
420
        0
176
     1
 90
       50
176
     1
 90
        3
176
     1
 62
     5
420
      255
176
     1
290
     0
176
     1
 90
       50
176
     1
 90
       50
176
     1
 90
       50
176
     1
290
     0
176
     1
 90
       50
176
     1
 62
   256
176
     0
 40
1.0
176
     0
 90
        2
176
     1
  1
strokes_ogs.tif
176
     1
290
     0
176
     1
 40
1.0
176
     1
 40
1.0
176
     1
  0
VISUALSTYLE
  5
2E
102
{ACAD_REACTORS
330
29
102
}
330
29
100
AcDbVisualStyle
  2
Basic
 70
     7
177
     3
291
     1
 70
    58
 90
        1
176
     1
 90
        0
176
     1
 90
        1
176
     1
 90
        0
176
     1
 40
0.6
176
     1
 40
30.0
176
     1
 62
     7
420
 16777215
176
     1
 90
        0
176
     1
 90
        4
176
     1
 62
     7
176
     1
 62
   257
176
     1
 90
        1
176
     1
 90
        1
176
     1
 40
1.0
176
     1
 90
        8
176
     1
 62
     7
176
     1
 40
1.0
176
     1
 90
        1
176
     1
 90
        6
176
     1
 90
        2
176
     1
 62
     7
176
     1
 90
        5
176
     1
 90
        0
176
     1
 90
        0
176
     1
290
     0
176
     1
 90
        1
176
     1
 40
0.0
176
     1
 90
        0
176
     1
290
     0
176
     1
290
     1
176
     1
290
     1
176
     1
290
     0
176
     1
290
     0
176
     1
290
     0
176
     1
290
     0
176
     1
290
     0
176
     1
290
     0
176
     1
 90
       50
176
     1
 40
0.0
176
     1
 40
1.0
176
     1
 90
        0
176
     1
 62
    18
420
        0
176
     1
 90
       50
176
     1
 90
        3
176
     1
 62
     5
420
      255
176
     1
290
     0
176
     1
 90
       50
176
     1
 90
       50
176
     1
 90
       50
176
     1
290
     0
176
     1
 90
       50
176
     1
 62
   256
176
     0
 40
1.0
176
     0
 90
        2
176
     1
  1
strokes_ogs.tif
176
     1
290
     0
176
     1
 40
1.0
176
     1
 40
1.0
176
     1
  0
VISUALSTYLE
  5
35
102
{ACAD_REACTORS
330
29
102
}
330
29
100
AcDbVisualStyle
  2
Brighten
 70
    12
177
     3
291
     1
 70
    58
 90
        2
176
     1
 90
        2
176
     1
 90
        0
176
     1
 90
        0
176
     1
 40
0.6
176
     1
 40
30.0
176
     1
 62
     7
420
 16777215
176
     1
 90
        1
176
     1
 90
        4
176
     1
 62
     7
176
     1
 62
   257
176
     1
 90
        1
176
     1
 90
        1
176
     1
 40
1.0
176
     1
 90
        8
176
     1
 62
     7
176
     1
 40
1.0
176
     1
 90
        1
176
     1
 90
        6
176
     1
 90
        2
176
     1
 62
     7
176
     1
 90
        5
176
     1
 90
        0
176
     1
 90
        0
176
     1
290
     0
176
     1
 90
        1
176
     1
 40
50.0
176
     1
 90
        0
176
     1
290
     0
176
     1
290
     1
176
     1
290
     1
176
     1
290
     0
176
     1
290
     0
176
     1
290
     0
176
     1
290
     0
176
     1
290
     0
176
     1
290
     0
176
     1
 90
       50
176
     1
 40
0.0
176
     1
 40
1.0
176
     1
 90
        0
176
     1
 62
    18
420
        0
176
     1
 90
       50
176
     1
 90
        3
176
     1
 62
     5
420
      255
176
     1
290
     0
176
     1
 90
       50
176
     1
 90
       50
176
     1
 90
       50
176
     1
290
     0
176
     1
 90
       50
176
     1
 62
   256
176
     0
 40
1.0
176
     0
 90
        2
176
     1
  1
strokes_ogs.tif
176
     1
290
     0
176
     1
 40
1.0
176
     1
 40
1.0
176
     1
  0
VISUALSTYLE
  5
39
102
{ACAD_REACTORS
330
29
102
}
330
29
100
AcDbVisualStyle
  2
ColorChange
 70
    16
177
     3
291
     1
 70
    58
 90
        2
176
     1
 90
        2
176
     1
 90
        3
176
     1
 90
        0
176
     1
 40
0.6
176
     1
 40
30.0
176
     1
 62
     8
420
  8421504
176
     1
 90
        1
176
     1
 90
        4
176
     1
 62
     7
176
     1
 62
   257
176
     1
 90
        1
176
     1
 90
        1
176
     1
 40
1.0
176
     1
 90
        8
176
     1
 62
     8
420
  8421504
176
     1
 40
1.0
176
     1
 90
        1
176
     1
 90
        6
176
     1
 90
        2
176
     1
 62
     7
176
     1
 90
        5
176
     1
 90
        0
176
     1
 90
        0
176
     1
290
     0
176
     1
 90
        1
176
     1
 40
0.0
176
     1
 90
        0
176
     1
290
     0
176
     1
290
     1
176
     1
290
     1
176
     1
290
     0
176
     1
290
     0
176
     1
290
     0
176
     1
290
     0
176
     1
290
     0
176
     1
290
     0
176
     1
 90
       50
176
     1
 40
0.0
176
     1
 40
1.0
176
     1
 90
        0
176
     1
 62
    18
420
        0
176
     1
 90
       50
176
     1
 90
        3
176
     1
 62
     5
420
      255
176
     1
290
     0
176
     1
 90
       50
176
     1
 90
       50
176
     1
 90
       50
176
     1
290
     0
176
     1
 90
       50
176
     1
 62
   256
176
     0
 40
1.0
176
     0
 90
        2
176
     1
  1
strokes_ogs.tif
176
     1
290
     0
176
     1
 40
1.0
176
     1
 40
1.0
176
     1
  0
VISUALSTYLE
  5
32
102
{ACAD_REACTORS
330
29
102
}
330
29
100
AcDbVisualStyle
  2
Conceptual
 70
     9
177
     3
291
     0
 70
    58
 90
        3
176
     1
 90
        2
176
     1
 90
        0
176
     1
 90
        0
176
     1
 40
0.6
176
     1
 40
30.0
176
     1
 62
     7
420
 16777215
176
     1
 90
        2
176
     1
 90
        2
176
     1
 62
     7
176
     1
 62
   257
176
     1
 90
        1
176
     1
 90
        1
176
     1
 40
179.0
176
     1
 90
        8
176
     1
 62
     7
176
     1
 40
1.0
176
     1
 90
        1
176
     1
 90
        6
176
     1
 90
        2
176
     1
 62
     7
176
     1
 90
        3
176
     1
 90
        0
176
     1
 90
        0
176
     1
290
     0
176
     1
 90
        1
176
     1
 40
0.0
176
     1
 90
        0
176
     1
290
     0
176
     1
290
     1
176
     1
290
     1
176
     1
290
     0
176
     1
290
     0
176
     1
290
     0
176
     1
290
     0
176
     1
290
     0
176
     1
290
     0
176
     1
 90
       50
176
     1
 40
0.0
176
     1
 40
1.0
176
     1
 90
        0
176
     1
 62
    18
420
        0
176
     1
 90
       50
176
     1
 90
        3
176
     1
 62
     5
420
      255
176
     1
290
     0
176
     1
 90
       50
176
     1
 90
       50
176
     1
 90
       50
176
     1
290
     0
176
     1
 90
       50
176
     1
 62
   256
176
     0
 40
1.0
176
     0
 90
        2
176
     1
  1
strokes_ogs.tif
176
     1
290
     0
176
     1
 40
1.0
176
     1
 40
1.0
176
     1
  0
VISUALSTYLE
  5
34
102
{ACAD_REACTORS
330
29
102
}
330
29
100
AcDbVisualStyle
  2
Dim
 70
    11
177
     3
291
     1
 70
    58
 90
        2
176
     1
 90
        2
176
     1
 90
        0
176
     1
 90
        0
176
     1
 40
0.6
176
     1
 40
30.0
176
     1
 62
     7
420
 16777215
176
     1
 90
        1
176
     1
 90
        4
176
     1
 62
     7
176
     1
 62
   257
176
     1
 90
        1
176
     1
 90
        1
176
     1
 40
1.0
176
     1
 90
        8
176
     1
 62
     7
176
     1
 40
1.0
176
     1
 90
        1
176
     1
 90
        6
176
     1
 90
        2
176
     1
 62
     7
176
     1
 90
        5
176
     1
 90
        0
176
     1
 90
        0
176
     1
290
     0
176
     1
 90
        1
176
     1
 40
-50.0
176
     1
 90
        0
176
     1
290
     0
176
     1
290
     1
176
     1
290
     1
176
     1
290
     0
176
     1
290
     0
176
     1
290
     0
176
     1
290
     0
176
     1
290
     0
176
     1
290
     0
176
     1
 90
       50
176
     1
 40
0.0
176
     1
 40
1.0
176
     1
 90
        0
176
     1
 62
    18
420
        0
176
     1
 90
       50
176
     1
 90
        3
176
     1
 62
     5
420
      255
176
     1
290
     0
176
     1
 90
       50
176
     1
 90
       50
176
     1
 90
       50
176
     1
290
     0
176
     1
 90
       50
176
     1
 62
   256
176
     0
 40
1.0
176
     0
 90
        2
176
     1
  1
strokes_ogs.tif
176
     1
290
     0
176
     1
 40
1.0
176
     1
 40
1.0
176
     1
  0
VISUALSTYLE
  5
41
102
{ACAD_REACTORS
330
29
102
}
330
29
100
AcDbVisualStyle
  2
EdgeColorOff
 70
    22
177
     3
291
     1
 70
    58
 90
        2
176
     0
 90
        2
176
     0
 90
        0
176
     0
 90
        0
176
     0
 40
0.6
176
     0
 40
30.0
176
     0
 62
     7
420
 16777215
176
     0
 90
        1
176
     0
 90
        4
176
     0
 62
     7
176
     0
 62
   257
176
     0
 90
        1
176
     0
 90
        1
176
     0
 40
1.0
176
     0
 90
        8
176
     2
 62
     7
176
     0
 40
1.0
176
     0
 90
        1
176
     0
 90
        6
176
     0
 90
        2
176
     0
 62
     7
176
     0
 90
        5
176
     0
 90
        0
176
     0
 90
        0
176
     0
290
     0
176
     0
 90
        1
176
     0
 40
0.0
176
     0
 90
        0
176
     0
290
     0
176
     0
290
     1
176
     0
290
     1
176
     0
290
     0
176
     0
290
     0
176
     0
290
     0
176
     0
290
     0
176
     0
290
     0
176
     0
290
     0
176
     0
 90
       50
176
     0
 40
0.0
176
     0
 40
1.0
176
     0
 90
        0
176
     0
 62
    18
420
        0
176
     0
 90
       50
176
     0
 90
        3
176
     0
 62
     5
420
      255
176
     0
290
     0
176
     0
 90
       50
176
     0
 90
       50
176
     0
 90
       50
176
     0
290
     0
176
     0
 90
       50
176
     0
 62
   256
176
     0
 40
1.0
176
     0
 90
        2
176
     0
  1
strokes_ogs.tif
176
     0
290
     0
176
     0
 40
1.0
176
     0
 40
1.0
176
     0
  0
VISUALSTYLE
  5
38
102
{ACAD_REACTORS
330
29
102
}
330
29
100
AcDbVisualStyle
  2
Facepattern
 70
    15
177
     3
291
     1
 70
    58
 90
        2
176
     1
 90
        2
176
     1
 90
        0
176
     1
 90
        0
176
     1
 40
0.6
176
     1
 40
30.0
176
     1
 62
     7
420
 16777215
176
     1
 90
        1
176
     1
 90
        4
176
     1
 62
     7
176
     1
 62
   257
176
     1
 90
        1
176
     1
 90
        1
176
     1
 40
1.0
176
     1
 90
        8
176
     1
 62
     7
176
     1
 40
1.0
176
     1
 90
        1
176
     1
 90
        6
176
     1
 90
        2
176
     1
 62
     7
176
     1
 90
        5
176
     1
 90
        0
176
     1
 90
        0
176
     1
290
     0
176
     1
 90
        1
176
     1
 40
0.0
176
     1
 90
        0
176
     1
290
     0
176
     1
290
     1
176
     1
290
     1
176
     1
290
     0
176
     1
290
     0
176
     1
290
     0
176
     1
290
     0
176
     1
290
     0
176
     1
290
     0
176
     1
 90
       50
176
     1
 40
0.0
176
     1
 40
1.0
176
     1
 90
        0
176
     1
 62
    18
420
        0
176
     1
 90
       50
176
     1
 90
        3
176
     1
 62
     5
420
      255
176
     1
290
     0
176
     1
 90
       50
176
     1
 90
       50
176
     1
 90
       50
176
     1
290
     0
176
     1
 90
       50
176
     1
 62
   256
176
     0
 40
1.0
176
     0
 90
        2
176
     1
  1
strokes_ogs.tif
176
     1
290
     0
176
     1
 40
1.0
176
     1
 40
1.0
176
     1
  0
VISUALSTYLE
  5
2A
102
{ACAD_REACTORS
330
29
102
}
330
29
100
AcDbVisualStyle
  2
Flat
 70
     0
177
     3
291
     1
 70
    58
 90
        2
176
     1
 90
        1
176
     1
 90
        1
176
     1
 90
        2
176
     1
 40
0.6
176
     1
 40
30.0
176
     1
 62
     7
420
 16777215
176
     1
 90
        0
176
     1
 90
        0
176
     1
 62
     7
176
     1
 62
   257
176
     1
 90
        1
176
     1
 90
        1
176
     1
 40
1.0
176
     1
 90
        8
176
     1
 62
     7
176
     1
 40
1.0
176
     1
 90
        1
176
     1
 90
        6
176
     1
 90
        2
176
     1
 62
     7
176
     1
 90
        5
176
     1
 90
        0
176
     1
 90
        0
176
     1
290
     0
176
     1
 90
       13
176
     1
 40
0.0
176
     1
 90
        0
176
     1
290
     0
176
     1
290
     1
176
     1
290
     1
176
     1
290
     0
176
     1
290
     0
176
     1
290
     0
176
     1
290
     0
176
     1
290
     0
176
     1
290
     0
176
     1
 90
       50
176
     1
 40
0.0
176
     1
 40
1.0
176
     1
 90
        0
176
     1
 62
    18
420
        0
176
     1
 90
       50
176
     1
 90
        3
176
     1
 62
     5
420
      255
176
     1
290
     0
176
     1
 90
       50
176
     1
 90
       50
176
     1
 90
       50
176
     1
290
     0
176
     1
 90
       50
176
     1
 62
   256
176
     0
 40
1.0
176
     0
 90
        2
176
     1
  1
strokes_ogs.tif
176
     1
290
     0
176
     1
 40
1.0
176
     1
 40
1.0
176
     1
  0
VISUALSTYLE
  5
2B
102
{ACAD_REACTORS
330
29
102
}
330
29
100
AcDbVisualStyle
  2
FlatWithEdges
 70
     1
177
     3
291
     1
 70
    58
 90
        2
176
     1
 90
        1
176
     1
 90
        1
176
     1
 90
        2
176
     1
 40
0.6
176
     1
 40
30.0
176
     1
 62
     7
420
 16777215
176
     1
 90
        1
176
     1
 90
        0
176
     1
 62
     7
176
     1
 62
   257
176
     1
 90
        1
176
     1
 90
        1
176
     1
 40
1.0
176
     1
 90
        0
176
     1
 62
   257
176
     1
 40
1.0
176
     1
 90
        1
176
     1
 90
        6
176
     1
 90
        2
176
     1
 62
     7
176
     1
 90
        5
176
     1
 90
        0
176
     1
 90
        0
176
     1
290
     0
176
     1
 90
       13
176
     1
 40
0.0
176
     1
 90
        0
176
     1
290
     0
176
     1
290
     1
176
     1
290
     1
176
     1
290
     0
176
     1
290
     0
176
     1
290
     0
176
     1
290
     0
176
     1
290
     0
176
     1
290
     0
176
     1
 90
       50
176
     1
 40
0.0
176
     1
 40
1.0
176
     1
 90
        0
176
     1
 62
    18
420
        0
176
     1
 90
       50
176
     1
 90
        3
176
     1
 62
     5
420
      255
176
     1
290
     0
176
     1
 90
       50
176
     1
 90
       50
176
     1
 90
       50
176
     1
290
     0
176
     1
 90
       50
176
     1
 62
   256
176
     0
 40
1.0
176
     0
 90
        2
176
     1
  1
strokes_ogs.tif
176
     1
290
     0
176
     1
 40
1.0
176
     1
 40
1.0
176
     1
  0
VISUALSTYLE
  5
2C
102
{ACAD_REACTORS
330
29
102
}
330
29
100
AcDbVisualStyle
  2
Gouraud
 70
     2
177
     3
291
     1
 70
    58
 90
        2
176
     1
 90
        2
176
     1
 90
        1
176
     1
 90
        2
176
     1
 40
0.6
176
     1
 40
30.0
176
     1
 62
     7
420
 16777215
176
     1
 90
        0
176
     1
 90
        0
176
     1
 62
     7
176
     1
 62
   257
176
     1
 90
        1
176
     1
 90
        1
176
     1
 40
1.0
176
     1
 90
        0
176
     1
 62
     7
176
     1
 40
1.0
176
     1
 90
        1
176
     1
 90
        6
176
     1
 90
        2
176
     1
 62
     7
176
     1
 90
        5
176
     1
 90
        0
176
     1
 90
        0
176
     1
290
     0
176
     1
 90
       13
176
     1
 40
0.0
176
     1
 90
        0
176
     1
290
     0
176
     1
290
     1
176
     1
290
     1
176
     1
290
     0
176
     1
290
     0
176
     1
290
     0
176
     1
290
     0
176
     1
290
     0
176
     1
290
     0
176
     1
 90
       50
176
     1
 40
0.0
176
     1
 40
1.0
176
     1
 90
        0
176
     1
 62
    18
420
        0
176
     1
 90
       50
176
     1
 90
        3
176
     1
 62
     5
420
      255
176
     1
290
     0
176
     1
 90
       50
176
     1
 90
       50
176
     1
 90
       50
176
     1
290
     0
176
     1
 90
       50
176
     1
 62
   256
176
     0
 40
1.0
176
     0
 90
        2
176
     1
  1
strokes_ogs.tif
176
     1
290
     0
176
     1
 40
1.0
176
     1
 40
1.0
176
     1
  0
VISUALSTYLE
  5
2D
102
{ACAD_REACTORS
330
29
102
}
330
29
100
AcDbVisualStyle
  2
GouraudWithEdges
 70
     3
177
     3
291
     1
 70
    58
 90
        2
176
     1
 90
        2
176
     1
 90
        1
176
     1
 90
        2
176
     1
 40
0.6
176
     1
 40
30.0
176
     1
 62
     7
420
 16777215
176
     1
 90
        1
176
     1
 90
        0
176
     1
 62
     7
176
     1
 62
   257
176
     1
 90
        1
176
     1
 90
        1
176
     1
 40
1.0
176
     1
 90
        0
176
     1
 62
   257
176
     1
 40
1.0
176
     1
 90
        1
176
     1
 90
        6
176
     1
 90
        2
176
     1
 62
     7
176
     1
 90
        5
176
     1
 90
        0
176
     1
 90
        0
176
     1
290
     0
176
     1
 90
       13
176
     1
 40
0.0
176
     1
 90
        0
176
     1
290
     0
176
     1
290
     1
176
     1
290
     1
176
     1
290
     0
176
     1
290
     0
176
     1
290
     0
176
     1
290
     0
176
     1
290
     0
176
     1
290
     0
176
     1
 90
       50
176
     1
 40
0.0
176
     1
 40
1.0
176
     1
 90
        0
176
     1
 62
    18
420
        0
176
     1
 90
       50
176
     1
 90
        3
176
     1
 62
     5
420
      255
176
     1
290
     0
176
     1
 90
       50
176
     1
 90
       50
176
     1
 90
       50
176
     1
290
     0
176
     1
 90
       50
176
     1
 62
   256
176
     0
 40
1.0
176
     0
 90
        2
176
     1
  1
strokes_ogs.tif
176
     1
290
     0
176
     1
 40
1.0
176
     1
 40
1.0
176
     1
  0
VISUALSTYLE
  5
31
102
{ACAD_REACTORS
330
29
102
}
330
29
100
AcDbVisualStyle
  2
Hidden
 70
     6
177
     3
291
     0
 70
    58
 90
        1
176
     1
 90
        2
176
     1
 90
        2
176
     1
 90
        0
176
     1
 40
0.6
176
     1
 40
30.0
176
     1
 62
     7
420
 16777215
176
     1
 90
        2
176
     1
 90
        2
176
     1
 62
     7
176
     1
 62
   257
176
     1
 90
        2
176
     1
 90
        1
176
     1
 40
40.0
176
     1
 90
        0
176
     1
 62
   257
176
     1
 40
1.0
176
     1
 90
        1
176
     1
 90
        6
176
     1
 90
        2
176
     1
 62
     7
176
     1
 90
        3
176
     1
 90
        0
176
     1
 90
        0
176
     1
290
     0
176
     1
 90
        1
176
     1
 40
0.0
176
     1
 90
        0
176
     1
290
     0
176
     1
290
     1
176
     1
290
     1
176
     1
290
     0
176
     1
290
     0
176
     1
290
     0
176
     1
290
     0
176
     1
290
     0
176
     1
290
     0
176
     1
 90
       50
176
     1
 40
0.0
176
     1
 40
1.0
176
     1
 90
        0
176
     1
 62
    18
420
        0
176
     1
 90
       50
176
     1
 90
        3
176
     1
 62
     5
420
      255
176
     1
290
     0
176
     1
 90
       50
176
     1
 90
       50
176
     1
 90
       50
176
     1
290
     0
176
     1
 90
       50
176
     1
 62
   256
176
     0
 40
1.0
176
     0
 90
        2
176
     1
  1
strokes_ogs.tif
176
     1
290
     0
176
     1
 40
1.0
176
     1
 40
1.0
176
     1
  0
VISUALSTYLE
  5
3F
102
{ACAD_REACTORS
330
29
102
}
330
29
100
AcDbVisualStyle
  2
JitterOff
 70
    20
177
     3
291
     1
 70
    58
 90
        2
176
     0
 90
        2
176
     0
 90
        0
176
     0
 90
        0
176
     0
 40
0.6
176
     0
 40
30.0
176
     0
 62
     7
420
 16777215
176
     0
 90
        1
176
     0
 90
        4
176
     0
 62
     7
176
     0
 62
   257
176
     0
 90
        1
176
     0
 90
        1
176
     0
 40
1.0
176
     0
 90
       10
176
     2
 62
     7
176
     0
 40
1.0
176
     0
 90
        1
176
     0
 90
        6
176
     0
 90
        2
176
     0
 62
     7
176
     0
 90
        5
176
     0
 90
        0
176
     0
 90
        0
176
     0
290
     0
176
     0
 90
        1
176
     0
 40
0.0
176
     0
 90
        0
176
     0
290
     0
176
     0
290
     1
176
     0
290
     1
176
     0
290
     0
176
     0
290
     0
176
     0
290
     0
176
     0
290
     0
176
     0
290
     0
176
     0
290
     0
176
     0
 90
       50
176
     0
 40
0.0
176
     0
 40
1.0
176
     0
 90
        0
176
     0
 62
    18
420
        0
176
     0
 90
       50
176
     0
 90
        3
176
     0
 62
     5
420
      255
176
     0
290
     0
176
     0
 90
       50
176
     0
 90
       50
176
     0
 90
       50
176
     0
290
     0
176
     0
 90
       50
176
     0
 62
   256
176
     0
 40
1.0
176
     0
 90
        2
176
     0
  1
strokes_ogs.tif
176
     0
290
     0
176
     0
 40
1.0
176
     0
 40
1.0
176
     0
  0
VISUALSTYLE
  5
37
102
{ACAD_REACTORS
330
29
102
}
330
29
100
AcDbVisualStyle
  2
Linepattern
 70
    14
177
     3
291
     1
 70
    58
 90
        2
176
     1
 90
        2
176
     1
 90
        0
176
     1
 90
        0
176
     1
 40
0.6
176
     1
 40
30.0
176
     1
 62
     7
420
 16777215
176
     1
 90
        1
176
     1
 90
        4
176
     1
 62
     7
176
     1
 62
   257
176
     1
 90
        7
176
     1
 90
        7
176
     1
 40
1.0
176
     1
 90
        8
176
     1
 62
     7
176
     1
 40
1.0
176
     1
 90
        1
176
     1
 90
        6
176
     1
 90
        2
176
     1
 62
     7
176
     1
 90
        5
176
     1
 90
        0
176
     1
 90
        0
176
     1
290
     0
176
     1
 90
        1
176
     1
 40
0.0
176
     1
 90
        0
176
     1
290
     0
176
     1
290
     1
176
     1
290
     1
176
     1
290
     0
176
     1
290
     0
176
     1
290
     0
176
     1
290
     0
176
     1
290
     0
176
     1
290
     0
176
     1
 90
       50
176
     1
 40
0.0
176
     1
 40
1.0
176
     1
 90
        0
176
     1
 62
    18
420
        0
176
     1
 90
       50
176
     1
 90
        3
176
     1
 62
     5
420
      255
176
     1
290
     0
176
     1
 90
       50
176
     1
 90
       50
176
     1
 90
       50
176
     1
290
     0
176
     1
 90
       50
176
     1
 62
   256
176
     0
 40
1.0
176
     0
 90
        2
176
     1
  1
strokes_ogs.tif
176
     1
290
     0
176
     1
 40
1.0
176
     1
 40
1.0
176
     1
  0
VISUALSTYLE
  5
40
102
{ACAD_REACTORS
330
29
102
}
330
29
100
AcDbVisualStyle
  2
OverhangOff
 70
    21
177
     3
291
     1
 70
    58
 90
        2
176
     0
 90
        2
176
     0
 90
        0
176
     0
 90
        0
176
     0
 40
0.6
176
     0
 40
30.0
176
     0
 62
     7
420
 16777215
176
     0
 90
        1
176
     0
 90
        4
176
     0
 62
     7
176
     0
 62
   257
176
     0
 90
        1
176
     0
 90
        1
176
     0
 40
1.0
176
     0
 90
        9
176
     2
 62
     7
176
     0
 40
1.0
176
     0
 90
        1
176
     0
 90
        6
176
     0
 90
        2
176
     0
 62
     7
176
     0
 90
        5
176
     0
 90
        0
176
     0
 90
        0
176
     0
290
     0
176
     0
 90
        1
176
     0
 40
0.0
176
     0
 90
        0
176
     0
290
     0
176
     0
290
     1
176
     0
290
     1
176
     0
290
     0
176
     0
290
     0
176
     0
290
     0
176
     0
290
     0
176
     0
290
     0
176
     0
290
     0
176
     0
 90
       50
176
     0
 40
0.0
176
     0
 40
1.0
176
     0
 90
        0
176
     0
 62
    18
420
        0
176
     0
 90
       50
176
     0
 90
        3
176
     0
 62
     5
420
      255
176
     0
290
     0
176
     0
 90
       50
176
     0
 90
       50
176
     0
 90
       50
176
     0
290
     0
176
     0
 90
       50
176
     0
 62
   256
176
     0
 40
1.0
176
     0
 90
        2
176
     0
  1
strokes_ogs.tif
176
     0
290
     0
176
     0
 40
1.0
176
     0
 40
1.0
176
     0
  0
VISUALSTYLE
  5
33
102
{ACAD_REACTORS
330
29
102
}
330
29
100
AcDbVisualStyle
  2
Realistic
 70
     8
177
     3
291
     0
 70
    58
 90
        2
176
     1
 90
        3
176
     1
 90
        0
176
     1
 90
        2
176
     1
 40
0.6
176
     1
 40
30.0
176
     1
 62
     7
420
 16777215
176
     1
 90
        0
176
     1
 90
        0
176
     1
 62
     7
176
     1
 62
   257
176
     1
 90
        1
176
     1
 90
        1
176
     1
 40
1.0
176
     1
 90
        8
176
     1
 62
   257
176
     1
 40
1.0
176
     1
 90
        1
176
     1
 90
        6
176
     1
 90
        2
176
     1
 62
     7
176
     1
 90
        3
176
     1
 90
        0
176
     1
 90
        0
176
     1
290
     0
176
     1
 90
       13
176
     1
 40
0.0
176
     1
 90
        0
176
     1
290
     0
176
     1
290
     1
176
     1
290
     1
176
     1
290
     0
176
     1
290
     0
176
     1
290
     0
176
     1
290
     0
176
     1
290
     0
176
     1
290
     0
176
     1
 90
       50
176
     1
 40
0.0
176
     1
 40
1.0
176
     1
 90
        0
176
     1
 62
    18
420
        0
176
     1
 90
       50
176
     1
 90
        3
176
     1
 62
     5
420
      255
176
     1
290
     0
176
     1
 90
       50
176
     1
 90
       50
176
     1
 90
       50
176
     1
290
     0
176
     1
 90
       50
176
     1
 62
   256
176
     0
 40
1.0
176
     0
 90
        2
176
     1
  1
strokes_ogs.tif
176
     1
290
     0
176
     1
 40
1.0
176
     1
 40
1.0
176
     1
  0
VISUALSTYLE
  5
3E
102
{ACAD_REACTORS
330
29
102
}
330
29
100
AcDbVisualStyle
  2
Shaded
 70
    27
177
     3
291
     0
 70
    58
 90
        2
176
     1
 90
        2
176
     1
 90
        1
176
     1
 90
        2
176
     1
 40
0.6
176
     1
 40
30.0
176
     1
 62
     7
420
 16777215
176
     1
 90
        0
176
     1
 90
        4
176
     1
 62
     7
176
     1
 62
   257
176
     1
 90
        1
176
     1
 90
        1
176
     1
 40
1.0
176
     1
 90
        8
176
     1
 62
   257
176
     1
 40
1.0
176
     1
 90
        1
176
     1
 90
        6
176
     1
 90
        2
176
     1
 62
     8
420
  7895160
176
     1
 90
        3
176
     1
 90
        0
176
     1
 90
        0
176
     1
290
     0
176
     1
 90
        5
176
     1
 40
0.0
176
     1
 90
        0
176
     1
290
     0
176
     1
290
     1
176
     1
290
     1
176
     1
290
     0
176
     1
290
     0
176
     1
290
     0
176
     1
290
     0
176
     1
290
     0
176
     1
290
     0
176
     1
 90
       50
176
     1
 40
0.0
176
     1
 40
1.0
176
     1
 90
        0
176
     1
 62
    18
420
        0
176
     1
 90
       50
176
     1
 90
        3
176
     1
 62
     5
420
      255
176
     1
290
     0
176
     1
 90
       50
176
     1
 90
       50
176
     1
 90
       50
176
     1
290
     0
176
     1
 90
       50
176
     1
 62
   256
176
     0
 40
1.0
176
     0
 90
        2
176
     1
  1
strokes_ogs.tif
176
     1
290
     0
176
     1
 40
1.0
176
     1
 40
1.0
176
     1
  0
VISUALSTYLE
  5
3D
102
{ACAD_REACTORS
330
29
102
}
330
29
100
AcDbVisualStyle
  2
Shaded with edges
 70
    26
177
     3
291
     0
 70
    58
 90
        2
176
     1
 90
        2
176
     1
 90
        1
176
     1
 90
        2
176
     1
 40
0.6
176
     1
 40
30.0
176
     1
 62
     7
420
 16777215
176
     1
 90
        1
176
     1
 90
        2
176
     1
 62
     7
176
     1
 62
   257
176
     1
 90
        2
176
     1
 90
        1
176
     1
 40
1.0
176
     1
 90
        8
176
     1
 62
   257
176
     1
 40
1.0
176
     1
 90
        1
176
     1
 90
        6
176
     1
 90
        2
176
     1
 62
     7
176
     1
 90
        3
176
     1
 90
        0
176
     1
 90
        0
176
     1
290
     0
176
     1
 90
        5
176
     1
 40
0.0
176
     1
 90
        0
176
     1
290
     0
176
     1
290
     1
176
     1
290
     1
176
     1
290
     0
176
     1
290
     0
176
     1
290
     0
176
     1
290
     0
176
     1
290
     0
176
     1
290
     0
176
     1
 90
       50
176
     1
 40
0.0
176
     1
 40
1.0
176
     1
 90
        0
176
     1
 62
    18
420
        0
176
     1
 90
       50
176
     1
 90
        3
176
     1
 62
     5
420
      255
176
     1
290
     0
176
     1
 90
       50
176
     1
 90
       50
176
     1
 90
       50
176
     1
290
     0
176
     1
 90
       50
176
     1
 62
   256
176
     0
 40
1.0
176
     0
 90
        2
176
     1
  1
strokes_ogs.tif
176
     1
290
     0
176
     1
 40
1.0
176
     1
 40
1.0
176
     1
  0
VISUALSTYLE
  5
3A
102
{ACAD_REACTORS
330
29
102
}
330
29
100
AcDbVisualStyle
  2
Shades of Gray
 70
    23
177
     3
291
     0
 70
    58
 90
        2
176
     1
 90
        2
176
     1
 90
        3
176
     1
 90
        0
176
     1
 40
0.6
176
     1
 40
30.0
176
     1
 62
     7
420
 16777215
176
     1
 90
        2
176
     1
 90
        2
176
     1
 62
     7
176
     1
 62
     7
176
     1
 90
        1
176
     1
 90
        1
176
     1
 40
40.0
176
     1
 90
        8
176
     1
 62
     7
176
     1
 40
1.0
176
     1
 90
        1
176
     1
 90
        6
176
     1
 90
        2
176
     1
 62
     7
176
     1
 90
        3
176
     1
 90
        0
176
     1
 90
        0
176
     1
290
     0
176
     1
 90
        1
176
     1
 40
0.0
176
     1
 90
        0
176
     1
290
     0
176
     1
290
     1
176
     1
290
     1
176
     1
290
     0
176
     1
290
     0
176
     1
290
     0
176
     1
290
     0
176
     1
290
     0
176
     1
290
     0
176
     1
 90
       50
176
     1
 40
0.0
176
     1
 40
1.0
176
     1
 90
        0
176
     1
 62
    18
420
        0
176
     1
 90
       50
176
     1
 90
        3
176
     1
 62
     5
420
      255
176
     1
290
     0
176
     1
 90
       50
176
     1
 90
       50
176
     1
 90
       50
176
     1
290
     0
176
     1
 90
       50
176
     1
 62
   256
176
     0
 40
1.0
176
     0
 90
        2
176
     1
  1
strokes_ogs.tif
176
     1
290
     0
176
     1
 40
1.0
176
     1
 40
1.0
176
     1
  0
VISUALSTYLE
  5
3B
102
{ACAD_REACTORS
330
29
102
}
330
29
100
AcDbVisualStyle
  2
Sketchy
 70
    24
177
     3
291
     0
 70
    58
 90
        1
176
     1
 90
        2
176
     1
 90
        2
176
     1
 90
        0
176
     1
 40
0.6
176
     1
 40
30.0
176
     1
 62
     7
420
 16777215
176
     1
 90
        2
176
     1
 90
        2
176
     1
 62
     7
176
     1
 62
     7
176
     1
 90
        1
176
     1
 90
        1
176
     1
 40
40.0
176
     1
 90
       11
176
     1
 62
     7
176
     1
 40
1.0
176
     1
 90
        1
176
     1
 90
        6
176
     1
 90
        2
176
     1
 62
     7
176
     1
 90
        6
176
     1
 90
        0
176
     1
 90
        0
176
     1
290
     0
176
     1
 90
        1
176
     1
 40
0.0
176
     1
 90
        0
176
     1
290
     0
176
     1
290
     1
176
     1
290
     1
176
     1
290
     0
176
     1
290
     0
176
     1
290
     0
176
     1
290
     0
176
     1
290
     0
176
     1
290
     0
176
     1
 90
       50
176
     1
 40
0.0
176
     1
 40
1.0
176
     1
 90
        0
176
     1
 62
    18
420
        0
176
     1
 90
       50
176
     1
 90
        3
176
     1
 62
     5
420
      255
176
     1
290
     0
176
     1
 90
       50
176
     1
 90
       50
176
     1
 90
       50
176
     1
290
     0
176
     1
 90
       50
176
     1
 62
   256
176
     0
 40
1.0
176
     0
 90
        2
176
     1
  1
strokes_ogs.tif
176
     1
290
     0
176
     1
 40
1.0
176
     1
 40
1.0
176
     1
  0
VISUALSTYLE
  5
36
102
{ACAD_REACTORS
330
29
102
}
330
29
100
AcDbVisualStyle
  2
Thicken
 70
    13
177
     3
291
     1
 70
    58
 90
        2
176
     1
 90
        2
176
     1
 90
        0
176
     1
 90
        0
176
     1
 40
0.6
176
     1
 40
30.0
176
     1
 62
     7
420
 16777215
176
     1
 90
        1
176
     1
 90
        4
176
     1
 62
     7
176
     1
 62
   257
176
     1
 90
        1
176
     1
 90
        1
176
     1
 40
1.0
176
     1
 90
       12
176
     1
 62
     7
176
     1
 40
1.0
176
     1
 90
        1
176
     1
 90
        6
176
     1
 90
        2
176
     1
 62
     7
176
     1
 90
        5
176
     1
 90
        0
176
     1
 90
        0
176
     1
290
     0
176
     1
 90
        1
176
     1
 40
0.0
176
     1
 90
        0
176
     1
290
     0
176
     1
290
     1
176
     1
290
     1
176
     1
290
     0
176
     1
290
     0
176
     1
290
     0
176
     1
290
     0
176
     1
290
     0
176
     1
290
     0
176
     1
 90
       50
176
     1
 40
0.0
176
     1
 40
1.0
176
     1
 90
        0
176
     1
 62
    18
420
        0
176
     1
 90
       50
176
     1
 90
        3
176
     1
 62
     5
420
      255
176
     1
290
     0
176
     1
 90
       50
176
     1
 90
       50
176
     1
 90
       50
176
     1
290
     0
176
     1
 90
       50
176
     1
 62
   256
176
     0
 40
1.0
176
     0
 90
        2
176
     1
  1
strokes_ogs.tif
176
     1
290
     0
176
     1
 40
1.0
176
     1
 40
1.0
176
     1
  0
VISUALSTYLE
  5
30
102
{ACAD_REACTORS
330
29
102
}
330
29
100
AcDbVisualStyle
  2
Wireframe
 70
     5
177
     3
291
     0
 70
    58
 90
        0
176
     1
 90
        2
176
     1
 90
        0
176
     1
 90
        0
176
     1
 40
0.6
176
     1
 40
30.0
176
     1
 62
     7
420
 16777215
176
     1
 90
        1
176
     1
 90
        4
176
     1
 62
     7
176
     1
 62
   257
176
     1
 90
        1
176
     1
 90
        1
176
     1
 40
1.0
176
     1
 90
        0
176
     1
 62
   257
176
     1
 40
1.0
176
     1
 90
        1
176
     1
 90
        6
176
     1
 90
        2
176
     1
 62
     7
176
     1
 90
        3
176
     1
 90
        0
176
     1
 90
        0
176
     1
290
     0
176
     1
 90
        1
176
     1
 40
0.0
176
     1
 90
        0
176
     1
290
     0
176
     1
290
     1
176
     1
290
     1
176
     1
290
     0
176
     1
290
     0
176
     1
290
     0
176
     1
290
     0
176
     1
290
     0
176
     1
290
     0
176
     1
 90
       50
176
     1
 40
0.0
176
     1
 40
1.0
176
     1
 90
        0
176
     1
 62
    18
420
        0
176
     1
 90
       50
176
     1
 90
        3
176
     1
 62
     5
420
      255
176
     1
290
     0
176
     1
 90
       50
176
     1
 90
       50
176
     1
 90
       50
176
     1
290
     0
176
     1
 90
       50
176
     1
 62
   256
176
     0
 40
1.0
176
     0
 90
        2
176
     1
  1
strokes_ogs.tif
176
     1
290
     0
176
     1
 40
1.0
176
     1
 40
1.0
176
     1
  0
VISUALSTYLE
  5
3C
102
{ACAD_REACTORS
330
29
102
}
330
29
100
AcDbVisualStyle
  2
X-Ray
 70
    25
177
     3
291
     0
 70
    58
 90
        2
176
     1
 90
        2
176
     1
 90
        1
176
     1
 90
        1
176
     1
 40
0.5
176
     1
 40
30.0
176
     1
 62
     7
420
 16777215
176
     1
 90
        1
176
     1
 90
        0
176
     1
 62
     7
176
     1
 62
   257
176
     1
 90
        1
176
     1
 90
        1
176
     1
 40
1.0
176
     1
 90
        8
176
     1
 62
     7
176
     1
 40
1.0
176
     1
 90
        1
176
     1
 90
        6
176
     1
 90
        2
176
     1
 62
     7
176
     1
 90
        3
176
     1
 90
        0
176
     1
 90
        0
176
     1
290
     0
176
     1
 90
       13
176
     1
 40
0.0
176
     1
 90
        0
176
     1
290
     0
176
     1
290
     1
176
     1
290
     1
176
     1
290
     0
176
     1
290
     0
176
     1
290
     0
176
     1
290
     0
176
     1
290
     0
176
     1
290
     0
176
     1
 90
       50
176
     1
 40
0.0
176
     1
 40
1.0
176
     1
 90
        0
176
     1
 62
    18
420
        0
176
     1
 90
       50
176
     1
 90
        3
176
     1
 62
     5
420
      255
176
     1
290
     0
176
     1
 90
       50
176
     1
 90
       50
176
     1
 90
       50
176
     1
290
     0
176
     1
 90
       50
176
     1
 62
   256
176
     0
 40
1.0
176
     0
 90
        2
176
     1
  1
strokes_ogs.tif
176
     1
290
     0
176
     1
 40
1.0
176
     1
 40
1.0
176
     1
  0
DICTIONARYVAR
  5
B5
102
{ACAD_REACTORS
330
B0
102
}
330
B0
100
DictionaryVariables
280
     0
  1
1:1
  0
DICTIONARYVAR
  5
B2
102
{ACAD_REACTORS
330
B0
102
}
330
B0
100
DictionaryVariables
280
     0
  1
STANDARD
  0
DICTIONARYVAR
  5
B1
102
{ACAD_REACTORS
330
B0
102
}
330
B0
100
DictionaryVariables
280
     0
  1
STANDARD
  0
DICTIONARYVAR
  5
B3
102
{ACAD_REACTORS
330
B0
102
}
330
B0
100
DictionaryVariables
280
     0
  1
Imperial24
  0
DICTIONARYVAR
  5
B4
102
{ACAD_REACTORS
330
B0
102
}
330
B0
100
DictionaryVariables
280
     0
  1
Imperial24
  0
DICTIONARY
  5
1A
330
19
100
AcDbDictionary
280
     1
281
     1
  3
BUMPTILE
360
1C
  3
DIFFUSETILE
360
1B
  3
OPACITYTILE
360
1F
  3
REFLECTIONTILE
360
1E
  3
REFRACTIONTILE
360
20
  3
SPECULARTILE
360
1D
  0
DICTIONARY
  5
12
330
11
100
AcDbDictionary
280
     1
281
     1
  3
BUMPTILE
360
14
  3
DIFFUSETILE
360
13
  3
OPACITYTILE
360
17
  3
REFLECTIONTILE
360
16
  3
REFRACTIONTILE
360
18
  3
SPECULARTILE
360
15
  0
DICTIONARY
  5
22
330
21
100
AcDbDictionary
280
     1
281
     1
  3
BUMPTILE
360
24
  3
DIFFUSETILE
360
23
  3
OPACITYTILE
360
27
  3
REFLECTIONTILE
360
26
  3
REFRACTIONTILE
360
28
  3
SPECULARTILE
360
25
  0
DICTIONARY
  5
B6
330
65
100
AcDbDictionary
280
     1
281
     1
  3
ACAD_ROUNDTRIP_2008_TABLESTYLE_CELLSTYLEMAP
360
B7
  0
XRECORD
  5
1C
102
{ACAD_REACTORS
330
1A
102
}
330
1A
100
AcDbXrecord
280
     1
270
     1
271
     1
  0
XRECORD
  5
1B
102
{ACAD_REACTORS
330
1A
102
}
330
1A
100
AcDbXrecord
280
     1
270
     1
271
     1
  0
XRECORD
  5
1F
102
{ACAD_REACTORS
330
1A
102
}
330
1A
100
AcDbXrecord
280
     1
270
     1
271
     1
  0
XRECORD
  5
1E
102
{ACAD_REACTORS
330
1A
102
}
330
1A
100
AcDbXrecord
280
     1
270
     1
271
     1
  0
XRECORD
  5
20
102
{ACAD_REACTORS
330
1A
102
}
330
1A
100
AcDbXrecord
280
     1
270
     1
271
     1
  0
XRECORD
  5
1D
102
{ACAD_REACTORS
330
1A
102
}
330
1A
100
AcDbXrecord
280
     1
270
     1
271
     1
  0
XRECORD
  5
14
102
{ACAD_REACTORS
330
12
102
}
330
12
100
AcDbXrecord
280
     1
270
     1
271
     1
  0
XRECORD
  5
13
102
{ACAD_REACTORS
330
12
102
}
330
12
100
AcDbXrecord
280
     1
270
     1
271
     1
  0
XRECORD
  5
17
102
{ACAD_REACTORS
330
12
102
}
330
12
100
AcDbXrecord
280
     1
270
     1
271
     1
  0
XRECORD
  5
16
102
{ACAD_REACTORS
330
12
102
}
330
12
100
AcDbXrecord
280
     1
270
     1
271
     1
  0
XRECORD
  5
18
102
{ACAD_REACTORS
330
12
102
}
330
12
100
AcDbXrecord
280
     1
270
     1
271
     1
  0
XRECORD
  5
15
102
{ACAD_REACTORS
330
12
102
}
330
12
100
AcDbXrecord
280
     1
270
     1
271
     1
  0
XRECORD
  5
24
102
{ACAD_REACTORS
330
22
102
}
330
22
100
AcDbXrecord
280
     1
270
     1
271
     1
  0
XRECORD
  5
23
102
{ACAD_REACTORS
330
22
102
}
330
22
100
AcDbXrecord
280
     1
270
     1
271
     1
  0
XRECORD
  5
27
102
{ACAD_REACTORS
330
22
102
}
330
22
100
AcDbXrecord
280
     1
270
     1
271
     1
  0
XRECORD
  5
26
102
{ACAD_REACTORS
330
22
102
}
330
22
100
AcDbXrecord
280
     1
270
     1
271
     1
  0
XRECORD
  5
28
102
{ACAD_REACTORS
330
22
102
}
330
22
100
AcDbXrecord
280
     1
270
     1
271
     1
  0
XRECORD
  5
25
102
{ACAD_REACTORS
330
22
102
}
330
22
100
AcDbXrecord
280
     1
270
     1
271
     1
  0
CELLSTYLEMAP
  5
B7
102
{ACAD_REACTORS
330
B6
102
}
330
B6
100
AcDbCellStyleMap
 90
        3
300
CELLSTYLE
  1
TABLEFORMAT_BEGIN
 90
        5
170
     1
 91
        0
 92
    32768
 62
   257
 93
        1
300
CONTENTFORMAT
  1
CONTENTFORMAT_BEGIN
 90
        0
 91
        0
 92
      512
 93
        0
300

 40
0.0
140
1.0
 94
        5
 62
     0
340
55
144
0.25
309
CONTENTFORMAT_END
171
     0
 94
        0
309
TABLEFORMAT_END
  1
CELLSTYLE_BEGIN
 90
        1
 91
        1
300
_TITLE
309
CELLSTYLE_END
300
CELLSTYLE
  1
TABLEFORMAT_BEGIN
 90
        5
170
     1
 91
        0
 92
        0
 62
   257
 93
        1
300
CONTENTFORMAT
  1
CONTENTFORMAT_BEGIN
 90
        0
 91
        0
 92
      512
 93
        0
300

 40
0.0
140
1.0
 94
        5
 62
     0
340
55
144
0.18
309
CONTENTFORMAT_END
171
     0
 94
        0
309
TABLEFORMAT_END
  1
CELLSTYLE_BEGIN
 90
        2
 91
        1
300
_HEADER
309
CELLSTYLE_END
300
CELLSTYLE
  1
TABLEFORMAT_BEGIN
 90
        5
170
     1
 91
        0
 92
        0
 62
   257
 93
        1
300
CONTENTFORMAT
  1
CONTENTFORMAT_BEGIN
 90
        0
 91
        0
 92
      512
 93
        0
300

 40
0.0
140
1.0
 94
        2
 62
     0
340
55
144
0.18
309
CONTENTFORMAT_END
171
     0
 94
        0
309
TABLEFORMAT_END
  1
CELLSTYLE_BEGIN
 90
        3
 91
        2
300
_DATA
309
CELLSTYLE_END
  0
ENDSEC
  0
EOF
