<?xml version="1.0" encoding="utf-8"?>
<!-- Generator: Adobe Illustrator 25.3.1, SVG Export Plug-In . SVG Version: 6.00 Build 0)  -->
<svg version="1.1" xmlns="http://www.w3.org/2000/svg" xmlns:xlink="http://www.w3.org/1999/xlink" x="0px" y="0px"
	 viewBox="0 0 841.9 595.3" style="enable-background:new 0 0 841.9 595.3;" xml:space="preserve">
<style type="text/css">
	.st0{display:none;}
	.st1{display:inline;fill:#231F20;}
	.st2{fill:#231F20;fill-opacity:0;stroke:#231F20;stroke-linecap:round;stroke-linejoin:round;stroke-miterlimit:10;}
	.st3{fill:none;stroke:#231F20;stroke-linecap:round;stroke-linejoin:round;stroke-miterlimit:10;}
</style>
<g id="Layer_3" class="st0">
	<rect transform="matrix(-1 -1.224647e-16 1.224647e-16 -1 841.8959 595.296)" class="st1" width="841.9" height="595.3"/>
</g>
<g id="Layer_2" class="st0">
	
		<image style="display:inline;overflow:visible;" width="755" height="687" xlink:href="keeb.png"  transform="matrix(0.4693 0 0 0.4693 416.4039 81.1258)">
	</image>
	
		<image style="display:inline;overflow:visible;" width="755" height="687" xlink:href="keeb.png"  transform="matrix(-0.4693 0 0 0.4693 416.4039 81.1258)">
	</image>
</g>
<g id="Layer_1" xmlns:svg="http://www.w3.org/2000/svg">
	<desc>Picture generated by PCBNEW</desc>
	<g transform="translate(0 0) scale(1 1)">
	</g>
	<path class="st2" d="M567.1,105.4l-10.8,5"/>
	<path class="st2" d="M702.7,94.5c-45-12.8-93.2-9-135.6,10.8"/>
	<path class="st2" d="M764.6,231.8c2.8-1.2,4.1-4.3,3-7.2"/>
	<path class="st2" d="M764.6,231.8c-59.2,27.8-115.4,61.8-167.4,101.4"/>
	<path class="st2" d="M556.3,110.4c-31.6,18.1-33.7,18.3-63.6,41.2"/>
	<path class="st2" d="M708.8,98c-1.6-1.8-3.7-3-6.1-3.5"/>
	<path class="st2" d="M597.3,333.2c-23.2,17-31.2,31.7-46.4,53.4"/>
	<path class="st2" d="M767.7,224.6L708.8,98"/>
	<path class="st3" d="M550.9,386.7c-6,6.2-7.6,6.3-14.7,3.2"/>
	<path class="st3" d="M536.2,389.8c-39.6-16.6-60.2-19.4-119.8-18.8"/>
	<path class="st3" d="M492.7,151.6c-28.1,20.4-35.3,28.4-76.3,28.4"/>
	<path class="st2" d="M276.5,110.4l-10.8-5"/>
	<path class="st2" d="M265.7,105.4c-42.4-19.8-90.6-23.6-135.6-10.8"/>
	<path class="st2" d="M65.1,224.6c-1.1,2.8,0.3,6,3,7.2"/>
	<path class="st2" d="M235.6,333.2c-52-39.7-108.1-73.7-167.4-101.4"/>
	<path class="st2" d="M340.1,151.6c-29.9-22.9-32-23.1-63.6-41.2"/>
	<path class="st2" d="M130.1,94.5c-2.3,0.5-4.5,1.7-6.1,3.5"/>
	<path class="st2" d="M281.9,386.7c-15.1-21.7-23.2-36.4-46.4-53.4"/>
	<path class="st2" d="M124.1,98L65.1,224.6"/>
	<path class="st3" d="M281.9,386.7c6,6.2,7.6,6.3,14.7,3.2"/>
	<path class="st3" d="M296.6,389.8c39.6-16.6,60.2-19.4,119.8-18.8"/>
	<path class="st3" d="M340.1,151.6c28.1,20.4,35.3,28.4,76.3,28.4"/>
</g>
</svg>
