M48
; DRILL file {KiCad (5.1.12-1-10_14)} date Wednesday, December 22, 2021 at 10:21:57 pm
; FORMAT={-:-/ absolute / inch / decimal}
; #@! TF.CreationDate,2021-12-22T22:21:57-05:00
; #@! TF.GenerationSoftware,Kicad,Pcbnew,(5.1.12-1-10_14)
; #@! TF.FileFunction,NonPlated,1,2,NPTH
FMAT,2
INCH
T1C0.0472
T2C0.0748
T3C0.1339
%
G90
G05
T1
X1.5113Y-3.3381
X1.7941Y-2.7315
X2.077Y-2.1249
X2.3534Y-3.2091
X2.6365Y-2.6019
X2.9189Y-1.9963
X3.1097Y-3.2639
X3.1636Y-4.6996
X3.3929Y-2.6567
X3.6632Y-3.7537
X3.6777Y-2.046
X3.808Y-5.2747
X3.9464Y-3.1465
X4.2284Y-2.5417
X4.2634Y-4.1436
X4.5462Y-3.537
X4.8291Y-2.9304
X7.0441Y-2.7556
X7.327Y-3.3621
X7.4569Y-5.6103
X7.6098Y-3.9687
X7.6448Y-2.3669
X7.9268Y-2.9717
X8.0223Y-4.9627
X8.1955Y-1.8711
X8.21Y-3.5789
X8.4803Y-2.4818
X8.7635Y-3.0891
X8.9543Y-1.8214
X9.2367Y-2.4271
X9.5198Y-3.0343
X9.7962Y-1.9501
X10.0791Y-2.5567
X10.3619Y-3.1632
T2
X1.0589Y-3.3096
X1.3418Y-2.703
X1.4514Y-3.4926
X1.6246Y-2.0964
X1.7343Y-2.886
X1.901Y-3.1806
X2.0171Y-2.2795
X2.1841Y-2.5734
X2.2935Y-3.3637
X2.4665Y-1.9678
X2.5766Y-2.7564
X2.6573Y-3.2354
X2.859Y-2.1508
X2.9405Y-2.6282
X3.0498Y-3.4185
X3.2109Y-3.7252
X3.2253Y-2.0175
X3.2614Y-4.5659
X3.333Y-2.8112
X3.494Y-3.118
X3.5932Y-4.8442
X3.6033Y-3.9083
X3.6178Y-2.2005
X3.776Y-2.5132
X3.811Y-4.1151
X3.8865Y-3.301
X3.9371Y-5.1709
X4.0938Y-3.5085
X4.1685Y-2.6962
X4.1855Y-5.5256
X4.2035Y-4.2981
X4.3767Y-2.9019
X4.4863Y-3.6915
X4.7692Y-3.0849
X6.7315Y-3.0838
X7.0143Y-3.6904
X7.124Y-2.9008
X7.2972Y-4.297
X7.3152Y-5.5244
X7.3322Y-2.6951
X7.4068Y-3.5073
X7.5636Y-5.1697
X7.6142Y-3.2999
X7.6897Y-4.1139
X7.7247Y-2.5121
X7.8829Y-2.1993
X7.8973Y-3.9071
X7.9075Y-4.8431
X8.0067Y-3.1169
X8.1677Y-2.8101
X8.2393Y-4.5647
X8.2754Y-2.0163
X8.2898Y-3.7241
X8.4509Y-3.4173
X8.5602Y-2.627
X8.6416Y-2.1496
X8.8433Y-3.2343
X8.9241Y-2.7553
X9.0341Y-1.9666
X9.2072Y-3.3625
X9.3166Y-2.5723
X9.4836Y-2.2783
X9.5997Y-3.1795
X9.7664Y-2.8849
X9.8761Y-2.0953
X10.0493Y-3.4915
X10.1589Y-2.7019
X10.4418Y-3.3085
T3
X1.2552Y-3.4011
X1.538Y-2.7945
X1.8209Y-2.1879
X2.0972Y-3.2721
X2.3804Y-2.6649
X2.6628Y-2.0593
X2.8536Y-3.3269
X3.1367Y-2.7197
X3.4071Y-3.8168
X3.4215Y-2.109
X3.4273Y-4.705
X3.6903Y-3.2095
X3.9723Y-2.6047
X4.0072Y-4.2066
X4.0613Y-5.3482
X4.2901Y-3.6
X4.5729Y-2.9934
X6.9277Y-2.9923
X7.2106Y-3.5989
X7.4394Y-5.3471
X7.4934Y-4.2054
X7.5284Y-2.6036
X7.8104Y-3.2084
X8.0734Y-4.7039
X8.0792Y-2.1078
X8.0936Y-3.8156
X8.3639Y-2.7186
X8.6471Y-3.3258
X8.8379Y-2.0581
X9.1203Y-2.6638
X9.4035Y-3.271
X9.6798Y-2.1868
X9.9627Y-2.7934
X10.2455Y-3.4
T0
M30
