%TF.GenerationSoftware,KiCad,Pcbnew,(5.1.12-1-10_14)*%
%TF.CreationDate,2021-12-22T22:21:50-05:00*%
%TF.ProjectId,keebwirdv1,6b656562-7769-4726-9476-312e6b696361,rev?*%
%TF.SameCoordinates,Original*%
%TF.FileFunction,AssemblyDrawing,Top*%
%FSLAX46Y46*%
G04 Gerber Fmt 4.6, Leading zero omitted, Abs format (unit mm)*
G04 Created by KiCad (PCBNEW (5.1.12-1-10_14)) date 2021-12-22 22:21:50*
%MOMM*%
%LPD*%
G01*
G04 APERTURE LIST*
%ADD10C,0.150000*%
G04 APERTURE END LIST*
%TO.C,SW1*%
D10*
X191216655Y-58885903D02*
X191366253Y-58868686D01*
X191582040Y-58768063D01*
X191648231Y-58684656D01*
X191671263Y-58621374D01*
X191674172Y-58514934D01*
X191633922Y-58428619D01*
X191550515Y-58362429D01*
X191487233Y-58339396D01*
X191380793Y-58336488D01*
X191188039Y-58373829D01*
X191081599Y-58370921D01*
X191018317Y-58347888D01*
X190934910Y-58281698D01*
X190894661Y-58195383D01*
X190897569Y-58088943D01*
X190920602Y-58025661D01*
X190986792Y-57942254D01*
X191202579Y-57841630D01*
X191352177Y-57824414D01*
X191634155Y-57640384D02*
X192272560Y-58446068D01*
X192143320Y-57718207D01*
X192617821Y-58285071D01*
X192410990Y-57278139D01*
X193003330Y-58210388D02*
X193693850Y-57888393D01*
X193869388Y-57701455D02*
X193446770Y-56795147D01*
X193792030Y-56634150D01*
X193898470Y-56637058D01*
X193961752Y-56660091D01*
X194045159Y-56726281D01*
X194105533Y-56855754D01*
X194102625Y-56962193D01*
X194079592Y-57025475D01*
X194013402Y-57108882D01*
X193668142Y-57269880D01*
X194882368Y-56493509D02*
X195164114Y-57097715D01*
X194493951Y-56674631D02*
X194715322Y-57149364D01*
X194798729Y-57215554D01*
X194905169Y-57218463D01*
X195034641Y-57158089D01*
X195100832Y-57074682D01*
X195123864Y-57011400D01*
X195532407Y-56873435D02*
X195638846Y-56876343D01*
X195811477Y-56795844D01*
X195877667Y-56712437D01*
X195880575Y-56605998D01*
X195860450Y-56562840D01*
X195777043Y-56496650D01*
X195670604Y-56493742D01*
X195541131Y-56554116D01*
X195434692Y-56551208D01*
X195351285Y-56485017D01*
X195331160Y-56441860D01*
X195334068Y-56335420D01*
X195400258Y-56252013D01*
X195529731Y-56191639D01*
X195636171Y-56194547D01*
X196329367Y-56554348D02*
X195906748Y-55648040D01*
X196717784Y-56373226D02*
X196496413Y-55898493D01*
X196413006Y-55832303D01*
X196306566Y-55829395D01*
X196177094Y-55889769D01*
X196110903Y-55973176D01*
X196087871Y-56036458D01*
%TD*%
M02*
