M48
; DRILL file {KiCad (5.1.12-1-10_14)} date Wednesday, December 22, 2021 at 10:21:57 pm
; FORMAT={-:-/ absolute / inch / decimal}
; #@! TF.CreationDate,2021-12-22T22:21:57-05:00
; #@! TF.GenerationSoftware,Kicad,Pcbnew,(5.1.12-1-10_14)
; #@! TF.FileFunction,Plated,1,2,PTH
FMAT,2
INCH
T1C0.0157
T2C0.0390
T3C0.0430
T4C0.0472
T5C0.0512
%
G90
G05
T1
X1.2Y-3.1
X1.4Y-2.55
X3.05Y-2.45
X3.6Y-2.95
X3.9Y-3.9
X5.1Y-3.2
X5.2Y-4.4
X5.6Y-3.9
X6.2Y-3.85
X6.2Y-4.45
X6.4Y-3.05
X6.45Y-3.35
X7.6Y-4.6
X8.05Y-3.45
X8.6Y-3.05
T2
X4.704Y-4.9659
X4.7182Y-4.8422
X4.7325Y-4.7185
X4.7467Y-4.5948
X4.7609Y-4.4712
X4.7752Y-4.3475
X4.7894Y-4.2238
X4.8203Y-4.0644
X4.8345Y-3.9408
X4.8487Y-3.8171
X4.863Y-3.6934
X4.8772Y-3.5697
X4.9081Y-3.4103
X4.9223Y-3.2867
X4.9365Y-3.163
X4.9508Y-3.0393
X4.965Y-2.9156
X4.9759Y-5.0927
X4.9901Y-4.969
X5.0043Y-4.8453
X5.0186Y-4.7216
X5.0328Y-4.5979
X5.047Y-4.4743
X5.0613Y-4.3506
X5.0922Y-4.1912
X5.1064Y-4.0675
X5.1206Y-3.9439
X5.1349Y-3.8202
X5.1491Y-3.6965
X5.18Y-3.5371
X5.1942Y-3.4134
X5.2084Y-3.2898
X5.2227Y-3.1661
X5.2369Y-3.0424
X6.2638Y-3.0412
X6.278Y-3.1649
X6.2923Y-3.2886
X6.3065Y-3.4123
X6.3207Y-3.536
X6.3516Y-3.6953
X6.3658Y-3.819
X6.3801Y-3.9427
X6.3943Y-4.0664
X6.4085Y-4.1901
X6.4394Y-4.3494
X6.4536Y-4.4731
X6.4679Y-4.5968
X6.4821Y-4.7205
X6.4963Y-4.8442
X6.5106Y-4.9678
X6.5248Y-5.0915
X6.5357Y-2.9145
X6.5499Y-3.0381
X6.5641Y-3.1618
X6.5784Y-3.2855
X6.5926Y-3.4092
X6.6235Y-3.5685
X6.6377Y-3.6922
X6.652Y-3.8159
X6.6662Y-3.9396
X6.6804Y-4.0633
X6.7113Y-4.2226
X6.7255Y-4.3463
X6.7398Y-4.47
X6.754Y-4.5937
X6.7682Y-4.7174
X6.7825Y-4.8411
X6.7967Y-4.9647
T3
X5.448Y-3.0327
X5.448Y-3.1327
X5.448Y-3.2327
X5.448Y-3.3327
X5.448Y-3.4327
X5.448Y-3.5327
X5.448Y-3.6327
X5.448Y-3.7327
X5.448Y-3.8327
X5.448Y-3.9327
X5.448Y-4.0327
X5.448Y-4.1327
X6.048Y-3.0327
X6.048Y-3.1327
X6.048Y-3.2327
X6.048Y-3.3327
X6.048Y-3.4327
X6.048Y-3.5327
X6.048Y-3.6327
X6.048Y-3.7327
X6.048Y-3.8327
X6.048Y-3.9327
X6.048Y-4.0327
X6.048Y-4.1327
T4
X1.0135Y-3.4535
X1.157Y-3.6116
X1.2964Y-2.8469
X1.4398Y-3.0051
X1.5792Y-2.2403
X1.7227Y-2.3985
X1.8556Y-3.3245
X1.999Y-3.4827
X2.1387Y-2.7173
X2.2822Y-2.8754
X2.4212Y-2.1117
X2.5646Y-2.2698
X2.612Y-3.3793
X2.7554Y-3.5375
X2.8951Y-2.7721
X3.0386Y-2.9302
X3.1655Y-3.8692
X3.1799Y-2.1614
X3.3089Y-4.0273
X3.3234Y-2.3195
X3.4486Y-3.2619
X3.5766Y-4.5271
X3.5921Y-3.4201
X3.6742Y-4.717
X3.7306Y-2.6571
X3.7656Y-4.259
X3.8741Y-2.8153
X3.9091Y-4.4171
X4.0485Y-3.6524
X4.1919Y-3.8105
X4.2516Y-5.215
X4.2968Y-5.4237
X4.3313Y-3.0458
X4.4748Y-3.2039
X6.8126Y-3.2111
X7.0259Y-3.2028
X7.0954Y-3.8176
X7.2491Y-5.2138
X7.3088Y-3.8094
X7.3783Y-4.4242
X7.4132Y-2.8224
X7.4297Y-5.1
X7.5916Y-4.416
X7.6266Y-2.8141
X7.6953Y-3.4272
X7.9086Y-3.4189
X7.9241Y-4.526
X7.964Y-2.3266
X7.9784Y-4.0344
X8.128Y-4.4628
X8.1773Y-2.3184
X8.1918Y-4.0261
X8.2488Y-2.9373
X8.4621Y-2.9291
X8.5319Y-3.5446
X8.7227Y-2.2769
X8.7453Y-3.5363
X8.9361Y-2.2686
X9.0051Y-2.8826
X9.2185Y-2.8743
X9.2883Y-3.4898
X9.5016Y-3.4815
X9.5646Y-2.4056
X9.778Y-2.3973
X9.8475Y-3.0122
X10.0608Y-3.0039
X10.1304Y-3.6187
X10.3437Y-3.6105
T5
X7.4718Y-2.2163
X7.7038Y-2.1081
T0
M30
